<svg width="256" height="51" viewBox="0 0 256 51" fill="none" xmlns="http://www.w3.org/2000/svg">
<path d="M36.8419 37.3436C36.8419 45.8188 31.281 50.6321 20.1652 50.6321H0V0.356934H18.8699C28.564 0.356934 34.4471 4.88239 34.4471 13.2136C34.4471 19.1727 31.4077 23.0533 26.8831 24.7057C33.2786 26.0703 36.8361 30.3769 36.8361 37.3436H36.8419ZM3.2985 3.51209V23.5484H18.7433C26.5607 23.5484 31.0853 20.1745 31.0853 13.4957C31.0853 6.81694 26.5607 3.51209 18.7433 3.51209H3.2985ZM33.5434 37.0557C33.5434 29.876 28.823 26.7151 20.1652 26.7151H3.2985V47.4712H20.1652C28.823 47.4712 33.5434 44.3103 33.5434 37.0557Z" fill="white" style="fill:white;fill-opacity:1;"/>
<path d="M75.4858 50.6264L64.6923 33.82C63.2704 34.033 61.8486 34.177 60.3001 34.177H47.3766V50.6264H44.0781V0.351196H60.3001C71.675 0.351196 78.5253 6.67302 78.5253 17.3015C78.5253 25.2757 74.6454 30.803 67.9275 33.0312L79.2391 50.6264H75.4916H75.4858ZM60.3001 30.9527C69.9941 30.9527 75.1634 25.9263 75.1634 17.3073C75.1634 8.68816 69.9941 3.6618 60.3001 3.6618H47.3766V30.9527H60.3001Z" fill="white" style="fill:white;fill-opacity:1;"/>
<path d="M86.083 0.356934H89.3815V50.6321H86.083V0.356934Z" fill="white" style="fill:white;fill-opacity:1;"/>
<path d="M96.957 0.356934H113.864C127.415 0.356934 136.568 10.8415 136.568 25.4945C136.568 40.1475 127.415 50.6321 113.864 50.6321H96.957V0.356934ZM113.622 47.3272C125.705 47.3272 133.459 38.2763 133.459 25.4945C133.459 12.7127 125.705 3.66179 113.622 3.66179H100.071V47.3272H113.622Z" fill="white" style="fill:white;fill-opacity:1;"/>
<path d="M177.071 25.7076H180.237V44.5233C176.167 48.83 170.284 50.9891 164.078 50.9891C150.441 50.9891 140.425 40.1418 140.425 25.4945C140.425 10.8473 150.441 0 164.142 0C170.67 0 176.42 2.29727 180.427 6.89757L178.36 9.33879C174.417 5.03212 169.703 3.37969 164.205 3.37969C152.444 3.37969 143.718 12.8624 143.718 25.5003C143.718 38.1382 152.444 47.6209 164.205 47.6209C168.989 47.6209 173.381 46.3254 177.065 43.0264V25.7191L177.071 25.7076Z" fill="white" style="fill:white;fill-opacity:1;"/>
<path d="M217.528 47.3272V50.6321H186.311V0.356934H216.555V3.66179H189.603V23.4851H213.712V26.7151H189.603V47.3272H217.522H217.528Z" fill="white" style="fill:white;fill-opacity:1;"/>
<path d="M222.375 44.1664L223.86 41.4373C226.963 45.03 232.714 47.7591 238.787 47.7591C247.836 47.7591 251.843 43.3776 251.843 37.9194C251.843 22.8345 223.601 31.8854 223.601 13.3576C223.601 6.24697 228.511 0 239.627 0C244.601 0 249.776 1.72152 253.265 4.52545L252.038 7.46758C248.291 4.59455 243.703 3.23 239.627 3.23C230.837 3.23 226.894 7.75545 226.894 13.2827C226.894 28.3676 255.135 19.4606 255.135 37.7006C255.135 44.8112 250.029 50.9891 238.85 50.9891C232.126 50.9891 225.668 48.1852 222.369 44.1664H222.375Z" fill="white" style="fill:white;fill-opacity:1;"/>
</svg>
