<svg width="663" height="103" viewBox="0 0 663 103" fill="none" xmlns="http://www.w3.org/2000/svg">
<path d="M49.3662 82.2295H49.3779C48.9491 82.9479 48.2489 83.5193 47.2842 83.9492C46.3194 84.379 44.7957 84.5599 42.7197 84.4863C39.7127 86.9977 36.0628 89.4018 31.7695 91.6982C27.4761 93.9948 22.7364 96.0597 17.5459 97.8867C12.3554 99.7138 6.89932 101.275 1.17285 102.57L0.744141 101.603C4.7498 99.1646 8.56406 96.3087 12.1748 93.0449C15.7856 89.7811 19.0074 86.4094 21.834 82.9307C24.6604 79.4521 26.8605 76.2052 28.4346 73.1904L49.3662 82.2295ZM58.9297 75.877C68.0186 76.4539 75.387 77.5122 81.04 79.0508C86.693 80.595 90.9531 82.3877 93.8135 84.4297C96.6737 86.4773 98.4453 88.5762 99.1279 90.7256C99.8049 92.8807 99.6971 94.8327 98.8057 96.5918C97.9087 98.3506 96.5323 99.7135 94.6709 100.681C92.8091 101.648 90.7889 101.988 88.6055 101.705C86.4221 101.417 84.4018 100.268 82.54 98.2598C81.3948 96.1783 79.838 93.8646 77.8691 91.3193C75.9002 88.774 73.3443 86.2627 70.1963 83.7852C67.0482 81.3077 63.1495 79.0676 58.4951 77.0596L58.9238 75.877H58.9297ZM40.9521 11.6475C41.0459 10.554 41.1365 9.48479 41.2197 8.43945C41.4341 5.74705 41.541 3.58037 41.541 1.92871L57.4287 3.43359V3.44531C57.3553 4.16355 56.9598 4.8418 56.249 5.49219C55.6747 6.00903 54.8034 6.34357 53.6318 6.49121C53.5475 7.64598 53.4367 8.94442 53.293 10.3857C53.1426 11.8938 52.9859 13.4533 52.8252 15.0635H55.3857L60.5371 7.42188L60.543 7.42676C62.6925 9.43483 64.4582 11.1211 65.8574 12.4844C67.2508 13.8475 68.4867 15.1367 69.5586 16.3584C69.3442 17.5067 68.4471 18.0781 66.873 18.0781H52.5244C52.5117 18.2041 52.4992 18.3305 52.4863 18.457C52.1986 21.2909 51.911 24.0178 51.6289 26.6367C51.482 27.9743 51.3337 29.2129 51.1875 30.3535H54.957L60.752 24.7588L69.9844 32.3906L69.0225 29.3857H76.7344L77.1074 12.8125H67.1943L66.2295 9.79688H75.9961L81.8975 2.37012L95.6357 13.3496C95.207 13.853 94.6874 14.2494 94.0781 14.5322C93.4688 14.8207 92.5547 15.0693 91.3418 15.2842L90.1045 69.6318H90.168L95.2119 61.4531C97.2881 63.5347 99.0377 65.3105 100.471 66.7812C101.904 68.2519 103.117 69.6324 104.121 70.9277C103.833 72.0759 102.902 72.6474 101.328 72.6475H0.857422L0 69.6318H12.292L10.8379 6.1377L23.6055 9.45312C24.9121 7.65085 26.1488 5.88264 27.3125 4.14648C28.4916 2.38734 29.3659 1.00685 29.9414 0L40.9521 11.6475ZM69.9951 32.4004L71.166 33.3682C70.4495 34.2278 69.0563 34.8051 66.9805 35.0879C66.6927 41.689 66.2811 47.0344 65.7451 51.124C65.2092 55.2135 64.4586 58.3698 63.4883 60.5928C62.5235 62.8158 61.2481 64.5021 59.6797 65.6504C58.32 66.7251 56.7454 67.5171 54.957 68.0205C53.1687 68.5239 51.1264 68.7725 48.8359 68.7725C48.8359 67.1208 48.746 65.65 48.5654 64.3604C48.3849 63.0707 48.0119 62.0641 47.4365 61.3457C46.9345 60.5596 46.2578 59.8918 45.4004 59.3545C44.9482 59.0711 44.415 58.8235 43.8027 58.6094C41.6857 61.9639 39.3571 64.8478 36.8184 67.2676L35.2109 66.4082C36.3119 62.8902 37.2269 58.7598 37.9629 54.0137C37.5327 54.2361 36.971 54.3486 36.2773 54.3486H26.0996L26.4619 69.6318H75.8301L76.1973 53.2793H68.4863L67.5215 50.2646H76.2646L76.667 32.4004H69.9951ZM37.1855 33.1211C36.7559 33.3526 36.2036 33.4697 35.5264 33.4697H25.6045L26.0283 51.333H26.5107L31.0186 44.1211V44.127C32.8804 45.9936 34.4379 47.5887 35.6904 48.918C36.6526 49.9391 37.5174 50.9076 38.2891 51.8193C38.9133 47.3927 39.3548 43.0338 39.6113 38.7471L54.5342 42.085H54.5283C54.3139 42.8032 53.9022 43.3748 53.293 43.8047C52.6836 44.2345 51.7695 44.4888 50.5566 44.5566C48.9835 48.9426 47.0996 53.0127 44.9092 56.7793C45.2064 56.794 45.5132 56.8119 45.8291 56.8262C47.3297 56.8997 48.5146 56.9336 49.3721 56.9336C50.5173 56.9336 51.4486 56.6841 52.165 56.1807C53.1635 55.3206 53.987 52.8997 54.6357 48.918C55.1993 45.4286 55.6239 40.2453 55.9141 33.3682H51.5166L47.2275 38.8496L37.1855 33.1211ZM37.7832 12.377C36.6379 12.6654 35.0973 12.9874 33.168 13.3438C31.2386 13.7057 29.1566 14.0458 26.9395 14.3682C26.3405 14.4553 25.7462 14.5344 25.1572 14.6084L25.5332 30.4551H26.1895L30.5898 23.5654V23.5713C32.3783 25.3644 33.879 26.8917 35.0977 28.1475C35.9351 29.0104 36.6866 29.8499 37.3535 30.6611C37.6921 30.4249 38.0499 30.194 38.4268 29.9688C38.6242 29.8517 38.8196 29.7395 39.0127 29.6318C39.1984 28.4286 39.3804 27.0879 39.5547 25.6074C39.8763 22.881 40.181 20.013 40.4688 16.998C40.6029 15.5922 40.7281 14.2218 40.8457 12.8867C40.0507 13.1694 39.0289 13.0014 37.7832 12.377Z" fill="white" style="fill:white;fill-opacity:1;"/>
<path d="M228.429 0.650696C230.358 2.08735 232.062 3.37749 233.528 4.5257C234.995 5.67392 236.536 6.9121 238.144 8.23566C239.751 9.56487 241.201 10.804 242.493 11.9466C242.42 12.5236 242.098 12.9538 241.528 13.2366C240.953 13.525 240.276 13.6663 239.486 13.6663H218.861C217.129 15.4535 215.237 17.2841 213.184 19.1585C210.436 21.667 207.82 23.7842 205.335 25.511H218.341L224.998 18.2991L238.414 28.5257C238.126 28.8877 237.698 29.2616 237.128 29.6575C236.552 30.0534 235.802 30.3191 234.871 30.4661V75.9905C234.87 76.279 234.154 76.7256 232.722 77.3362C231.289 77.9472 229.59 78.5186 227.621 79.056C225.652 79.5933 223.774 79.8645 221.985 79.8646H221.118C222.695 80.1286 224.148 80.4682 225.478 80.8831C229.737 82.2124 232.936 83.9148 235.086 85.9964C237.235 88.0779 238.504 90.2503 238.894 92.5071C239.288 94.7698 238.984 96.7724 237.979 98.5316C236.975 100.291 235.474 101.49 233.472 102.135C231.469 102.78 229.105 102.53 226.386 101.382C225.099 98.7972 223.435 96.1785 221.393 93.5257C219.356 90.8728 217.167 88.3606 214.843 85.9905C212.519 83.6207 210.279 81.5792 208.135 79.8597L208.885 79.2142H208.891C212.775 79.0914 216.244 79.2214 219.3 79.6019V74.8021H199.446V76.7425C199.446 77.1648 199.004 77.6964 198.122 78.345L212.862 87.5013C212.36 88.361 211.215 88.5756 209.427 88.1458C206.566 90.301 202.876 92.3997 198.368 94.4417C193.86 96.4837 188.991 98.2595 183.767 99.7698C178.542 101.274 173.459 102.355 168.522 103L167.88 101.71C171.598 99.8436 175.304 97.5131 178.988 94.7132C182.672 91.9132 186.035 88.9548 189.076 85.8323C190.873 83.9871 192.439 82.2239 193.773 80.5423C193.44 80.6603 193.095 80.7781 192.737 80.889C190.768 81.4998 188.675 81.805 186.458 81.805H184.201V19.2659L199.981 25.511H202.385C202.428 24.3986 202.453 23.1067 202.453 21.636V13.6663H184.799C185.496 14.2968 186.157 14.9065 186.78 15.4935C186.493 16.6416 185.454 17.2131 183.666 17.2132H170.785V81.9066C170.785 85.2776 170.356 88.2928 169.499 90.9456C168.641 93.5985 166.886 95.7368 164.24 97.3489C161.594 98.961 157.549 99.9855 152.11 100.415C152.037 97.8304 151.879 95.5903 151.625 93.6898C151.371 91.7894 150.892 90.2618 150.176 89.1136C149.459 87.9653 148.511 86.9578 147.332 86.098C146.153 85.2382 144.201 84.5537 141.481 84.056V82.7669C143.411 82.914 145.041 82.9988 146.367 83.0384C147.693 83.078 148.979 83.1289 150.231 83.2025C151.484 83.276 152.358 83.3099 152.86 83.3099C153.644 83.3099 154.187 83.1346 154.469 82.7728C154.756 82.4164 154.897 81.9466 154.897 81.3753V17.2132H141.267L140.412 14.2093H164.771L172.607 3.2298C174.537 4.80797 176.258 6.24479 177.759 7.53448C178.93 8.54101 180.134 9.58381 181.374 10.6566H220.592L228.429 0.650696ZM199.446 59.0882V71.7874H219.3V59.0882H199.446ZM199.446 43.6966V56.0735H219.3V43.6966H199.446ZM199.446 28.5257V40.6819H219.3V28.5257H199.446ZM140.412 14.2093H140.403L140.409 14.1976L140.412 14.2093ZM177.223 10.6566H177.229L177.229 10.6517L177.223 10.6566Z" fill="white" style="fill:white;fill-opacity:1;"/>
<path d="M342.315 50.0489H342.321C342.107 51.8419 340.781 52.8495 338.35 53.0645C338.021 55.6912 337.631 58.2341 337.187 60.6954H359.93L367.761 50.4796C369.69 51.9841 371.394 53.3306 372.86 54.5128C374.327 55.6949 375.868 56.9501 377.476 58.2794C379.083 59.6086 380.533 60.8477 381.825 61.9903C381.752 62.5673 381.43 62.9975 380.86 63.2803C380.285 63.5687 379.608 63.71 378.818 63.71H336.604C336.514 64.1516 336.42 64.5904 336.325 65.0264C337.892 67.8271 339.781 70.2778 341.999 72.376C345.288 75.4984 349.086 78.0265 353.379 79.961C357.672 81.8955 362.288 83.4228 367.225 84.5372C372.161 85.6515 377.244 86.4942 382.469 87.0655L382.361 88.3555C379.281 89.2153 376.742 90.8839 374.739 93.3614C372.736 95.8389 371.304 98.9727 370.446 102.779C363.936 100.483 358.226 97.7003 353.323 94.4366C348.42 91.1728 344.29 86.9018 340.922 81.6299C338.699 78.1452 336.807 74.0071 335.24 69.2208C334.31 72.1602 333.038 74.9722 331.421 77.6534C329.238 81.2791 326.089 84.6331 321.977 87.7159C317.858 90.8043 312.425 93.616 305.66 96.1671C298.896 98.7125 290.398 100.958 280.164 102.893L279.521 101.388C287.104 98.4464 293.383 95.4144 298.359 92.2921C303.33 89.1696 307.302 85.9402 310.275 82.6085C313.243 79.2711 315.46 75.8089 316.933 72.2227C318.05 69.4903 318.908 66.6526 319.506 63.71H280.277L279.42 60.6954H320.021C320.573 56.821 320.924 52.7675 321.062 48.545L342.315 50.0489ZM320.414 17.8751L320.419 17.8692C320.205 18.3726 319.793 18.7861 319.184 19.1085C318.574 19.4308 317.626 19.5552 316.34 19.4874C313.835 22.9319 310.794 26.4671 307.218 30.087C303.641 33.7128 299.629 37.1015 295.194 40.2579C290.754 43.4142 285.925 46.141 280.7 48.4376L279.843 47.4698C283.42 43.9572 286.692 39.9355 289.665 35.4161C292.633 30.8966 295.228 26.3035 297.445 21.6426C299.663 16.9817 301.378 12.7107 302.597 8.836L320.414 17.8751ZM343.071 2.2569V2.26276C342.998 2.98114 342.693 3.60917 342.157 4.14655C341.621 4.68382 340.6 5.06248 339.1 5.2774V44.2403C339.099 44.5288 338.439 44.9582 337.113 45.5294C335.787 46.1063 334.106 46.6271 332.069 47.0909C330.033 47.5603 327.939 47.7921 325.79 47.7921H322.998V0.53717L343.071 2.2569ZM345.654 12.377C353.523 13.6667 359.891 15.5899 364.759 18.1348C369.622 20.6803 373.256 23.4636 375.653 26.4786C378.051 29.4935 379.428 32.3954 379.789 35.1954C380.144 37.9953 379.749 40.3822 378.609 42.3506C377.464 44.3248 375.783 45.547 373.565 46.0108C371.348 46.4801 368.843 45.8465 366.051 44.127C365.193 41.327 364.048 38.4929 362.615 35.6251C361.182 32.7572 359.518 29.9738 357.622 27.2813C355.726 24.5889 353.684 22.0437 351.506 19.6397C349.322 17.2357 347.088 15.0635 344.798 13.129L345.654 12.377Z" fill="white" style="fill:white;fill-opacity:1;"/>
<path d="M515.256 3.33698C515.183 4.12889 514.844 4.79081 514.234 5.32819C513.625 5.86552 512.644 6.24507 511.284 6.46002V30.2745L515.786 22.2813C517.936 24.6514 519.718 26.6428 521.151 28.2549C522.584 29.8669 523.798 31.3596 524.802 32.7227C524.587 33.871 523.656 34.4424 522.009 34.4424H511.284V85.8839C511.284 89.187 510.889 91.998 510.104 94.334C509.315 96.6645 507.617 98.5148 505.005 99.878C502.393 101.241 498.404 102.174 493.038 102.678C492.891 100.308 492.644 98.2654 492.288 96.5401C491.927 94.8206 491.284 93.3837 490.358 92.2354C489.501 91.0872 488.389 90.1201 487.029 89.3282C485.67 88.542 483.593 87.8914 480.801 87.3936V85.9962C483.091 86.1432 485.043 86.2515 486.651 86.3194C488.259 86.3929 489.8 86.4664 491.267 86.5342C492.733 86.6078 493.754 86.6417 494.324 86.6417C495.181 86.6417 495.774 86.5002 496.096 86.212C496.417 85.9235 496.581 85.4593 496.581 84.8145V34.4424H475.097L474.239 31.4278H496.581V1.61823L515.256 3.33698ZM449.557 0.53717L463.83 1.82721C463.757 2.40413 463.509 2.90222 463.08 3.33209C462.651 3.76198 461.934 4.08394 460.936 4.29889V20.5899C461.469 18.8221 462.059 16.8383 462.702 14.6387C463.808 10.8377 464.829 7.10402 465.76 3.4444H465.766L482.403 10.1192C482.116 10.764 481.636 11.2677 480.953 11.6241C480.27 11.9861 479.322 12.1273 478.109 12.0538C475.463 14.3503 472.654 16.6469 469.681 18.9434C466.713 21.24 463.864 23.2144 461.145 24.8604L460.936 24.7374V27.8751H464.586L470.922 19.5889C473.568 21.6704 475.785 23.4464 477.579 24.9171C479.368 26.3878 480.976 27.8077 482.409 29.171C482.121 30.3192 481.156 30.8907 479.509 30.8907H457.82L471.238 33.7979C471.097 34.4428 470.702 34.9803 470.059 35.4102C469.415 35.84 468.484 36.0943 467.266 36.1622C465.477 38.2438 463.187 40.6655 460.395 43.4258C458.054 45.7396 455.739 47.8408 453.45 49.7266H459.757L465.766 42.085C468.27 44.0195 470.381 45.6881 472.102 47.0909C473.817 48.4879 475.356 49.8006 476.716 51.0167C476.428 52.1647 475.464 52.7364 473.816 52.7364H455.463V65.7579H456.75L463.192 57.2559C465.838 59.411 468.095 61.2376 469.957 62.7422C471.819 64.2468 473.461 65.6838 474.894 67.0469C474.606 68.1952 473.641 68.7666 471.994 68.7667H455.463V81.2579C462.456 80.6239 469.647 79.944 477.038 79.2139L477.145 80.504C472.349 82.727 466.104 85.3465 458.414 88.3614C450.719 91.3763 441.11 94.8207 429.59 98.6954C428.8 100.059 427.694 100.918 426.261 101.28L419.496 84.0616L419.502 84.0567C422.791 83.9153 427.429 83.6092 433.403 83.1397C435.637 82.9663 437.98 82.7748 440.434 82.5704V68.7667H425.73L424.875 65.7579H440.434V52.7364H423.26L422.403 49.7266H450.962C451.309 48.0582 451.647 46.2059 451.971 44.1778C452.366 41.7003 452.739 39.2285 453.1 36.751C453.405 34.6238 453.634 32.6712 453.782 30.8907H432.505C435.885 31.9752 438.526 33.2296 440.428 34.6573C442.718 36.3769 444.185 38.1366 444.828 39.9297C445.471 41.7228 445.528 43.3914 444.992 44.9356C444.456 46.4798 443.491 47.6793 442.092 48.5391C440.698 49.3988 439.124 49.7208 437.37 49.5059C435.616 49.291 433.917 48.3578 432.27 46.7061C432.557 43.9061 432.393 41.072 431.784 38.2042C431.196 35.4336 430.422 32.996 429.47 30.8907H420.038L419.181 27.8751H434.961V22.128C434.5 22.9079 433.908 23.5683 433.184 24.1085C431.931 25.0418 430.498 25.4372 428.89 25.2901C427.282 25.1486 425.651 24.2889 424.004 22.7051C424.145 20.6236 424.038 18.4908 423.683 16.3018C423.322 14.113 422.825 11.9977 422.182 9.95026C421.538 7.90259 420.788 6.05802 419.925 4.40631L420.997 3.8692L421.003 3.87506C425.296 5.3118 428.585 6.99722 430.876 8.9317C432.786 10.5451 434.146 12.1749 434.961 13.8165V0.53717L448.806 1.82721C448.732 2.33039 448.518 2.7771 448.163 3.17291C447.802 3.56883 447.159 3.8354 446.233 3.98248V27.8751H449.557V0.53717ZM477.359 41.3272C482.51 43.2617 486.466 45.4735 489.219 47.9454C491.972 50.4229 493.783 52.8947 494.641 55.3721C495.498 57.8496 495.662 60.1236 495.126 62.2051C494.59 64.2868 493.568 65.9157 492.067 67.1036C490.567 68.2857 488.812 68.7726 486.81 68.5577C484.807 68.3427 482.798 67.2279 480.795 65.2198C480.936 62.5671 480.829 59.8579 480.474 57.0977C480.113 54.3374 479.577 51.6444 478.866 49.0255C478.15 46.4066 477.325 43.9857 476.395 41.7628L477.359 41.3321V41.3272ZM424.875 65.7579H424.867L424.873 65.752L424.875 65.7579ZM422.403 49.7266H422.401V49.7208L422.403 49.7266Z" fill="white" style="fill:white;fill-opacity:1;"/>
<path d="M657.579 12.8123H657.589C656.946 13.3156 656.032 13.6038 654.853 13.6716C653.674 13.7451 652.224 13.4909 650.503 12.9197C646.853 13.9944 642.627 14.9501 637.837 15.7703C637.695 15.7948 637.552 15.8173 637.409 15.8416V36.2644H642.024L649.324 26.1501V26.156C651.112 27.6606 652.687 28.9901 654.046 30.1384C655.406 31.2867 656.84 32.5248 658.34 33.8484C659.841 35.1777 661.201 36.4167 662.419 37.5593C662.132 38.7076 661.132 39.2791 659.412 39.2791H637.409V58.8621H639.354L645.787 51.6609L659.417 61.9958C659.056 62.4993 658.47 62.9861 657.646 63.45C656.822 63.9194 655.801 64.2923 654.588 64.5808V97.8357C654.588 98.0506 653.928 98.4075 652.602 98.9109C651.276 99.4143 649.719 99.8775 647.93 100.307C646.142 100.737 644.461 100.953 642.887 100.953H640.523V93.0955H622.283V98.0398L622.277 98.0447C622.277 98.4746 621.684 99.0461 620.505 99.7644C619.326 100.483 617.82 101.128 615.998 101.699C614.175 102.27 612.257 102.559 610.254 102.559H608.217V53.1599L622.925 58.8621H623.778V39.2791H605.955L605.097 36.2644H623.778V17.6541C623.42 17.6898 623.06 17.7272 622.7 17.7615C617.402 18.2649 612.144 18.5539 606.919 18.6218L606.706 17.3318C611.213 16.0421 615.828 14.447 620.55 12.5408C625.273 10.6402 629.673 8.6319 633.752 6.51636C637.832 4.40081 641.16 2.40939 643.733 0.542725L657.579 12.8123ZM605.955 66.9392C605.667 67.3012 605.204 67.6751 604.561 68.071C603.918 68.4669 603.094 68.7721 602.09 68.9871V94.7078C602.09 94.9962 601.464 95.4426 600.211 96.0535C598.959 96.6644 597.475 97.219 595.754 97.7224C594.039 98.2258 592.392 98.4753 590.818 98.4753H588.454V90.8386H578.8V97.4001C578.8 97.7565 578.225 98.2772 577.085 98.9617C575.94 99.6404 574.49 100.251 572.736 100.789C570.981 101.326 569.176 101.597 567.314 101.597H565.384V58.6531L579.123 64.032H587.393L593.503 57.4705L605.955 66.9392ZM622.283 61.8767V90.0808H640.523V61.8767H622.283ZM578.8 67.0476V87.824H588.454V67.0476H578.8ZM593.075 41.7625C595.58 43.7705 597.673 45.4729 599.354 46.8757C601.035 48.2729 602.559 49.6192 603.918 50.9089C603.631 52.0572 602.665 52.6287 601.018 52.6287H564.628L563.771 49.614H587.066L593.075 41.7625ZM593.075 27.7683C595.58 29.7763 597.673 31.4788 599.354 32.8816C601.035 34.2788 602.559 35.6251 603.918 36.9148C603.631 38.0631 602.665 38.6345 601.018 38.6345H564.628L563.771 35.6189H587.066L593.075 27.7683ZM597.588 13.6716C600.167 15.6797 602.327 17.4226 604.082 18.8933C605.836 20.364 607.394 21.7435 608.753 23.0388C608.466 24.1871 607.5 24.7585 605.853 24.7585H559.912L559.054 21.7439H591.472L597.588 13.6716ZM571.286 2.15503C576.724 1.94009 580.984 2.37033 584.059 3.44507C587.134 4.5198 589.267 5.92279 590.446 7.64233C591.625 9.36178 592.093 11.104 591.839 12.863C591.585 14.6222 590.784 16.1268 589.424 17.3826C588.065 18.6383 586.366 19.3737 584.324 19.5886C582.282 19.8035 580.121 19.1585 577.831 17.6541C577.469 14.8542 576.594 12.1111 575.201 9.4187C573.807 6.72618 572.285 4.48526 570.637 2.69214L571.28 2.15503H571.286Z" fill="white" style="fill:white;fill-opacity:1;"/>
</svg>
