<svg width="500" height="187" viewBox="0 0 500 187" fill="none" xmlns="http://www.w3.org/2000/svg">
<path d="M69.7708 130.265C67.9407 127.935 66.1218 126.201 65.0102 125.075C64.2074 129.308 64.1962 133.135 65.1506 136.355C66.2172 139.985 70.6409 147.229 72.6451 150.342C68.5638 147.629 64.679 145.259 60.2777 142.484C60.7605 140.925 60.9514 138.623 60.9851 136.417C61.0187 133.991 60.8672 131.694 60.6089 130.608C59.8454 127.467 58.4027 124.783 57.016 122.61C55.6182 120.437 54.2596 118.777 53.4175 117.708C51.1944 123.967 50.7678 130.417 59.1886 141.792C55.068 139.18 51.1046 136.574 47.1861 133.625C47.7475 132.021 49.8022 123.072 46.4731 114.421C45.6535 112.327 44.8282 110.672 44.3005 109.619C39.2593 117.111 41.342 125.683 46.1082 132.803C42.2234 129.815 38.6923 126.702 35.4306 123.139C37.693 118.766 39.8094 109.76 37.968 100.175C30.4623 106.445 31.9219 116.649 34.5267 122.132C31.3885 118.552 28.7445 114.781 26.5214 110.436C26.4877 110.374 26.4596 110.312 26.4259 110.25C28.6883 107.565 34.7625 98.098 34.319 88.5914C27.3915 92.3681 24.7754 99.9441 25.5557 107.312C25.6062 107.937 25.7185 108.511 25.8308 109.045C25.8308 109.045 25.8308 109.051 25.8308 109.057C23.748 104.689 22.2716 100.045 21.3846 95.3513C28.2953 90.1505 32.1464 83.0699 33.0727 75.5333C25.0954 78.038 21.2667 87.235 21.1657 94.1299C20.3348 89.25 19.9081 84.3701 19.9362 79.6253C27.8911 75.2238 32.6349 68.796 34.4369 62.3795C28.6041 63.0493 24.2982 67.5015 21.8281 72.7191C20.9411 74.554 20.2337 76.6028 19.9531 78.5502C20.0429 73.6534 20.5425 68.9255 21.5811 63.9218C22.7432 63.4659 24.8147 62.312 26.8638 61.1694C28.4413 60.2745 34.9871 57.2464 38.434 49.4396C32.7528 49.1019 27.9248 52.783 24.6687 57.3533C23.4561 59.0756 22.367 61.1356 21.7046 63.3814C22.1649 61.2482 22.6871 59.1826 23.2821 57.207C26.4035 46.873 31.557 37.1695 38.0635 28.6649C38.361 28.2653 38.6137 27.9501 38.8102 27.7024C39.5736 27.2353 40.848 26.2671 42.2346 25.1977C44.0816 23.7625 46.1363 22.1527 47.3152 21.0664C52.3509 16.406 54.6919 12.3873 56.5613 9.47736C52.0365 11.1603 48.1797 13.0796 44.3398 17.498C43.2058 18.7981 41.6508 21.0326 40.4382 23.1546C39.4782 24.815 38.7203 26.4022 38.4003 27.3535C38.1926 27.6124 37.9175 27.9557 37.5863 28.3947C36.0144 30.421 34.044 33.1846 32.3205 35.92C32.691 35.0757 33.7464 32.526 34.9927 29.6836C35.6776 28.1133 36.413 26.4529 37.053 24.9107C37.693 23.3685 38.2488 21.9501 38.5182 20.8525C39.2873 17.7794 39.5512 14.149 39.6017 9.97828C35.9471 13.8169 32.6966 18.2128 31.776 23.8975C31.2483 27.0382 30.7486 33.314 32.2138 36.0945C29.2833 40.7605 27.0771 45.1057 25.202 49.6141C28.3121 34.5073 29.564 34.2709 27.5318 22.8056C19.0324 35.4641 22.8554 47.7061 24.9213 50.3064C23.1137 54.7586 21.5923 59.706 20.6211 64.5184C20.4303 49.7098 21.9853 49.1807 17.511 37.6311C11.622 51.2126 16.3939 62.357 20.4022 65.661C19.5152 70.3833 19.0212 75.1956 19.0043 80.1262C15.5799 65.7792 17.1068 64.8899 10.1175 54.3421C6.5639 70.5915 15.8325 79.9798 19.01 81.6234C19.0773 86.2838 19.5208 91.068 20.419 95.8465C19.7902 94.5182 18.9089 92.6383 17.9994 90.5895C17.7973 90.1505 17.6064 89.7059 17.4156 89.2612C14.3504 82.2819 13.8788 79.8279 6.03618 72.4714C6.29442 87.871 15.2992 96.1224 20.7671 97.5745C21.7608 102.128 23.2989 106.636 25.421 110.863C25.3312 110.762 25.2357 110.661 25.1347 110.559C24.6463 110.03 24.1073 109.406 23.5122 108.73C22.9452 108.044 22.2996 107.312 21.6877 106.529C15.7707 99.3194 16.1019 97.1299 5.62075 91.1186C8.11893 101.965 14.0416 110.661 24.8484 112.552C25.1291 112.597 25.3986 112.631 25.6568 112.653C25.9038 112.67 26.1396 112.676 26.3642 112.67C28.6715 116.88 31.383 120.584 34.4369 123.961C33.7352 123.55 31.6019 122.25 29.6595 120.944C21.3509 115.349 21.2779 113.734 9.28664 110.272C17.4212 126.454 31.2258 127.158 35.9639 125.599C39.147 128.92 42.5378 131.835 46.1756 134.616C31.2202 129.426 31.1079 127.811 18.4036 128.424C31.3268 141.809 45.8051 137.345 48.118 136.068C51.7221 138.719 55.4104 141.15 59.1774 143.565C56.0729 142.833 45.9735 140.492 42.7623 140.542C39.3042 140.604 35.4979 141.533 31.2987 143.025C32.966 144.066 35.5765 145.642 38.653 146.773C47.7755 150.167 59.0314 146.52 61.3668 144.961C64.7183 147.094 68.7603 149.632 72.3363 152.075C56.3873 148.13 51.8793 150.291 45.2437 154.237C46.9222 154.957 49.5159 156.077 52.4912 156.792C60.4573 158.717 72.2185 155.115 74.5988 153.651C75.5868 154.355 76.4906 155.03 77.3664 155.694C77.6471 155.216 77.939 154.743 78.2534 154.287C76.6984 153.122 75.1433 152.025 73.65 151.011C75.8394 145.377 75.4521 137.497 69.7708 130.265Z" fill="#F2F2F2" style="fill:#F2F2F2;fill:color(display-p3 0.9490 0.9490 0.9490);fill-opacity:1;"/>
<path d="M429.296 130.09C431.126 127.76 432.945 126.027 434.056 124.901C434.859 129.134 434.87 132.961 433.916 136.181C432.849 139.811 428.425 147.055 426.421 150.167C430.503 147.454 434.387 145.085 438.789 142.31C438.306 140.751 438.115 138.449 438.081 136.242C438.048 133.817 438.199 131.52 438.457 130.434C439.221 127.293 440.664 124.608 442.05 122.436C443.448 120.263 444.807 118.603 445.649 117.533C447.872 123.792 448.299 130.242 439.878 141.618C443.998 139.006 447.962 136.4 451.88 133.451C451.319 131.847 449.264 122.897 452.593 114.246C453.413 112.152 454.238 110.498 454.766 109.445C459.807 116.937 457.724 125.509 452.958 132.629C456.843 129.64 460.374 126.528 463.636 122.965C461.373 118.591 459.257 109.586 461.098 100.001C468.604 106.271 467.145 116.475 464.54 121.957C467.678 118.378 470.322 114.606 472.545 110.261C472.579 110.199 472.607 110.137 472.641 110.076C470.378 107.391 464.304 97.9236 464.747 88.4171C471.675 92.1938 474.291 99.7698 473.511 107.137C473.46 107.762 473.348 108.336 473.236 108.871C473.236 108.871 473.236 108.877 473.236 108.882C475.318 104.515 476.795 99.8711 477.682 95.1769C470.771 89.9762 466.92 82.8956 465.994 75.359C473.971 77.8637 477.8 87.0606 477.901 93.9556C478.732 89.0756 479.158 84.1958 479.13 79.4509C471.175 75.0495 466.432 68.6217 464.629 62.2052C470.462 62.875 474.768 67.3271 477.238 72.5448C478.125 74.3796 478.833 76.4284 479.113 78.3759C479.024 73.4791 478.524 68.7512 477.485 63.7474C476.323 63.2915 474.252 62.1377 472.203 60.9951C470.625 60.1002 464.079 57.072 460.632 49.2653C466.314 48.9276 471.142 52.6087 474.398 57.179C475.61 58.9013 476.699 60.9613 477.362 63.2071C476.901 61.0739 476.379 59.0082 475.784 57.0326C472.663 46.6987 467.509 36.9952 461.003 28.4906C460.705 28.0909 460.453 27.7758 460.256 27.5281C459.493 27.0609 458.218 26.0928 456.832 25.0234C454.985 23.5881 452.93 21.9784 451.751 20.8921C446.716 16.2317 444.375 12.213 442.505 9.30304C447.03 10.986 450.887 12.9053 454.727 17.3236C455.861 18.6238 457.416 20.8583 458.628 22.9803C459.588 24.6407 460.346 26.2279 460.666 27.1791C460.874 27.438 461.149 27.7814 461.48 28.2204C463.052 30.2466 465.022 33.0103 466.746 35.7457C466.375 34.9014 465.32 32.3517 464.074 29.5093C463.389 27.939 462.653 26.2786 462.013 24.7364C461.373 23.1941 460.818 21.7758 460.548 20.6782C459.779 17.6051 459.515 13.9747 459.465 9.80397C463.119 13.6426 466.37 18.0385 467.29 23.7232C467.818 26.8639 468.318 33.1397 466.853 35.9202C469.783 40.5862 471.989 44.9314 473.864 49.4398C470.754 34.3329 469.502 34.0965 471.535 22.6313C480.034 35.2898 476.211 47.5318 474.145 50.1321C475.953 54.5843 477.474 59.5317 478.445 64.3441C478.636 49.5355 477.081 49.0064 481.555 37.4567C487.444 51.0383 482.673 62.1827 478.664 65.4866C479.551 70.209 480.045 75.0213 480.062 79.9519C483.487 65.6048 481.96 64.7155 488.949 54.1677C492.503 70.4172 483.234 79.8055 480.056 81.449C479.989 86.1094 479.546 90.8936 478.647 95.6722C479.276 94.3439 480.158 92.464 481.067 90.4152C481.269 89.9762 481.46 89.5316 481.651 89.0869C484.716 82.1076 485.188 79.6535 493.03 72.2971C492.772 87.6967 483.767 95.948 478.299 97.4002C477.306 101.954 475.767 106.462 473.645 110.689C473.735 110.588 473.831 110.486 473.932 110.385C474.42 109.856 474.959 109.231 475.554 108.556C476.121 107.869 476.767 107.137 477.379 106.355C483.296 99.145 482.965 96.9555 493.446 90.9443C490.947 101.79 485.025 110.486 474.218 112.378C473.937 112.423 473.668 112.456 473.41 112.479C473.163 112.496 472.927 112.501 472.702 112.496C470.395 116.706 467.683 120.409 464.629 123.787C465.331 123.376 467.464 122.076 469.407 120.77C477.715 115.175 477.788 113.56 489.78 110.098C481.645 126.28 467.841 126.984 463.103 125.424C459.919 128.745 456.529 131.661 452.891 134.441C467.846 129.252 467.959 127.636 480.663 128.25C467.74 141.635 453.261 137.171 450.948 135.893C447.344 138.544 443.656 140.976 439.889 143.391C442.994 142.659 453.093 140.317 456.304 140.368C459.762 140.43 463.568 141.359 467.768 142.85C466.1 143.892 463.49 145.468 460.413 146.599C451.291 149.993 440.035 146.346 437.7 144.786C434.348 146.92 430.306 149.458 426.73 151.901C442.679 147.955 447.187 150.117 453.823 154.062C452.144 154.783 449.551 155.903 446.575 156.618C438.609 158.542 426.848 154.94 424.468 153.477C423.48 154.18 422.576 154.856 421.7 155.52C421.419 155.042 421.127 154.569 420.813 154.113C422.368 152.948 423.923 151.85 425.416 150.837C423.227 145.203 423.614 137.323 429.296 130.09Z" fill="#F2F2F2" style="fill:#F2F2F2;fill:color(display-p3 0.9490 0.9490 0.9490);fill-opacity:1;"/>
</svg>
