<svg width="320" height="68" viewBox="0 0 320 68" fill="none" xmlns="http://www.w3.org/2000/svg">
<path d="M0 12.2532H26.7615V16.8742H0V12.2532ZM3.31782 41.966H8.14015V66.7652H3.31782V41.966ZM3.3964 22.3057H24.8022V26.634H3.3964V22.3057ZM3.3964 32.0655H24.8022V36.467H3.3964V32.0655ZM3.69394 2.64539H24.572V7.04687H3.69394V2.64539ZM5.95634 41.966H24.8752V63.3881H5.95634V58.8403H19.9742V46.587H5.95634V41.966ZM43.5695 18.1969L48.9981 19.075C47.342 26.8535 44.8382 33.7259 41.4979 39.6921C38.1577 45.6583 33.9697 50.6001 28.9453 54.5119C28.6926 54.1686 28.3277 53.7408 27.8505 53.2286C27.3734 52.7165 26.8681 52.2155 26.3404 51.7258C25.8127 51.2362 25.3243 50.8196 24.8696 50.4763C29.793 47.0542 33.7732 42.5795 36.8159 37.0524C39.8531 31.5252 42.1042 25.2382 43.5639 18.1969H43.5695ZM26.6829 26.4145H69.646V31.4745H26.6829V26.4145ZM27.5137 7.41272H68.8938V12.2532H27.5137V7.41272ZM36.3332 0.0787964H41.8348V19.5928H36.3332V0.0787964ZM36.9338 41.6002H66.4068V67.3505H60.9052V46.5138H42.2895V67.57H36.9395V41.6002H36.9338ZM39.7239 59.4988H63.3921V64.3393H39.7239V59.4988ZM54.8759 0.0787964H60.4561V19.5928H54.8759V0.0787964Z" fill="#F2F2F2" style="fill:#F2F2F2;fill:color(display-p3 0.9490 0.9490 0.9490);fill-opacity:1;"/>
<path d="M106.361 51.4332L111.941 54.8046C109.982 56.3694 107.691 57.951 105.081 59.5382C102.465 61.1254 99.7646 62.6226 96.9801 64.0128C94.19 65.4087 91.4898 66.6188 88.8793 67.6432C88.5256 67.2042 88.0877 66.737 87.56 66.2473C87.0323 65.7577 86.4934 65.268 85.9376 64.7783C85.3818 64.2886 84.8541 63.8721 84.3545 63.5288C87.0155 62.5494 89.7326 61.39 92.4946 60.0448C95.2567 58.6995 97.8559 57.2699 100.298 55.7502C102.734 54.2362 104.755 52.7896 106.367 51.4219L106.361 51.4332ZM93.5444 3.52344H142.919V49.3731H93.5444V3.52344ZM99.2706 8.66225V17.2457H136.957V8.66225H99.2706ZM99.2706 22.0862V30.7428H136.957V22.0862H99.2706ZM99.2706 35.5833V44.3131H136.957V35.5833H99.2706ZM123.921 55.0241L128.592 51.5007C130.349 52.3788 132.258 53.3469 134.318 54.3994C136.378 55.4519 138.439 56.527 140.499 57.6245C142.559 58.7221 144.496 59.814 146.304 60.889C148.112 61.9641 149.672 62.9434 150.975 63.8215L146.001 67.8571C144.39 66.6808 142.329 65.3524 139.82 63.8609C137.305 62.3693 134.644 60.8271 131.831 59.2399C129.019 57.6527 126.38 56.2455 123.916 55.0185L123.921 55.0241Z" fill="#F2F2F2" style="fill:#F2F2F2;fill:color(display-p3 0.9490 0.9490 0.9490);fill-opacity:1;"/>
<path d="M183.619 9.61347L188.745 11.3752C187.134 13.0412 185.264 14.6679 183.131 16.2551C180.992 17.8423 178.769 19.3226 176.461 20.696C174.149 22.0637 171.914 23.2626 169.753 24.2926C169.45 23.9492 169.034 23.5496 168.507 23.0824C167.979 22.6209 167.451 22.1538 166.923 21.6866C166.396 21.2251 165.907 20.8648 165.453 20.6228C168.821 19.3001 172.15 17.6791 175.44 15.7429C178.729 13.8123 181.458 11.7692 183.619 9.6191V9.61347ZM167.788 4.48029H233.97V9.46714H167.788V4.48029ZM172.768 19.4464H226.285V24.0674H178.118V67.57H172.768V19.4408V19.4464ZM190.934 42.7765L194.701 43.6546C193.292 47.178 191.484 50.4876 189.272 53.5945C187.061 56.7014 184.725 59.3299 182.261 61.48C181.907 61.1873 181.407 60.7933 180.751 60.3037C180.099 59.814 179.521 59.4481 179.016 59.2005C181.525 57.1967 183.827 54.7483 185.915 51.8666C187.998 48.9791 189.671 45.951 190.929 42.7709L190.934 42.7765ZM190.934 25.6828L194.555 26.5609C193.095 29.544 191.299 32.4426 189.166 35.2569C187.032 38.0711 184.832 40.452 182.569 42.4107C182.266 42.118 181.789 41.7409 181.138 41.2737C180.487 40.8122 179.931 40.4801 179.482 40.2831C181.744 38.4257 183.889 36.2137 185.927 33.6415C187.959 31.0749 189.632 28.4239 190.94 25.6828H190.934ZM180.605 47.9829L182.867 45.3431C184.473 46.1762 186.106 47.1668 187.768 48.315C189.424 49.4632 190.973 50.617 192.405 51.7653C193.837 52.9135 194.982 53.9547 195.835 54.8834L193.573 57.889C192.618 56.859 191.434 55.7615 190.03 54.5851C188.621 53.4088 187.1 52.238 185.472 51.0617C183.838 49.8853 182.216 48.8609 180.61 47.9773L180.605 47.9829ZM180.756 30.8892L183.019 28.2494C184.574 28.9811 186.145 29.8423 187.729 30.816C189.312 31.7954 190.794 32.786 192.175 33.7878C193.556 34.7897 194.673 35.7072 195.532 36.5402L193.197 39.5458C192.293 38.6171 191.164 37.6265 189.806 36.5739C188.447 35.5214 186.982 34.497 185.393 33.4952C183.81 32.4933 182.266 31.6265 180.756 30.8892ZM197.789 5.9437H203.29V67.2042H197.789V5.9437ZM216.331 42.7034L220.098 43.5814C218.639 47.0542 216.781 50.33 214.518 53.4144C212.256 56.4988 209.87 59.0879 207.355 61.193C207.001 60.9003 206.501 60.5063 205.845 60.0166C205.193 59.5269 204.638 59.1611 204.189 58.9134C206.748 56.9603 209.101 54.5626 211.234 51.7258C213.367 48.8891 215.068 45.8835 216.32 42.7034H216.331ZM216.034 25.6828L219.655 26.5609C218.195 29.6453 216.376 32.589 214.193 35.4032C212.009 38.2175 209.786 40.5983 207.523 42.557C207.22 42.315 206.743 41.9604 206.092 41.4933C205.44 41.0317 204.862 40.6771 204.357 40.4295C206.771 38.5721 208.994 36.3432 211.026 33.7541C213.059 31.1593 214.731 28.4746 216.039 25.6828H216.034ZM205.553 30.5965L207.815 28.0299C209.421 28.8123 211.054 29.7184 212.716 30.7428C214.372 31.7728 215.933 32.8085 217.392 33.861C218.852 34.9135 220.003 35.9042 220.862 36.8329L218.526 39.7653C217.572 38.8366 216.376 37.8066 214.945 36.6809C213.513 35.5552 211.981 34.4576 210.347 33.377C208.713 32.3019 207.119 31.3732 205.558 30.5909L205.553 30.5965ZM205.783 47.7634L208.045 45.0505C209.701 45.8835 211.374 46.8459 213.059 47.9491C214.743 49.0523 216.337 50.1499 217.847 51.2531C219.357 52.3562 220.559 53.3919 221.468 54.3712L219.206 57.3769C218.251 56.3975 217.033 55.3337 215.551 54.1855C214.069 53.0373 212.475 51.8891 210.762 50.7352C209.056 49.587 207.394 48.5964 205.788 47.7634H205.783ZM211.734 12.1801L215.877 9.02812C218.19 10.0075 220.576 11.1444 223.04 12.439C225.499 13.7335 227.851 15.0337 230.085 16.3283C232.32 17.6228 234.195 18.8104 235.699 19.8855L231.478 23.4089C230.018 22.2832 228.171 21.0506 225.937 19.7053C223.702 18.3601 221.35 17.0149 218.891 15.6697C216.427 14.3245 214.041 13.165 211.728 12.1857L211.734 12.1801ZM223.871 19.4464H229.3V61.4856C229.3 62.9547 229.086 64.0916 228.66 64.8965C228.233 65.7014 227.492 66.3036 226.436 66.692C225.33 67.0804 223.809 67.328 221.878 67.4237C219.941 67.5194 217.544 67.57 214.681 67.57C214.58 66.934 214.355 66.1517 214.002 65.223C213.648 64.2943 213.3 63.5119 212.946 62.8759C215.108 62.9265 217.078 62.9603 218.863 62.9885C220.649 63.011 221.839 62.9997 222.445 62.9491C222.995 62.8984 223.377 62.7746 223.573 62.5832C223.775 62.3862 223.876 62.0204 223.876 61.4856V19.4464H223.871Z" fill="#F2F2F2" style="fill:#F2F2F2;fill:color(display-p3 0.9490 0.9490 0.9490);fill-opacity:1;"/>
<path d="M280.403 39.6921H285.983V45.0505C285.983 46.6658 285.759 48.3431 285.304 50.0767C284.849 51.8159 283.957 53.5382 282.626 55.2493C281.296 56.9603 279.348 58.5982 276.782 60.1629C274.217 61.7277 270.865 63.1573 266.717 64.4575C262.573 65.752 257.409 66.8665 251.228 67.7952C250.925 67.1085 250.459 66.3261 249.836 65.4481C249.207 64.5701 248.617 63.8327 248.062 63.2474C253.838 62.4143 258.666 61.4406 262.534 60.3149C266.402 59.1892 269.518 57.9903 271.881 56.7183C274.245 55.4463 276.041 54.1405 277.271 52.7952C278.5 51.45 279.331 50.1048 279.758 48.7596C280.184 47.4144 280.398 46.1536 280.398 44.9829V39.7034L280.403 39.6921ZM254.473 24.7991H259.525V28.4689C259.525 29.7409 259.362 31.255 259.037 33.0167C258.711 34.7785 258.094 36.5402 257.19 38.3019C256.286 40.0636 254.955 41.6283 253.193 42.996C252.839 42.7034 252.39 42.4107 251.834 42.118C251.278 41.8253 250.739 41.5214 250.212 41.2006C249.684 40.8854 249.196 40.649 248.741 40.5026C250.346 39.2812 251.553 37.9248 252.362 36.4332C253.165 34.9417 253.72 33.4726 254.018 32.0317C254.321 30.5909 254.473 29.3526 254.473 28.3282V24.8048V24.7991ZM249.426 22.7447H269.327V27.2926H249.426V22.7447ZM249.875 47.0317H317.489V51.6527H249.875V47.0317ZM253.193 2.20636H258.094V12.9174H269.248V17.392H253.193V2.20636ZM266.307 0H271.511V41.0824H266.307V0ZM295.1 0L300.153 1.10318C297.486 3.50092 294.197 5.69041 290.278 7.67164C286.36 9.65287 281.762 11.4033 276.485 12.9174C276.182 12.377 275.744 11.7917 275.165 11.1557C274.587 10.5197 274.048 10.0075 273.543 9.61346C278.466 8.39207 282.778 6.93431 286.472 5.24576C290.166 3.55721 293.04 1.81237 295.1 0ZM274.598 23.2569H318.392V27.3657H274.598V23.2569ZM309.348 3.5966H310.331L311.313 3.37709L314.255 4.9193C312.694 7.66037 310.623 10.03 308.035 12.0337C305.447 14.0375 302.533 15.7485 299.288 17.1669C296.049 18.5853 292.591 19.7448 288.925 20.6509C285.254 21.5571 281.509 22.2551 277.692 22.7391C277.49 22.1988 277.164 21.5627 276.709 20.831C276.255 20.0993 275.828 19.5084 275.429 19.0693C278.949 18.681 282.424 18.1012 285.871 17.347C289.312 16.5872 292.552 15.6134 295.594 14.4146C298.637 13.2157 301.349 11.7748 303.735 10.0862C306.12 8.3977 307.996 6.47839 309.348 4.32831V3.5966ZM279.045 10.3452L282.435 8.80295C284.243 9.78231 286.09 10.9699 287.976 12.3602C289.863 13.756 291.328 15.0393 292.389 16.21L288.92 17.8986C287.915 16.7222 286.472 15.4164 284.586 13.9755C282.699 12.5346 280.852 11.3245 279.045 10.3452ZM280.33 30.0111L284.097 27.664C285.652 28.7391 287.202 29.9661 288.734 31.3338C290.267 32.7015 291.435 33.9511 292.237 35.0768L288.24 37.6434C287.488 36.5177 286.365 35.2456 284.883 33.8272C283.401 32.4089 281.88 31.1368 280.325 30.0111H280.33ZM287.415 48.6414C288.774 51.7709 290.856 54.3149 293.669 56.2736C296.481 58.2324 300.013 59.6845 304.257 60.6414C308.501 61.5926 313.441 62.2173 319.066 62.51C318.662 62.904 318.247 63.3881 317.82 63.9791C317.393 64.5644 317 65.1667 316.652 65.7745C316.299 66.3881 316.023 66.9847 315.821 67.57C311.246 67.176 307.142 66.5794 303.499 65.7745C299.855 64.9697 296.65 63.844 293.888 62.4031C291.126 60.9622 288.751 59.1892 286.764 57.0842C284.776 54.9791 283.132 52.4632 281.829 49.5251L287.409 48.647L287.415 48.6414ZM286.433 7.41271L289.52 5.72417C290.929 6.30953 292.383 7.05813 293.893 7.96431C295.404 8.8705 296.807 9.78795 298.115 10.7167C299.423 11.6454 300.501 12.5009 301.354 13.2832L298.115 15.1913C297.312 14.3583 296.268 13.469 294.988 12.5121C293.708 11.5609 292.327 10.6435 290.845 9.7598C289.363 8.88176 287.892 8.09939 286.438 7.41271H286.433ZM292.164 3.5966H310.786V7.04687H287.718L292.164 3.5966ZM301.809 17.8311H307.159V34.4858C307.159 35.7578 306.968 36.7259 306.592 37.3844C306.216 38.043 305.525 38.5721 304.521 38.9604C303.465 39.2531 302.107 39.4388 300.45 39.512C298.794 39.5852 296.706 39.6189 294.197 39.6189C294.096 38.9323 293.882 38.2118 293.557 37.452C293.231 36.6978 292.889 36.0223 292.54 35.437C294.399 35.4876 296.072 35.5102 297.554 35.5102C299.036 35.5102 300.029 35.4876 300.529 35.437C301.029 35.3863 301.371 35.2906 301.545 35.1443C301.719 34.998 301.809 34.7278 301.809 34.3394V17.8311ZM292.613 43.5082L294.949 40.058C296.655 40.452 298.469 40.9135 300.377 41.4538C302.286 41.9942 304.133 42.5514 305.918 43.1424C307.704 43.7277 309.169 44.2906 310.331 44.8309L307.917 48.7202C306.76 48.1799 305.318 47.5833 303.583 46.9247C301.848 46.2662 300.029 45.6414 298.121 45.0561C296.212 44.4707 294.376 43.9585 292.619 43.5139L292.613 43.5082Z" fill="#F2F2F2" style="fill:#F2F2F2;fill:color(display-p3 0.9490 0.9490 0.9490);fill-opacity:1;"/>
</svg>
