<svg width="171" height="51" viewBox="0 0 171 51" fill="none" xmlns="http://www.w3.org/2000/svg">
<path d="M0.0751953 16.9736H18.3004V18.0791H0.0751953V16.9736ZM0.121249 1.22665H18.2831V2.27453H0.121249V1.22665ZM0.489667 8.97059H17.8687V11.8436H16.4007V10.0127H1.90002V11.8436H0.489667V8.97059ZM1.61219 12.9318C2.71745 12.9318 4.00116 12.9318 5.46332 12.9433C6.92548 12.9491 8.4855 12.9548 10.1319 12.9548C11.7782 12.9548 13.4304 12.9491 15.071 12.9318L15.0077 13.8185C13.3901 13.83 11.7782 13.853 10.1722 13.8818C8.56609 13.9106 7.03485 13.9279 5.58421 13.9336C4.13356 13.9394 2.83833 13.9509 1.69278 13.9624L1.61219 12.9376V12.9318ZM1.62946 3.3224H16.7461V4.32998H1.62946V3.3224ZM2.08423 14.9009H16.395V15.9085H2.08423V14.9009ZM2.52173 10.8994H15.733V11.8263H2.52173V10.8994ZM2.56202 5.18786H15.8596V8.10119H2.56202V5.18786ZM4.01267 6.07453V7.22029H14.3284V6.07453H4.01267ZM6.30953 11.0836L7.90409 11.406C7.54719 11.8091 7.15574 12.2006 6.74703 12.5806C6.33831 12.9606 5.95262 13.2888 5.60723 13.5536L4.36382 13.2312C4.6977 12.9203 5.04309 12.5633 5.41151 12.1545C5.77993 11.7457 6.07927 11.3888 6.31528 11.0779L6.30953 11.0836ZM8.34159 0.0233154H9.89585V3.92695H8.34159V0.0233154ZM8.34159 13.473H9.89585V17.5379H8.34159V13.473ZM11.3005 12.1891L12.21 11.4463C12.7626 11.6479 13.344 11.8839 13.9485 12.1603C14.5587 12.4367 15.1343 12.7245 15.6754 13.0239C16.2223 13.3233 16.6713 13.6112 17.034 13.876L16.1014 14.6994C15.756 14.4288 15.3128 14.1409 14.7774 13.8242C14.2363 13.5076 13.6664 13.2082 13.0562 12.9203C12.446 12.6324 11.8646 12.3848 11.2947 12.1891H11.3005Z" fill="white" style="fill:white;fill-opacity:1;"/>
<path d="M27.5225 6.67878L28.4147 5.65394C28.7716 5.81515 29.1458 6.0109 29.5315 6.24697C29.9172 6.48303 30.2798 6.71909 30.6195 6.96091C30.9591 7.20273 31.2297 7.43879 31.4369 7.66333L30.5274 8.79181C30.3317 8.57878 30.0669 8.34273 29.7272 8.0894C29.3876 7.83606 29.0249 7.58272 28.6392 7.33515C28.2535 7.08757 27.8794 6.86878 27.5225 6.67878ZM27.9139 17.4973C28.1787 16.9733 28.4608 16.3573 28.7659 15.6491C29.071 14.9409 29.3761 14.1867 29.6869 13.3864C29.9978 12.5918 30.2798 11.8203 30.5274 11.0833L31.7708 11.8491C31.552 12.5573 31.2988 13.2942 31.0167 14.0485C30.7346 14.8085 30.4468 15.5455 30.159 16.2709C29.8711 16.9964 29.5833 17.67 29.307 18.3033L27.9197 17.4973H27.9139ZM27.9945 1.28969L28.8868 0.305151C29.2437 0.477878 29.6121 0.696663 29.9863 0.949997C30.3604 1.20333 30.7058 1.46242 31.034 1.72151C31.3563 1.9806 31.6269 2.22242 31.8341 2.43545L30.8843 3.56394C30.6886 3.33364 30.4353 3.08606 30.1187 2.80969C29.8021 2.53333 29.4567 2.26273 29.0825 1.99788C28.7083 1.72727 28.3514 1.49697 28.006 1.29545L27.9945 1.28969ZM32.427 6.67878L33.4402 6.89757C33.3423 7.41 33.2099 7.92242 33.0372 8.44636C32.8645 8.9703 32.6746 9.41939 32.4673 9.79364C32.358 9.74182 32.2025 9.66697 32.001 9.57484C31.7996 9.48272 31.6384 9.40788 31.5117 9.35606C31.7478 8.98182 31.9377 8.56151 32.0816 8.10091C32.2256 7.6403 32.3407 7.16818 32.4213 6.68455L32.427 6.67878ZM31.7881 5.10697C32.381 5.07818 33.043 5.05515 33.7683 5.02636C34.4936 4.99757 35.265 4.96879 36.0767 4.92848V5.89575C35.3168 5.94757 34.5857 5.99364 33.8834 6.03394C33.1811 6.07424 32.5249 6.11455 31.9147 6.15485L31.7881 5.10697ZM31.9723 2.59666L32.5537 1.81363C32.9394 2.06697 33.3193 2.35485 33.6935 2.67727C34.0676 2.99969 34.3497 3.28757 34.5454 3.54091L33.9007 4.42758C33.705 4.15697 33.4287 3.85181 33.0603 3.51212C32.6918 3.17242 32.3292 2.86727 31.9723 2.59666ZM33.8777 0L34.9139 0.443327C34.6491 0.886661 34.3843 1.33576 34.1137 1.79061C33.8431 2.24546 33.5841 2.63697 33.3366 2.95939L32.5479 2.57939C32.7839 2.22818 33.0257 1.80788 33.2848 1.30121C33.538 0.8003 33.7395 0.368482 33.8777 0.00575441V0ZM35.1614 1.65242L36.1573 2.15333C35.7313 2.76939 35.2708 3.41999 34.7815 4.10515C34.2922 4.7903 33.8259 5.36606 33.3826 5.83242L32.617 5.37182C32.9048 5.0494 33.2099 4.66939 33.5265 4.22606C33.8431 3.78273 34.1482 3.33939 34.4361 2.8903C34.7239 2.44121 34.9657 2.02666 35.1614 1.65242ZM33.964 12.5112H35.4147C35.2477 13.1273 35.0693 13.7664 34.8736 14.4342C34.6778 15.0964 34.4994 15.6721 34.3325 16.1558L32.9221 15.937C33.1178 15.4533 33.302 14.9006 33.4805 14.2788C33.6589 13.657 33.8201 13.0697 33.9583 12.517L33.964 12.5112ZM34.3785 12.5112H43.3069V11.4461H33.1581V10.4788H44.7748V13.4727H34.3785V12.5055V12.5112ZM33.7971 5.49272H34.8966V10.0988H33.7971V5.49272ZM33.964 14.4976H44.6712V15.5224H33.964V14.4976ZM35.1441 4.26637L35.9097 3.96697C36.1055 4.30091 36.2839 4.66364 36.4509 5.05515C36.6178 5.44667 36.7329 5.78636 36.802 6.08L35.95 6.41969C35.8925 6.12606 35.7946 5.77485 35.6507 5.37182C35.5068 4.96879 35.3341 4.60031 35.1441 4.26637ZM35.265 6.93788L36.1342 6.73636C36.2436 7.08758 36.353 7.46182 36.4566 7.86485C36.5602 8.26788 36.6351 8.61333 36.6754 8.91273L35.7428 9.13152C35.714 8.83788 35.6565 8.48667 35.5644 8.07788C35.4722 7.66909 35.3744 7.28909 35.265 6.94364V6.93788ZM36.4912 2.0497H41.4821V2.97667H36.4912V2.0497ZM37.0495 6.75939H40.964V9.75334H37.0495V6.75939ZM37.1071 3.67909H40.9582V4.54273H37.1071V3.67909ZM37.1071 5.18757H40.9582V6.03394H37.1071V5.18757ZM37.2107 0.483634H40.8143V1.34727H37.2107V0.483634ZM38.0857 7.6V8.93H39.9105V7.6H38.0857ZM44.2164 14.4976H45.6843C45.6556 14.8085 45.621 15.01 45.5807 15.1021C45.3735 15.96 45.1605 16.6279 44.9475 17.1115C44.7345 17.5952 44.4812 17.9349 44.1934 18.1364C43.9862 18.2861 43.7617 18.3839 43.5199 18.4358C43.2781 18.4876 42.9845 18.5164 42.6391 18.5164C42.334 18.5279 41.8908 18.5279 41.3036 18.5164C40.7165 18.5049 40.1005 18.4818 39.45 18.4588C39.4385 18.2861 39.3867 18.0845 39.3061 17.8658C39.2255 17.647 39.1219 17.4455 38.9952 17.2727C39.6688 17.3418 40.3135 17.3821 40.9237 17.3936C41.5339 17.4051 41.9656 17.4167 42.2304 17.4167C42.4492 17.4167 42.6276 17.4109 42.76 17.3936C42.8924 17.3821 43.0133 17.3418 43.1227 17.2727C43.3184 17.123 43.5026 16.8467 43.6811 16.4379C43.8595 16.0291 44.0322 15.4361 44.1992 14.6588L44.2222 14.4976H44.2164ZM42.0174 6.67878L43.0306 6.89757C42.9327 7.41 42.8003 7.91666 42.6391 8.42333C42.4722 8.93575 42.288 9.36757 42.0808 9.7303C41.9714 9.66121 41.8217 9.58061 41.6375 9.48848C41.4533 9.39636 41.2864 9.32151 41.1482 9.26969C41.3669 8.89545 41.5454 8.48091 41.6778 8.03182C41.8102 7.58273 41.9253 7.12788 42.0174 6.67303V6.67878ZM41.3151 5.10697C41.9368 5.09545 42.6391 5.07242 43.4278 5.04939C44.2164 5.0206 45.0454 4.98606 45.9146 4.95151L45.8916 5.89575C45.0914 5.94757 44.3085 5.99364 43.5487 6.03394C42.7888 6.07424 42.0808 6.11455 41.413 6.15485L41.3094 5.10697H41.3151ZM41.4188 2.55637L42.0174 1.79061C42.3743 2.04394 42.737 2.33182 43.1054 2.65424C43.4738 2.97667 43.7444 3.26455 43.9228 3.51788L43.2378 4.38152C43.0421 4.11091 42.7773 3.80576 42.4434 3.45455C42.1038 3.10333 41.7641 2.80394 41.4188 2.5506V2.55637ZM43.3875 0.0230264L44.4006 0.483634C44.1358 0.926968 43.8653 1.37606 43.5832 1.83091C43.3011 2.28575 43.0248 2.67727 42.7658 2.99969L41.9771 2.59666C42.2132 2.24545 42.4664 1.82515 42.7312 1.33C43.0018 0.834847 43.2205 0.397269 43.3817 0.0230264H43.3875ZM44.8324 1.57182L45.8283 2.07272C45.385 2.68878 44.8957 3.33939 44.3603 4.02454C43.8192 4.70969 43.3184 5.28545 42.8464 5.75181L42.121 5.29121C42.4261 4.96879 42.7428 4.58879 43.0709 4.14545C43.4048 3.70212 43.7271 3.25878 44.0437 2.80969C44.3603 2.3606 44.6251 1.94606 44.8324 1.57182ZM43.4278 5.49272H44.5273V10.0988H43.4278V5.49272ZM44.7518 4.22606L45.5577 3.86333C45.8052 4.19727 46.0355 4.56575 46.2427 4.96878C46.45 5.37181 46.5996 5.72879 46.6975 6.03394L45.8283 6.45424C45.7477 6.14333 45.6038 5.78636 45.4023 5.36606C45.2008 4.95151 44.9821 4.57152 44.7518 4.2203V4.22606ZM45.0224 6.9206L45.9146 6.66151C46.0816 7.07606 46.2485 7.53091 46.4212 8.0203C46.5939 8.50969 46.7148 8.93 46.7838 9.27546L45.8513 9.55757C45.7822 9.20636 45.6671 8.78606 45.5117 8.27939C45.3505 7.77848 45.1893 7.32363 45.0224 6.9206Z" fill="white" style="fill:white;fill-opacity:1;"/>
<path d="M58.5439 5.25089L59.4995 5.55029C59.3498 6.33908 59.1599 7.16816 58.9296 8.0318C58.6994 8.89544 58.4403 9.7418 58.1525 10.5766C57.8647 11.4057 57.548 12.183 57.2084 12.897C56.8688 13.6166 56.5234 14.2212 56.1607 14.7163C56.0801 14.5263 55.9592 14.3076 55.7981 14.0542C55.6369 13.8009 55.4987 13.5879 55.3721 13.4094C55.7059 12.9545 56.0283 12.4133 56.3449 11.78C56.6615 11.1524 56.9609 10.4673 57.2487 9.73028C57.5308 8.99331 57.7898 8.23908 58.0143 7.46756C58.2446 6.69605 58.4173 5.95332 58.5439 5.24514V5.25089ZM55.8096 4.40453H62.2914V5.81513H55.8096V4.40453ZM58.5842 0.0402832H59.9946V18.5221H58.5842V0.0402832ZM59.891 7.21998C60.0003 7.35241 60.173 7.58847 60.409 7.92241C60.6451 8.25634 60.8984 8.62484 61.1747 9.01635C61.451 9.41362 61.7043 9.78211 61.9288 10.1218C62.159 10.4615 62.3202 10.7091 62.4181 10.8588L61.5719 11.9642C61.474 11.7109 61.3243 11.3885 61.1171 11.0085C60.9099 10.6285 60.6796 10.2254 60.4321 9.79937C60.1845 9.37907 59.9543 8.98755 59.747 8.63058C59.5398 8.27361 59.3671 8.00302 59.229 7.81877L59.891 7.21423V7.21998ZM66.9312 1.77332L68.3588 1.9518C68.1228 2.79817 67.7717 3.63301 67.3054 4.46786C66.8333 5.29695 66.2347 6.08574 65.5036 6.82847C64.7725 7.5712 63.8802 8.23907 62.8326 8.8321C62.7635 8.71119 62.6714 8.59029 62.562 8.45786C62.4526 8.3312 62.3317 8.21029 62.2108 8.09513C62.0842 7.97998 61.9691 7.89362 61.8597 7.82453C62.8383 7.31786 63.673 6.72483 64.358 6.05695C65.0431 5.38907 65.5957 4.68089 66.0159 3.94392C66.4361 3.20695 66.7412 2.4815 66.937 1.77332H66.9312ZM62.4987 3.40271H74.3687V4.62907H62.4987V3.40271ZM62.752 10.5364H73.2519V11.7454H64.2026V18.5451H62.752V10.5421V10.5364ZM72.256 0.322408L73.1655 1.34726C72.5438 1.47968 71.8358 1.60634 71.0299 1.72149C70.2297 1.83665 69.3835 1.92877 68.4912 2.00362C67.599 2.07847 66.7067 2.13604 65.8087 2.17635C64.9107 2.21665 64.0472 2.24544 63.2182 2.25695C63.2067 2.12453 63.1607 1.9518 63.0916 1.74453C63.0225 1.53726 62.9477 1.35877 62.8613 1.20907C63.673 1.18028 64.5192 1.14574 65.3885 1.09968C66.2577 1.05362 67.1154 0.990282 67.9674 0.921192C68.8194 0.846343 69.608 0.765744 70.3391 0.667866C71.0702 0.575744 71.7034 0.460586 72.2445 0.328162L72.256 0.322408ZM65.0488 5.85544H71.6976V9.59786H65.0488V5.85544ZM65.7338 12.8336H66.8909V17.48H65.7338V12.8336ZM66.3959 6.85726V8.60756H70.3103V6.85726H66.3959ZM66.3959 12.8336H71.0586V16.576H66.3959V15.5915H69.8555V13.8239H66.3959V12.8394V12.8336ZM70.4542 3.82301C70.7593 4.33544 71.145 4.83635 71.6113 5.3315C72.0833 5.82665 72.5956 6.2815 73.1655 6.69028C73.7297 7.09907 74.2996 7.4215 74.8637 7.66332C74.6968 7.78423 74.5241 7.95695 74.3341 8.17574C74.1442 8.39453 74.0002 8.59604 73.8909 8.76877C73.2979 8.45786 72.7108 8.06635 72.1409 7.59423C71.5652 7.11635 71.0356 6.58665 70.5463 6.00513C70.057 5.42362 69.6425 4.83635 69.3144 4.24332L70.4542 3.82301ZM72.5899 10.5364H74.0405V16.9733C74.0405 17.3245 73.9945 17.6009 73.9081 17.8082C73.816 18.0154 73.6261 18.1824 73.3382 18.3033C73.0619 18.4127 72.705 18.476 72.2733 18.4933C71.8358 18.5163 71.2947 18.5221 70.6499 18.5221C70.6096 18.3321 70.5406 18.1191 70.4427 17.8773C70.3448 17.6354 70.247 17.4282 70.1549 17.2554C70.6499 17.267 71.0932 17.2727 71.4789 17.2727C71.8646 17.2727 72.1236 17.267 72.2445 17.2554C72.3827 17.2439 72.4748 17.2151 72.5266 17.1748C72.5726 17.1345 72.6014 17.0597 72.6014 16.956V10.5421L72.5899 10.5364Z" fill="white" style="fill:white;fill-opacity:1;"/>
<path d="M86.2969 5.25089L87.2295 5.53302C87.0798 6.31029 86.8956 7.13362 86.6826 7.99726C86.4696 8.86089 86.2221 9.70726 85.9458 10.5421C85.6694 11.3712 85.3701 12.1427 85.0535 12.8567C84.7369 13.5648 84.403 14.1751 84.0576 14.6876C83.977 14.4976 83.8561 14.2845 83.7065 14.0427C83.5568 13.8009 83.4186 13.5936 83.292 13.4209C83.6086 12.966 83.9195 12.4248 84.2245 11.7915C84.5296 11.1639 84.8175 10.4788 85.0823 9.7418C85.3528 9.00483 85.5889 8.25058 85.7961 7.47907C86.0033 6.70755 86.1703 5.96483 86.2912 5.25665L86.2969 5.25089ZM83.7698 4.40453H90.0041V5.81513H83.7698V4.40453ZM86.3602 0.0402832H87.7706V18.5221H86.3602V0.0402832ZM87.667 7.05877C87.7763 7.19119 87.949 7.4215 88.1851 7.75544C88.4211 8.08362 88.6686 8.44059 88.9334 8.82059C89.1982 9.20059 89.44 9.55756 89.6587 9.88574C89.8775 10.2139 90.0387 10.45 90.1365 10.5997L89.3306 11.7051C89.2327 11.4633 89.0831 11.1582 88.8758 10.7782C88.6686 10.4039 88.4499 10.0124 88.2138 9.60362C87.9778 9.19483 87.7533 8.81483 87.5403 8.45786C87.3273 8.10089 87.1546 7.83604 87.0337 7.66332L87.6785 7.05877H87.667ZM94.7936 12.0679L95.9737 12.5112C95.5592 13.2597 95.0353 13.9909 94.4021 14.6933C93.7689 15.3957 93.0781 16.0348 92.3413 16.6048C91.6044 17.1748 90.8676 17.647 90.1365 18.0212C90.0271 17.86 89.8775 17.67 89.6933 17.4454C89.5091 17.2267 89.3306 17.0539 89.1637 16.933C89.8832 16.6106 90.597 16.2018 91.3166 15.6951C92.0362 15.1942 92.6982 14.6242 93.3026 13.9966C93.9128 13.3691 94.4079 12.7242 94.7936 12.0679ZM89.2846 3.92089L89.9869 2.95361C90.4013 3.08604 90.8388 3.26453 91.2993 3.47756C91.7599 3.69059 92.1283 3.90938 92.4046 4.12241L91.6793 5.17029C91.4145 4.98029 91.0518 4.76726 90.5913 4.51392C90.1308 4.26635 89.6875 4.07059 89.2788 3.92089H89.2846ZM89.7393 9.35028C90.0732 8.89543 90.4474 8.34271 90.8676 7.69211C91.2878 7.0415 91.685 6.39089 92.0592 5.72877L93.0148 6.5118C92.6982 7.11635 92.347 7.73816 91.9671 8.3715C91.5872 9.01059 91.2188 9.60361 90.8618 10.1506L89.7451 9.34453L89.7393 9.35028ZM89.8832 11.5842H102.375V12.8739H89.8832V11.5842ZM90.3783 1.22634L91.1266 0.2821C91.5123 0.414525 91.9268 0.593014 92.3701 0.817559C92.8133 1.03635 93.1587 1.24362 93.4062 1.43362L92.6406 2.49877C92.4046 2.28574 92.0707 2.0612 91.6332 1.82514C91.1957 1.58907 90.7813 1.39332 90.3783 1.23211V1.22634ZM94.1085 3.09755L95.1217 3.46028C94.995 4.04756 94.8223 4.67513 94.5921 5.3315C94.3618 5.98786 94.0682 6.54059 93.7113 6.97816L92.7154 6.37362C93.0493 5.9821 93.3314 5.48119 93.5674 4.86513C93.8034 4.24907 93.9819 3.65604 94.1085 3.09755ZM96.3018 1.42786H97.5855C97.5279 2.68877 97.407 3.86907 97.2113 4.96877C97.0156 6.06846 96.6875 7.04726 96.2269 7.91665C95.7664 8.78029 95.0987 9.5115 94.2294 10.0988C94.1316 9.94907 93.9992 9.7821 93.838 9.59786C93.671 9.40786 93.5156 9.26968 93.3602 9.17756C94.1488 8.67089 94.7418 8.02604 95.1505 7.24877C95.5592 6.4715 95.8413 5.59059 95.9967 4.60605C96.1579 3.6215 96.2557 2.56211 96.296 1.43938L96.3018 1.42786ZM94.0222 0.944227H99.7384V2.17058H94.0222V0.944227ZM95.3289 10.0182H96.8199V18.5451H95.3289V10.0182ZM97.4416 12.0276C97.8157 12.6839 98.2878 13.3173 98.8577 13.916C99.4333 14.5206 100.067 15.0676 100.763 15.5569C101.46 16.0463 102.162 16.4379 102.864 16.7315C102.697 16.8639 102.519 17.0424 102.323 17.2669C102.127 17.4857 101.972 17.693 101.845 17.8773C101.126 17.5145 100.406 17.0539 99.6924 16.4897C98.9728 15.9254 98.3166 15.3036 97.7121 14.6185C97.1135 13.9333 96.6126 13.2251 96.2097 12.4882L97.4301 12.0276H97.4416ZM99.2434 0.944227H100.527C100.527 1.23786 100.521 1.43362 100.504 1.52574C100.464 2.82695 100.423 3.92089 100.377 4.81332C100.337 5.70574 100.285 6.43695 100.222 7.01271C100.159 7.58847 100.09 8.03756 100.003 8.34847C99.9226 8.66514 99.8248 8.89543 99.7154 9.04513C99.5772 9.21786 99.4276 9.34453 99.2606 9.42513C99.0937 9.50574 98.9037 9.5518 98.6792 9.56332C98.4835 9.59211 98.2417 9.60362 97.9424 9.60362C97.643 9.60362 97.338 9.59786 97.0213 9.58059C97.0098 9.39059 96.9753 9.18332 96.9177 8.95877C96.8602 8.72847 96.7853 8.53847 96.6875 8.37726C96.9926 8.40605 97.2689 8.42332 97.5279 8.42908C97.7812 8.43483 97.9654 8.44059 98.0748 8.44059C98.2014 8.45211 98.2993 8.44059 98.3741 8.4118C98.449 8.37726 98.5238 8.31392 98.5929 8.2218C98.7023 8.08938 98.7944 7.78422 98.8634 7.31786C98.9325 6.85149 98.9958 6.12029 99.0592 5.13574C99.1225 4.1512 99.18 2.83271 99.2376 1.18604V0.944227H99.2434ZM100.59 3.29907L101.69 2.93634C101.978 3.58119 102.237 4.2721 102.467 5.01483C102.697 5.75756 102.83 6.39089 102.87 6.91483L101.713 7.33513C101.701 6.98392 101.638 6.58089 101.529 6.10877C101.419 5.64241 101.287 5.15877 101.137 4.66938C100.988 4.17999 100.803 3.71938 100.596 3.29332L100.59 3.29907Z" fill="white" style="fill:white;fill-opacity:1;"/>
<path d="M111.441 3.3797H119.685V4.64636H111.441V3.3797ZM112.397 11.5267H113.784V18.3264H112.397V11.5267ZM112.437 6.13182H118.902V7.31788H112.437V6.13182ZM112.437 8.8091H118.902V10.0182H112.437V8.8091ZM112.541 0.742729H118.919V1.95182H112.541V0.742729ZM113.163 11.5267H118.839V17.3994H113.163V16.15H117.451V12.7933H113.163V11.5267ZM119.668 6.92061H130.766V8.40606H119.668V6.92061ZM124.532 0.103638H126.086V18.5452H124.532V0.103638Z" fill="white" style="fill:white;fill-opacity:1;"/>
<path d="M139.694 9.29277H158.317V10.3406H139.694V9.29277ZM139.694 16.8928H158.294V17.9579H139.694V16.8928ZM139.735 3.24155H158.23V4.20883H139.735V3.24155ZM141.289 7.28338H156.803V8.22762H141.289V7.28338ZM141.928 1.26671H155.968V6.25277H141.801V5.30853H154.414V2.21095H141.922V1.26671H141.928ZM142.055 11.2216H156.014V15.9485H142.055V11.2216ZM143.568 12.1082V13.1331H154.443V12.1082H143.568ZM143.568 13.9967V15.0619H154.443V13.9967H143.568ZM148.105 0.0230713H149.676V9.6958H148.105V0.0230713ZM148.162 11.5267H149.63V15.5685H148.162V11.5267Z" fill="white" style="fill:white;fill-opacity:1;"/>
<path d="M8.15126 40.9306V42.4276H0.351149V41.253L4.77218 36.5146C5.91773 35.2709 6.13647 34.5167 6.13647 33.7567C6.13647 32.513 5.34783 31.7588 3.8281 31.7588C2.66528 31.7588 1.7212 32.1734 1.05345 33.0715L0 32.0524C0.834699 30.8952 2.27959 30.2273 3.97201 30.2273C6.23433 30.2273 7.6965 31.5227 7.6965 33.5897C7.6965 34.7643 7.38564 35.8121 5.91197 37.384L2.59045 40.9364H8.15702L8.15126 40.9306Z" fill="white" style="fill:white;fill-opacity:1;"/>
<path d="M10.2002 36.3994C10.2002 32.467 12.0941 30.2273 14.6385 30.2273C17.1829 30.2273 19.0595 32.467 19.0595 36.3994C19.0595 40.3318 17.1656 42.5715 14.6385 42.5715C12.1114 42.5715 10.2002 40.3318 10.2002 36.3994ZM17.5052 36.3994C17.5052 33.3134 16.3252 31.7646 14.6385 31.7646C12.9518 31.7646 11.7545 33.3134 11.7545 36.3994C11.7545 39.4855 12.9346 41.0343 14.6385 41.0343C16.3424 41.0343 17.5052 39.4855 17.5052 36.3994Z" fill="white" style="fill:white;fill-opacity:1;"/>
<path d="M28.9501 40.9306V42.4276H21.15V41.253L25.571 36.5146C26.7166 35.2709 26.9353 34.5167 26.9353 33.7567C26.9353 32.513 26.1467 31.7588 24.6269 31.7588C23.4641 31.7588 22.52 32.1734 21.8523 33.0715L20.7988 32.0524C21.6335 30.8952 23.0784 30.2273 24.7708 30.2273C27.0332 30.2273 28.4953 31.5227 28.4953 33.5897C28.4953 34.7643 28.1845 35.8121 26.7108 37.384L23.3893 40.9364H28.9558L28.9501 40.9306Z" fill="white" style="fill:white;fill-opacity:1;"/>
<path d="M38.6152 38.8118C38.6152 40.8961 37.2797 42.5715 34.505 42.5715C32.968 42.5715 31.4483 42.0188 30.5215 41.1091L31.2353 39.7445C31.9664 40.5045 33.1753 41.04 34.4935 41.04C36.1399 41.04 37.0667 40.1936 37.0667 38.8867C37.0667 37.5797 36.2895 36.6815 33.7797 36.6815H31.3159L31.8915 30.3712H38.0165V31.8739H33.1925L32.8989 35.1845H34.1078C37.3487 35.1845 38.6209 36.6815 38.6209 38.8233L38.6152 38.8118Z" fill="white" style="fill:white;fill-opacity:1;"/>
<path d="M45.7646 36.981H49.9381V38.4088H45.7646V36.981Z" fill="white" style="fill:white;fill-opacity:1;"/>
<path d="M64.9227 40.9306V42.4276H57.1226V41.253L61.5437 36.5146C62.6892 35.2709 62.908 34.5167 62.908 33.7567C62.908 32.513 62.1193 31.7588 60.5996 31.7588C59.4368 31.7588 58.4927 32.1734 57.8249 33.0715L56.7715 32.0524C57.6062 30.8952 59.0511 30.2273 60.7435 30.2273C63.0058 30.2273 64.468 31.5227 64.468 33.5897C64.468 34.7643 64.1571 35.8121 62.6834 37.384L59.3619 40.9364H64.9285L64.9227 40.9306Z" fill="white" style="fill:white;fill-opacity:1;"/>
<path d="M66.9658 36.3994C66.9658 32.467 68.8597 30.2273 71.4041 30.2273C73.9485 30.2273 75.8251 32.467 75.8251 36.3994C75.8251 40.3318 73.9312 42.5715 71.4041 42.5715C68.877 42.5715 66.9658 40.3318 66.9658 36.3994ZM74.2709 36.3994C74.2709 33.3134 73.0908 31.7646 71.4041 31.7646C69.7175 31.7646 68.5201 33.3134 68.5201 36.3994C68.5201 39.4855 69.7002 41.0343 71.4041 41.0343C73.1081 41.0343 74.2709 39.4855 74.2709 36.3994Z" fill="white" style="fill:white;fill-opacity:1;"/>
<path d="M85.7206 40.9306V42.4276H77.9205V41.253L82.3415 36.5146C83.4871 35.2709 83.7058 34.5167 83.7058 33.7567C83.7058 32.513 82.9172 31.7588 81.3974 31.7588C80.2346 31.7588 79.2905 32.1734 78.6228 33.0715L77.5693 32.0524C78.404 30.8952 79.8489 30.2273 81.5414 30.2273C83.8037 30.2273 85.2658 31.5227 85.2658 33.5897C85.2658 34.7643 84.955 35.8121 83.4813 37.384L80.1598 40.9364H85.7264L85.7206 40.9306Z" fill="white" style="fill:white;fill-opacity:1;"/>
<path d="M96.1741 38.76C96.1741 41.0861 94.4817 42.5715 92.3287 42.5715C89.4101 42.5715 87.7695 40.4009 87.7695 36.5549C87.7695 32.4324 89.8649 30.2273 92.9044 30.2273C93.929 30.2273 94.9076 30.4518 95.6042 30.9355L95.017 32.2827C94.4586 31.8682 93.716 31.7128 92.9389 31.7128C90.7342 31.7128 89.3238 33.2443 89.3238 36.2612C89.3238 36.3994 89.3238 36.5376 89.3411 36.693C89.9628 35.6567 91.1083 35.1097 92.4611 35.1097C94.6141 35.1097 96.1856 36.5434 96.1856 38.7658L96.1741 38.76ZM94.6659 38.8291C94.6659 37.4128 93.7045 36.503 92.1848 36.503C90.6651 36.503 89.6865 37.5221 89.6865 38.8464C89.6865 40.09 90.5845 41.1724 92.2596 41.1724C93.67 41.1724 94.6659 40.257 94.6659 38.8291Z" fill="white" style="fill:white;fill-opacity:1;"/>
<path d="M82.4912 50.1658C94.7987 36.244 113.922 27.6652 132.602 30.4058C138.773 31.2349 144.8 33.227 150.395 35.9388C155.985 38.6794 161.172 42.157 165.978 46.0837C167.164 47.0509 169.524 49.1121 170.647 50.16L168.252 48.1967C166.341 46.6767 164.056 44.9321 162.058 43.5791C153.222 37.4703 143.188 32.7721 132.475 31.3558C113.997 28.7303 95.2822 37.004 82.497 50.16L82.4912 50.1658Z" fill="white" style="fill:white;fill-opacity:1;"/>
</svg>
