<svg width="201" height="94" viewBox="0 0 201 94" fill="none" xmlns="http://www.w3.org/2000/svg">
<path d="M11.8284 10.4408L13.7708 11.212C12.7771 12.9624 11.6319 14.6847 10.3351 16.3733C9.03828 18.0674 7.6741 19.6547 6.24817 21.1519C4.81662 22.649 3.37946 23.9661 1.93108 25.1143C1.86932 24.9624 1.75704 24.7653 1.59424 24.5233C1.43144 24.2813 1.25742 24.0393 1.07777 23.7972C0.898126 23.5552 0.7297 23.3413 0.578125 23.1612C1.99283 22.1368 3.38508 20.9436 4.75487 19.5815C6.12466 18.225 7.42148 16.7673 8.6397 15.2138C9.85791 13.6603 10.9189 12.0675 11.8228 10.4352L11.8284 10.4408ZM11.194 0.472778L13.3161 1.24388C12.474 2.48215 11.4691 3.74293 10.3126 5.02623C9.15055 6.30952 7.92672 7.53092 6.62991 8.69601C5.3331 9.86111 4.04191 10.8799 2.7451 11.7523C2.65528 11.5722 2.53176 11.3752 2.3858 11.1669C2.23423 10.953 2.07703 10.7448 1.90862 10.5309C1.7402 10.3226 1.59986 10.1538 1.48197 10.03C2.68896 9.21383 3.91279 8.27951 5.16469 7.22135C6.41659 6.1632 7.56744 5.04875 8.62285 3.87239C9.67827 2.69604 10.5372 1.55908 11.1996 0.472778H11.194ZM7.98848 17.2344L10.0656 15.1069L10.1554 15.1519V41.4257H7.98848V17.2344ZM13.9055 26.7016H42.368V28.649H13.9055V26.7016ZM14.8543 20.0431H41.6438V22.0355H14.8543V20.0431ZM17.97 1.74482H39.067V16.2889H17.97V1.74482ZM18.3293 31.0524L19.9573 29.9661C21.0689 30.9623 22.1917 32.0824 23.3257 33.3206C24.4541 34.5589 25.3074 35.6283 25.88 36.5345L24.1621 37.8009C23.8028 37.1987 23.2976 36.5008 22.6464 35.7184C22.0008 34.936 21.3047 34.1255 20.5692 33.2925C19.8282 32.4651 19.0872 31.7165 18.3349 31.0524H18.3293ZM20.092 3.64726V8.08813H36.9001V3.64726H20.092ZM20.092 9.89489V14.4258H36.9001V9.89489H20.092ZM33.0601 21.7203H35.2271V38.7071C35.2271 39.4332 35.1261 39.9735 34.9352 40.3394C34.7387 40.6996 34.3401 40.9754 33.7394 41.1555C33.1668 41.3356 32.3304 41.4482 31.23 41.4932C30.1297 41.5383 28.7094 41.5608 26.9578 41.5608C26.8961 41.2568 26.7838 40.9191 26.621 40.542C26.4582 40.1649 26.2954 39.8216 26.1494 39.5233C27.6259 39.5514 28.9003 39.5683 29.9669 39.5683C31.0336 39.5683 31.769 39.5514 32.1563 39.5233C32.5493 39.4951 32.7963 39.4163 32.903 39.2981C33.0096 39.1743 33.0601 38.9661 33.0601 38.6621V21.7203Z" fill="#F2F2F2" style="fill:#F2F2F2;fill:color(display-p3 0.9490 0.9490 0.9490);fill-opacity:1;"/>
<path d="M26.9636 41.9548H26.6379L26.5762 41.6396C26.5201 41.3694 26.419 41.0542 26.2618 40.6996C26.099 40.3282 25.9418 39.9961 25.7959 39.6978L25.504 39.1124L26.1552 39.1236C29.0856 39.1856 31.3705 39.1856 32.1227 39.1236C32.4932 39.0955 32.5999 39.028 32.6111 39.0223C32.6111 39.0223 32.6617 38.9379 32.6617 38.6565V29.043H13.507V26.3076H32.6617V22.4295H14.4558V19.6491H42.0369V22.4295H35.6202V26.3076H42.7611V29.043H35.6202V38.7015C35.6202 39.5007 35.5079 40.0918 35.2777 40.5195C35.0307 40.9754 34.5479 41.3131 33.8462 41.527C33.2399 41.7184 32.3866 41.8366 31.2413 41.8816C30.1298 41.9266 28.687 41.9492 26.9579 41.9492L26.9636 41.9548ZM26.7783 39.9285C26.8457 40.0749 26.913 40.2269 26.9804 40.3844C27.1039 40.6602 27.1993 40.9248 27.2667 41.1668C28.8498 41.1668 30.1803 41.1443 31.2133 41.0992C32.2743 41.0542 33.0827 40.9473 33.616 40.7784C34.1157 40.6264 34.4413 40.4182 34.5872 40.148C34.75 39.8441 34.8343 39.36 34.8343 38.7071V29.0487H33.4532V38.6621C33.4532 39.0674 33.369 39.36 33.2006 39.557C33.0153 39.7653 32.6953 39.8779 32.1901 39.9173C31.7915 39.951 31.0617 39.9623 29.967 39.9623C29.0519 39.9623 27.9909 39.9511 26.7783 39.9285ZM35.6258 28.255H41.9751V27.0956H35.6258V28.255ZM33.4532 28.255H34.8343V27.0956H33.4532V28.255ZM14.2986 28.255H32.6673V27.0956H14.2986V28.255ZM33.4532 26.3076H34.8343V22.4295H33.4532V26.3076ZM35.6258 21.6415H41.2509V20.4371H15.2474V21.6415H32.6673V21.3263H35.6258V21.6415ZM10.5485 41.8197H7.59V20.2851C7.24194 20.6735 6.88826 21.0505 6.52897 21.4277C5.09181 22.9248 3.62658 24.2701 2.17258 25.4295L1.75715 25.756L1.56066 25.2663C1.52698 25.1819 1.44839 25.0243 1.26313 24.7541C1.10032 24.5177 0.931905 24.2813 0.75226 24.0449C0.578229 23.8085 0.415435 23.6003 0.269473 23.4258L0 23.0993L0.342457 22.8517C1.7347 21.8442 3.12133 20.651 4.47428 19.3114C5.82723 17.9662 7.12405 16.5084 8.32542 14.9774C9.5268 13.4465 10.5878 11.8592 11.4748 10.2495L11.6432 9.94555L14.3323 11.0093L14.1077 11.4033C13.1085 13.1594 11.9464 14.9155 10.6439 16.6153C10.6103 16.6603 10.5766 16.6998 10.5429 16.7448V41.8197H10.5485ZM8.38155 41.0261H9.76258V17.741C9.31347 18.3039 8.85311 18.8498 8.38155 19.3901V41.0204V41.0261ZM1.13962 23.24C1.21822 23.3414 1.30243 23.4483 1.38663 23.5609C1.57189 23.8085 1.74592 24.0506 1.91434 24.2982C1.96487 24.3714 2.00977 24.4389 2.04907 24.5065C3.35711 23.4427 4.67077 22.2213 5.95636 20.8761C6.50652 20.302 7.05106 19.7054 7.58438 19.0975V17.1162C6.76475 18.0731 5.90583 18.9962 5.02445 19.8686C3.75009 21.1294 2.44767 22.2607 1.13402 23.24H1.13962ZM8.38155 17.3977V18.1857C8.85311 17.6285 9.31347 17.0543 9.76258 16.4802V15.9905L8.38155 17.4033V17.3977ZM12.0025 10.9362C11.1267 12.4784 10.105 13.9981 8.95417 15.4671C8.61173 15.9061 8.25805 16.3395 7.90438 16.7617L9.98713 14.6285L10.5485 14.9099V15.439C11.5253 14.1163 12.4123 12.771 13.1983 11.4146L11.9969 10.9418L12.0025 10.9362ZM24.0443 38.3751L23.8198 38.0036C23.4717 37.4238 22.9777 36.7372 22.3433 35.9661C21.6977 35.1837 21.0072 34.3788 20.2718 33.5515C19.542 32.7297 18.8009 31.9867 18.0711 31.3451L17.6838 31.0074L19.9911 29.4652L20.2213 29.6678C21.3441 30.6753 22.4893 31.8122 23.6177 33.0505C24.7573 34.3 25.6331 35.4032 26.2113 36.3207L26.4078 36.6302L24.0443 38.3751ZM18.975 31.0974C19.6037 31.6772 20.2381 32.3244 20.8669 33.028C21.6079 33.8666 22.304 34.6771 22.9552 35.4651C23.4886 36.1124 23.9264 36.7034 24.2745 37.2268L25.3524 36.4332C24.8022 35.6171 24.0275 34.6603 23.0451 33.5796C22.0121 32.4483 20.9679 31.3957 19.935 30.4614L18.9862 31.0974H18.975ZM39.4657 16.6772H17.5771V1.34522H39.4657V16.6772ZM18.3631 15.8892H38.6741V2.13884H18.3631V15.8892ZM37.2931 14.8198H19.6992V9.5009H37.2931V14.8198ZM20.4907 14.0318H36.5072V10.2945H20.4907V14.0318ZM2.59362 12.332L2.39153 11.9324C2.30732 11.7692 2.20066 11.5891 2.06031 11.3977C1.91435 11.1894 1.75715 10.9868 1.59435 10.7786C1.44277 10.5872 1.30804 10.4296 1.19576 10.317L0.858926 9.97932L1.25191 9.70915C2.44205 8.90427 3.6715 7.96431 4.90094 6.92867C6.13038 5.8874 7.28123 4.77297 8.3198 3.6135C9.35276 2.45966 10.2005 1.33395 10.8517 0.275791L11.0201 0L13.9225 1.05253L13.6362 1.47466C12.7885 2.71856 11.7667 4.00749 10.599 5.30205C9.43697 6.58534 8.19069 7.82923 6.88826 8.99995C5.58584 10.1707 4.26657 11.2063 2.95854 12.09L2.58802 12.3433L2.59362 12.332ZM2.07153 10.1032C2.11644 10.1594 2.16697 10.2213 2.2175 10.2832C2.38591 10.5028 2.54871 10.7167 2.7059 10.9305C2.76766 11.015 2.82379 11.0994 2.87431 11.1838C4.03639 10.3733 5.2097 9.43899 6.36616 8.39772C7.65174 7.24388 8.88119 6.02249 10.0208 4.75608C11.0313 3.63601 11.9351 2.52157 12.6986 1.43528L11.3569 0.945583C10.7057 1.96434 9.88607 3.03377 8.90925 4.12569C7.84823 5.31331 6.66932 6.45026 5.41181 7.51404C4.28903 8.46526 3.16623 9.33204 2.06591 10.0919L2.07153 10.1032ZM37.2931 8.48214H19.6992V3.25327H37.2931V8.48214ZM20.4907 7.68852H36.5072V4.04125H20.4907V7.68852Z" fill="#F2F2F2" style="fill:#F2F2F2;fill:color(display-p3 0.9490 0.9490 0.9490);fill-opacity:1;"/>
<path d="M53.5283 37.7559H93.6003V39.8835H53.5283V37.7559ZM55.7402 9.66977H91.2537V11.8424H55.7402V9.66977ZM57.6377 23.0318H89.5808V25.1594H57.6377V23.0318ZM68.4838 1.78988L70.2465 0.658569C71.2402 1.38464 72.2563 2.18951 73.2949 3.07881C74.3334 3.96812 75.3047 4.86305 76.2085 5.75235C77.1123 6.64165 77.8365 7.45215 78.3754 8.17823L76.5229 9.53469C76.012 8.80862 75.3102 7.99248 74.4232 7.0863C73.5362 6.18011 72.5707 5.26266 71.5321 4.32271C70.4935 3.38838 69.4774 2.54411 68.4838 1.78427V1.78988ZM72.2788 11.167H74.5804V38.7972H72.2788V11.167Z" fill="#F2F2F2" style="fill:#F2F2F2;fill:color(display-p3 0.9490 0.9490 0.9490);fill-opacity:1;"/>
<path d="M93.9935 40.2775H53.1299V37.3563H71.8803V25.5534H57.2449V22.6322H71.8803V12.2307H55.3418V9.26451H75.8325C75.3778 8.68478 74.8108 8.04314 74.1371 7.35646C73.2557 6.4559 72.2901 5.53283 71.2628 4.60976C70.2355 3.68668 69.2193 2.84241 68.2369 2.09382L67.7878 1.75049L70.2523 0.168884L70.4712 0.326481C71.4649 1.04693 72.4978 1.86869 73.5476 2.76924C74.5974 3.6698 75.5799 4.57599 76.4837 5.45966C77.3988 6.36585 78.1454 7.19323 78.69 7.93056L78.9314 8.25139L77.5448 9.27015H91.6469V12.2364H74.9736V22.6378H89.9739V25.559H74.9736V37.3619H93.9935V40.2831V40.2775ZM53.9215 39.4895H93.2075V38.1499H74.9736V39.1912H71.8803V38.1499H53.9215V39.4895ZM72.6719 38.4032H74.1876V38.1499H72.6719V38.4032ZM72.6719 37.3563H74.1876V25.5534H72.6719V37.3563ZM74.9736 24.7654H89.188V23.4258H74.9736V24.7654ZM72.6719 24.7654H74.1876V23.4258H72.6719V24.7654ZM58.0308 24.7654H71.8803V23.4258H58.0308V24.7654ZM72.6719 22.6378H74.1876V12.2364H72.6719V22.6378ZM74.9736 11.4484H90.8553V10.0638H56.1333V11.4484H71.8803V10.7673H74.9736V11.4484ZM69.1688 1.81803C70.0277 2.48782 70.9091 3.23078 71.7961 4.03002C72.8347 4.96435 73.8115 5.89868 74.7041 6.8105C75.4732 7.59849 76.1132 8.32455 76.6072 8.98309L77.8142 8.09943C77.3202 7.47467 76.6858 6.78235 75.928 6.03376C75.041 5.16135 74.0697 4.26642 73.0312 3.37711C72.0768 2.55535 71.1337 1.80114 70.2242 1.13135L69.1632 1.81239L69.1688 1.81803Z" fill="#F2F2F2" style="fill:#F2F2F2;fill:color(display-p3 0.9490 0.9490 0.9490);fill-opacity:1;"/>
<path d="M119.357 29.24L121.524 30.0111C120.592 31.2775 119.514 32.5495 118.296 33.8159C117.078 35.0823 115.809 36.2756 114.501 37.3957C113.193 38.5101 111.902 39.4951 110.639 40.3394C110.521 40.1874 110.336 40.0242 110.1 39.8384C109.858 39.6583 109.617 39.4782 109.376 39.2981C109.134 39.118 108.91 38.966 108.696 38.8422C110.021 38.0598 111.329 37.1424 112.626 36.1011C113.917 35.0598 115.147 33.951 116.309 32.7747C117.465 31.5983 118.487 30.4219 119.357 29.24ZM109.415 24.2982C111.52 24.2982 113.956 24.2813 116.713 24.2531C119.469 24.225 122.405 24.1856 125.521 24.1405C128.637 24.0955 131.854 24.0449 135.166 23.983C138.478 23.921 141.779 23.8479 145.057 23.7578L144.923 25.7503C140.679 25.8741 136.39 25.9867 132.067 26.088C127.744 26.195 123.657 26.2794 119.801 26.3357C115.944 26.3976 112.559 26.4708 109.634 26.5608L109.409 24.2925L109.415 24.2982ZM144.384 1.10876L146.057 2.96616C143.89 3.36015 141.437 3.72039 138.691 4.05247C135.952 4.38455 133.027 4.67722 129.928 4.93613C126.824 5.18941 123.702 5.40893 120.553 5.59467C117.403 5.77479 114.355 5.89862 111.402 5.95491C111.374 5.68474 111.296 5.35828 111.178 4.98117C111.054 4.60406 110.953 4.2776 110.863 4.00743C113.782 3.88924 116.803 3.73727 119.924 3.55716C123.04 3.37705 126.116 3.1688 129.142 2.94366C132.168 2.71852 134.992 2.44834 137.613 2.12752C140.235 1.81232 142.492 1.46899 144.389 1.10876H144.384ZM112.761 12.6134L114.248 11.347C115.663 12.1294 117.134 13.0299 118.655 14.043C120.177 15.0562 121.608 16.0749 122.944 17.0993C124.286 18.1293 125.364 19.0637 126.172 19.9079L124.634 21.4501C123.82 20.5721 122.753 19.6153 121.429 18.574C120.104 17.5327 118.689 16.4858 117.185 15.4276C115.68 14.3695 114.204 13.4352 112.755 12.619L112.761 12.6134ZM125.544 4.45772L127.576 5.54402C126.734 6.63032 125.791 7.76165 124.752 8.94363C123.713 10.12 122.675 11.2513 121.636 12.3376C120.598 13.4239 119.593 14.3751 118.633 15.1913L116.96 14.24C117.892 13.3958 118.885 12.4051 119.941 11.2738C120.996 10.1425 122.018 8.97177 123.012 7.76165C124.005 6.55152 124.847 5.45396 125.544 4.45209V4.45772ZM137.428 7.45207L139.46 8.5834C138.136 10.0299 136.687 11.5327 135.121 13.0918C133.555 14.6453 131.927 16.1931 130.242 17.7353C128.553 19.2775 126.874 20.7353 125.207 22.1087C123.534 23.482 121.979 24.7147 120.53 25.801L118.857 24.7147C120.362 23.6565 121.945 22.4182 123.601 20.9999C125.257 19.5815 126.93 18.0955 128.614 16.5364C130.304 14.983 131.899 13.4239 133.403 11.8704C134.908 10.317 136.249 8.84231 137.423 7.45207H137.428ZM128.031 24.9792H130.287V41.5157H128.031V24.9792ZM136.255 30.2362L137.883 29.0598C139.236 30.0561 140.645 31.1593 142.105 32.3638C143.564 33.5739 144.951 34.7503 146.264 35.8985C147.573 37.0467 148.65 38.0598 149.492 38.9322L147.685 40.3337C146.871 39.4275 145.832 38.3863 144.569 37.2099C143.306 36.0336 141.931 34.8347 140.46 33.6077C138.983 32.3863 137.585 31.2606 136.255 30.2306V30.2362ZM136.435 18.5458L138.152 17.3695C139.539 18.4276 140.959 19.6096 142.419 20.9267C143.879 22.2438 145.243 23.5383 146.506 24.8216C147.769 26.1049 148.78 27.2756 149.532 28.3338L147.634 29.6452C146.91 28.6208 145.933 27.4501 144.698 26.1331C143.463 24.8216 142.121 23.4989 140.679 22.1706C139.23 20.8422 137.816 19.6321 136.429 18.5458H136.435Z" fill="#F2F2F2" style="fill:#F2F2F2;fill:color(display-p3 0.9490 0.9490 0.9490);fill-opacity:1;"/>
<path d="M130.686 41.9097H127.637V26.589C124.932 26.6453 122.321 26.6959 119.817 26.7353C116.005 26.7972 112.587 26.8704 109.656 26.9604L109.286 26.9717L108.977 23.9042H109.415C111.52 23.9042 113.951 23.8873 116.707 23.8591C117.589 23.8479 118.487 23.8423 119.407 23.831C120.659 22.9136 121.979 21.8667 123.337 20.7072C122.72 20.1331 122.001 19.5196 121.193 18.8836C119.879 17.8479 118.453 16.7954 116.965 15.7485C115.478 14.7072 114.001 13.7673 112.57 12.9624L112.076 12.6866L114.203 10.8742L114.439 11.0037C115.5 11.5947 116.606 12.2532 117.734 12.9737C118.346 12.377 118.992 11.7185 119.649 11.0093C120.693 9.88923 121.72 8.71288 122.703 7.51401C123.202 6.90613 123.663 6.32639 124.089 5.76917C122.91 5.84797 121.737 5.92115 120.564 5.98869C117.414 6.1688 114.332 6.29263 111.402 6.35454H111.043L111.003 6.00558C110.975 5.76355 110.908 5.45961 110.796 5.10501C110.678 4.72791 110.571 4.40708 110.481 4.13691L110.319 3.63597L110.841 3.61347C113.749 3.49527 116.791 3.34329 119.89 3.16318C122.967 2.98307 126.066 2.78044 129.103 2.54967C132.129 2.32454 134.975 2.04874 137.557 1.73917C140.145 1.42398 142.413 1.08627 144.305 0.726049L144.524 0.686646L146.82 3.23635L146.124 3.36018C143.968 3.74854 141.487 4.1144 138.736 4.45211C136.025 4.77856 133.072 5.07687 129.956 5.33578C129.35 5.38644 128.738 5.43709 128.131 5.48211L127.89 5.79733C127.037 6.89488 126.082 8.04308 125.049 9.21381C124.011 10.3902 122.961 11.5327 121.922 12.6247C121.282 13.2945 120.642 13.9248 120.025 14.499C121.137 15.2644 122.192 16.0299 123.191 16.7954C124.101 17.4933 124.898 18.1519 125.571 18.771C126.498 17.9492 127.43 17.1106 128.356 16.2494C130.029 14.7072 131.634 13.1425 133.128 11.6003C134.615 10.0637 135.963 8.58343 137.13 7.20445L137.338 6.95679L140.089 8.48774L139.752 8.85921C138.427 10.3057 136.968 11.8254 135.401 13.3789C133.83 14.9436 132.179 16.5083 130.512 18.0337C128.828 19.5702 127.127 21.0449 125.459 22.4182C124.892 22.8854 124.331 23.3413 123.781 23.7804C124.353 23.7747 124.937 23.7635 125.521 23.7578C128.637 23.7128 131.853 23.6622 135.166 23.6002C137.276 23.5608 139.382 23.5158 141.481 23.4652C141.133 23.1331 140.78 22.801 140.42 22.4745C138.977 21.1519 137.557 19.9417 136.193 18.8723L135.766 18.5402L138.163 16.8967L138.388 17.0712C139.775 18.1293 141.217 19.3339 142.683 20.6453C144.148 21.9624 145.529 23.2794 146.786 24.5571C148.055 25.846 149.088 27.0449 149.852 28.1143L150.082 28.4407L147.533 30.2025L147.308 29.8816C146.601 28.8741 145.624 27.709 144.406 26.4145C144.333 26.3357 144.255 26.2569 144.182 26.1781C140.179 26.2906 136.142 26.3976 132.078 26.4933C131.606 26.5045 131.14 26.5158 130.68 26.527V41.9153L130.686 41.9097ZM128.423 41.1217H129.894V26.5383C129.4 26.5496 128.912 26.5608 128.423 26.5721V41.1217ZM145.243 26.1387C146.247 27.2194 147.078 28.2156 147.73 29.1049L148.976 28.2438C148.263 27.2869 147.342 26.2344 146.225 25.103C145.961 24.8329 145.692 24.5683 145.417 24.2982L145.293 26.1387H145.237H145.243ZM109.853 24.6978L109.999 26.1612C112.85 26.0768 116.146 26.0036 119.8 25.9473H120.025L118.15 24.7203L118.273 24.6302C117.746 24.6359 117.229 24.6415 116.713 24.6471C114.142 24.6753 111.851 24.6922 109.847 24.6922L109.853 24.6978ZM122.765 24.574C122.164 25.0468 121.58 25.4971 121.013 25.9248C123.152 25.891 125.358 25.846 127.637 25.7953V24.5852H130.686V25.7278C131.14 25.7165 131.601 25.7053 132.067 25.694C135.89 25.5983 139.685 25.5027 143.452 25.3957C143.07 25.0074 142.677 24.6134 142.278 24.225C139.921 24.2813 137.552 24.332 135.182 24.377C131.87 24.4389 128.654 24.4895 125.532 24.5346C124.595 24.5458 123.674 24.5627 122.765 24.574ZM128.423 25.3732V25.7785C128.912 25.7672 129.4 25.756 129.894 25.7447V25.3732H128.423ZM143.368 24.1969C143.761 24.5852 144.142 24.9792 144.513 25.3676C144.53 25.3676 144.541 25.3676 144.558 25.3676L144.642 24.1687C144.221 24.18 143.794 24.1912 143.373 24.2025L143.368 24.1969ZM119.559 24.6922L120.513 25.3113C120.822 25.0805 121.137 24.8385 121.456 24.5909C120.85 24.5965 120.255 24.6077 119.671 24.6134C119.638 24.6415 119.598 24.664 119.565 24.6922H119.559ZM123.904 21.2531C123.904 21.2531 123.87 21.2813 123.854 21.2925C122.793 22.2044 121.754 23.0487 120.749 23.8085C121.322 23.8029 121.9 23.7916 122.484 23.786C123.281 23.1556 124.106 22.4914 124.954 21.7935C126.61 20.4314 128.3 18.9624 129.978 17.437C131.64 15.9173 133.279 14.3583 134.846 12.8048C136.266 11.392 137.608 10.0074 138.832 8.67911L137.518 7.9474C136.389 9.27009 135.104 10.6772 133.689 12.135C132.185 13.6885 130.568 15.2644 128.884 16.8179C127.969 17.6622 127.054 18.4896 126.139 19.3001C126.251 19.4126 126.357 19.5196 126.458 19.6265L126.728 19.908L124.628 22.013L124.348 21.7147C124.207 21.5627 124.056 21.4107 123.899 21.2531H123.904ZM137.097 18.5684C138.343 19.5646 139.64 20.6791 140.948 21.8779C141.509 22.3901 142.054 22.9079 142.587 23.4258C143.222 23.4089 143.85 23.392 144.485 23.3751C143.738 22.6603 142.963 21.9398 142.161 21.2194C140.791 19.9924 139.443 18.861 138.141 17.8592L137.102 18.574L137.097 18.5684ZM124.505 20.7353C124.555 20.786 124.6 20.831 124.645 20.8817L125.616 19.9023C125.616 19.9023 125.566 19.8517 125.538 19.8292C125.19 20.1331 124.842 20.437 124.499 20.7353H124.505ZM113.445 12.5515C114.742 13.3057 116.078 14.1612 117.414 15.1012C118.919 16.1594 120.351 17.2175 121.675 18.2644C122.529 18.9342 123.287 19.5815 123.938 20.1894C124.28 19.8911 124.623 19.5927 124.971 19.2888C124.331 18.7034 123.573 18.0787 122.708 17.4145C121.681 16.6266 120.575 15.8273 119.424 15.0393C119.245 15.1969 119.065 15.3545 118.891 15.5008L118.683 15.681L116.297 14.3245L116.702 13.9586C116.853 13.8236 116.999 13.6828 117.156 13.5421C116.179 12.923 115.225 12.3489 114.304 11.8311L113.451 12.5571L113.445 12.5515ZM117.628 14.1669L118.588 14.7128C118.638 14.6678 118.694 14.6228 118.745 14.5721C118.644 14.5046 118.537 14.437 118.436 14.3639C118.234 14.2288 118.032 14.0993 117.836 13.9699C117.768 14.0374 117.695 14.0993 117.628 14.1669ZM118.419 13.4127C118.571 13.514 118.723 13.6097 118.874 13.711C119.037 13.8179 119.194 13.9249 119.357 14.0318C120.008 13.4352 120.676 12.7766 121.355 12.0675C122.388 10.9868 123.433 9.84982 124.46 8.68473C125.364 7.66034 126.211 6.64723 126.981 5.6735L126.801 5.57781C126.251 5.61721 125.695 5.6566 125.145 5.696C124.606 6.42207 123.994 7.1988 123.326 8.01494C122.332 9.22506 121.294 10.4127 120.238 11.544C119.615 12.2138 119.009 12.8385 118.425 13.407L118.419 13.4127ZM111.396 4.37893C111.447 4.5309 111.497 4.68851 111.554 4.86299C111.632 5.11628 111.694 5.34703 111.739 5.55529C114.557 5.49337 117.516 5.37517 120.53 5.20069C121.922 5.12189 123.326 5.03183 124.724 4.93615C124.898 4.69975 125.066 4.46336 125.223 4.23822L125.426 3.95116L126.969 4.77855C127.946 4.70538 128.929 4.6266 129.9 4.5478C133.004 4.28889 135.952 3.99057 138.646 3.66412C141.088 3.37144 143.317 3.04498 145.288 2.70727L144.243 1.54217C142.38 1.89114 140.162 2.22322 137.658 2.52716C135.065 2.84235 132.207 3.11815 129.17 3.34329C126.133 3.56843 123.028 3.77669 119.946 3.9568C117.027 4.12565 114.153 4.272 111.402 4.38457L111.396 4.37893ZM147.634 40.8741L147.387 40.6039C146.59 39.7202 145.551 38.6733 144.294 37.5026C143.042 36.3375 141.667 35.133 140.201 33.9172C138.73 32.7015 137.321 31.5702 136.008 30.5514L135.592 30.2306L137.877 28.5758L138.107 28.7447C139.455 29.7353 140.881 30.8497 142.346 32.0655C143.811 33.2812 145.215 34.4688 146.511 35.6058C147.831 36.7596 148.925 37.7897 149.767 38.6621L150.071 38.9773L147.628 40.8741H147.634ZM136.912 30.2475C138.107 31.1818 139.387 32.2118 140.707 33.3038C142.183 34.5308 143.575 35.7465 144.833 36.9229C145.984 37.9923 146.955 38.9604 147.73 39.8047L148.897 38.8985C148.117 38.1105 147.146 37.2043 146 36.2024C144.709 35.0711 143.311 33.8835 141.852 32.6734C140.482 31.5364 139.146 30.4895 137.877 29.5496L136.912 30.2475ZM110.554 40.8685L110.33 40.5814C110.234 40.4576 110.077 40.3169 109.858 40.1536L109.134 39.6133C108.904 39.4444 108.696 39.2981 108.5 39.1855L107.91 38.8478L108.494 38.5045C109.796 37.7334 111.099 36.8216 112.379 35.7972C113.659 34.7672 114.883 33.6584 116.028 32.4989C117.167 31.3394 118.184 30.1631 119.043 29.0092L119.217 28.7728L122.158 29.8197L121.844 30.2475C120.912 31.5195 119.812 32.8084 118.582 34.0917C117.353 35.3694 116.067 36.5795 114.759 37.694C113.44 38.8197 112.126 39.8216 110.857 40.6658L110.554 40.8685ZM109.437 38.8534C109.493 38.8928 109.549 38.9379 109.606 38.9773L110.33 39.5176C110.47 39.6245 110.588 39.7202 110.695 39.8159C111.851 39.0279 113.047 38.1105 114.243 37.0861C115.528 35.9885 116.797 34.7953 118.01 33.5345C119.076 32.4201 120.042 31.3 120.884 30.1968L119.492 29.7015C118.65 30.8103 117.673 31.9304 116.584 33.0448C115.422 34.2268 114.17 35.3582 112.867 36.4051C111.739 37.3113 110.582 38.133 109.432 38.8478L109.437 38.8534Z" fill="#F2F2F2" style="fill:#F2F2F2;fill:color(display-p3 0.9490 0.9490 0.9490);fill-opacity:1;"/>
<path d="M169.551 3.55717L171.768 3.96242C171.196 6.56278 170.421 9.21943 169.439 11.9324C168.462 14.6509 167.272 17.2175 165.868 19.6321C164.47 22.0467 162.803 24.18 160.877 26.0205C160.754 25.8685 160.597 25.7053 160.406 25.5195C160.209 25.3394 160.018 25.1593 159.839 24.9736C159.659 24.7879 159.491 24.6415 159.345 24.5177C161.18 22.7672 162.769 20.7297 164.111 18.4051C165.453 16.0805 166.581 13.6265 167.502 11.0431C168.422 8.45958 169.107 5.96054 169.556 3.54592L169.551 3.55717ZM160.967 2.83109H183.468V4.91364H160.967V2.83109ZM179.308 12.6134H179.802L180.206 12.5234L181.609 13.0693C180.734 17.9605 179.431 22.2494 177.702 25.936C175.967 29.6227 173.913 32.7522 171.533 35.3356C169.152 37.9191 166.575 40.0073 163.808 41.6114C163.684 41.4313 163.521 41.2343 163.308 41.0204L162.696 40.4069C162.5 40.2099 162.309 40.0523 162.129 39.9285C164.902 38.4201 167.44 36.4501 169.742 34.0186C172.043 31.5871 174.025 28.6377 175.681 25.1649C177.337 21.6922 178.544 17.6903 179.297 13.1594V12.6134H179.308ZM164.038 20.7691L165.077 19.1368C166.373 19.8348 167.709 20.6228 169.096 21.5177C170.483 22.407 171.796 23.2794 173.048 24.1237C174.295 24.968 175.311 25.739 176.097 26.4314L175.013 28.2887C174.199 27.5627 173.177 26.7634 171.942 25.8854C170.707 25.0074 169.394 24.1181 168.013 23.2119C166.626 22.3057 165.301 21.4895 164.038 20.7635V20.7691ZM167.519 12.6134H180.167V14.696H167.519V12.6134ZM185.545 5.54966H187.667V30.2362H185.545V5.54966ZM196.795 1.15381H199.007V38.2512C199.007 39.1574 198.867 39.8216 198.575 40.2437C198.288 40.6658 197.845 40.9698 197.244 41.1499C196.61 41.33 195.7 41.4425 194.51 41.4876C193.32 41.5326 191.686 41.5551 189.609 41.5551C189.548 41.2512 189.441 40.8966 189.295 40.4913C189.143 40.0861 188.964 39.7259 188.75 39.4276C190.406 39.4557 191.866 39.4726 193.135 39.4726C194.404 39.4726 195.229 39.4557 195.622 39.4276C196.043 39.3994 196.346 39.2981 196.526 39.1349C196.705 38.966 196.795 38.6733 196.795 38.2512V1.15381Z" fill="#F2F2F2" style="fill:#F2F2F2;fill:color(display-p3 0.9490 0.9490 0.9490);fill-opacity:1;"/>
<path d="M163.69 42.1292L163.488 41.8197C163.381 41.6565 163.23 41.482 163.039 41.2906L162.427 40.6771C162.253 40.5026 162.079 40.3563 161.922 40.2493L161.377 39.8835L161.95 39.5739C164.672 38.088 167.204 36.1237 169.467 33.7372C171.084 32.0317 172.549 30.0505 173.851 27.8104C173.234 27.3094 172.515 26.7691 171.718 26.2006C170.488 25.3282 169.169 24.4332 167.799 23.5383C166.839 22.9136 165.902 22.3226 164.981 21.771C163.847 23.4314 162.562 24.9511 161.147 26.3019L160.838 26.6002L160.569 26.2682C160.456 26.1274 160.316 25.9755 160.136 25.8122C159.934 25.6265 159.743 25.4408 159.558 25.255C159.39 25.0862 159.233 24.9455 159.092 24.8329L158.744 24.5515L159.07 24.2419C160.872 22.5252 162.449 20.499 163.769 18.2138C165.088 15.923 166.216 13.469 167.126 10.9192C167.805 9.01119 168.361 7.13127 168.782 5.30764H160.574V2.43149H183.861V5.30764H171.858C171.319 7.51401 170.634 9.7823 169.809 12.0675C169.792 12.1181 169.775 12.1688 169.753 12.2194H179.808L180.245 12.1125L182.059 12.816L182.003 13.1369C181.127 18.0393 179.802 22.4014 178.062 26.0993C176.321 29.8029 174.222 32.9998 171.83 35.6002C169.433 38.2006 166.806 40.3337 164.01 41.9491L163.69 42.1349V42.1292ZM162.842 39.9904C162.887 40.0354 162.938 40.0805 162.983 40.1255L163.595 40.739C163.712 40.8572 163.819 40.9754 163.915 41.088C166.525 39.5345 168.995 37.5083 171.246 35.0655C173.587 32.527 175.642 29.3976 177.349 25.7672C179.016 22.2156 180.302 18.028 181.166 13.3226L180.56 13.0862V15.0956H179.347C178.578 18.9173 177.472 22.3451 176.046 25.3338C175.984 25.4633 175.923 25.5871 175.861 25.7109C176.035 25.8573 176.198 25.998 176.355 26.1331L176.596 26.347L175.103 28.9023L174.744 28.5815C174.648 28.497 174.553 28.4126 174.452 28.3282C173.138 30.5739 171.656 32.5721 170.028 34.2888C167.85 36.5852 165.43 38.4989 162.831 39.9848L162.842 39.9904ZM174.867 27.6302C174.867 27.6302 174.901 27.6584 174.918 27.6753L175.597 26.5102C175.569 26.482 175.535 26.4595 175.507 26.4314C175.3 26.8366 175.086 27.2362 174.867 27.6246V27.6302ZM165.419 21.1181C166.334 21.664 167.272 22.255 168.232 22.8798C169.613 23.7803 170.938 24.6865 172.173 25.559C172.942 26.1049 173.638 26.6284 174.244 27.1181C174.457 26.7297 174.671 26.3301 174.878 25.9248C174.283 25.4577 173.599 24.9624 172.835 24.4445C171.589 23.6003 170.269 22.7335 168.888 21.8442C167.923 21.225 166.969 20.6453 166.042 20.1162C165.84 20.4539 165.632 20.786 165.425 21.1181H165.419ZM159.923 24.5121C159.985 24.5684 160.052 24.6359 160.114 24.6978C160.294 24.8779 160.473 25.0524 160.67 25.2325C160.754 25.3057 160.827 25.3845 160.894 25.452C162.141 24.225 163.28 22.8573 164.302 21.377C164.15 21.2869 163.993 21.1969 163.842 21.1124L163.482 20.9042L164.942 18.6134L165.262 18.7879C165.425 18.8723 165.582 18.9624 165.745 19.0524C166.469 17.7804 167.131 16.4577 167.738 15.0956H167.12V13.1313C166.345 15.0337 165.447 16.8686 164.442 18.6078C163.168 20.8198 161.647 22.8066 159.917 24.5121H159.923ZM166.435 19.4352C167.373 19.9699 168.333 20.5552 169.31 21.18C170.696 22.0749 172.015 22.9417 173.273 23.7916C174.003 24.2869 174.66 24.7597 175.238 25.2044C175.271 25.1312 175.305 25.0636 175.339 24.9905C176.725 22.0862 177.803 18.7654 178.55 15.09H168.602C167.945 16.5872 167.221 18.0393 166.435 19.4352ZM164.594 20.634C164.644 20.6622 164.695 20.6903 164.74 20.7185C164.947 20.3976 165.155 20.0656 165.352 19.7335C165.307 19.7053 165.256 19.6828 165.211 19.6547L164.594 20.6284V20.634ZM179.504 14.302H179.774V13.0074H179.706V13.1538C179.645 13.5365 179.577 13.9192 179.504 14.2963V14.302ZM168.945 14.302H178.707C178.78 13.9024 178.853 13.4971 178.92 13.0919V13.0074H169.455C169.287 13.4408 169.119 13.8742 168.939 14.302H168.945ZM167.912 14.302H168.086C168.265 13.8742 168.445 13.4408 168.613 13.0074H167.912V14.302ZM167.485 12.2194H168.917C168.967 12.0787 169.018 11.938 169.068 11.8029C169.86 9.60781 170.522 7.42959 171.044 5.31327H169.59C169.158 7.22133 168.58 9.19131 167.867 11.1894C167.743 11.5384 167.614 11.8817 167.485 12.2251V12.2194ZM172.043 4.51965H183.075V3.22511H169.944L172.24 3.64725L172.15 4.04686C172.116 4.20446 172.083 4.36206 172.043 4.51965ZM169.764 4.51965H171.235C171.252 4.44086 171.274 4.35643 171.291 4.27763L169.865 4.01309C169.832 4.18195 169.798 4.3508 169.764 4.51965ZM161.36 4.51965H168.956C169.029 4.17069 169.096 3.82735 169.164 3.48401L169.208 3.22511H161.36V4.51965ZM189.609 41.9548H189.289L189.228 41.6396C189.171 41.3581 189.07 41.0148 188.93 40.6321C188.79 40.2606 188.621 39.9285 188.436 39.6527L187.993 39.0167L188.767 39.0336C190.423 39.0617 191.877 39.0786 193.141 39.0786C194.404 39.0786 195.218 39.0617 195.594 39.0336C196.026 39.0054 196.2 38.8985 196.262 38.8422C196.352 38.7578 196.402 38.5439 196.402 38.2512V0.759827H199.406V38.2512C199.406 39.2474 199.243 39.9735 198.906 40.4688C198.569 40.9641 198.053 41.3244 197.362 41.5326C196.689 41.724 195.762 41.8422 194.527 41.8872C193.326 41.9322 191.675 41.9548 189.609 41.9548ZM189.441 39.8384C189.52 40.0017 189.593 40.1761 189.66 40.3563C189.767 40.6489 189.851 40.9191 189.918 41.1611C191.827 41.1611 193.365 41.133 194.493 41.0936C195.65 41.0486 196.537 40.9416 197.132 40.7672C197.637 40.6152 198.013 40.3619 198.244 40.0186C198.485 39.664 198.608 39.0673 198.608 38.2456V1.54218H197.183V38.2456C197.183 38.7859 197.053 39.1743 196.784 39.4219C196.531 39.6527 196.155 39.7822 195.639 39.8216C195.24 39.8497 194.42 39.8666 193.124 39.8666C192.04 39.8666 190.805 39.8553 189.43 39.8328L189.441 39.8384ZM188.06 30.6302H185.146V5.15568H188.06V30.6302ZM185.938 29.8422H187.274V5.94366H185.938V29.8422Z" fill="#F2F2F2" style="fill:#F2F2F2;fill:color(display-p3 0.9490 0.9490 0.9490);fill-opacity:1;"/>
<path d="M16.044 52.0241V67.8852H14.663L4.49619 55.0185V67.8852H2.82324V52.0241H4.20427L14.3935 64.8908V52.0241H16.044Z" fill="#F2F2F2" style="fill:#F2F2F2;fill:color(display-p3 0.9490 0.9490 0.9490);fill-opacity:1;"/>
<path d="M16.3529 68.1948H14.5172L4.80511 55.9021V68.1948H2.51465V51.7145H4.35039L14.0849 64.0072V51.7145H16.3529V68.1948ZM14.8147 67.5757H15.7354V52.3337H14.7024V65.7802L4.05285 52.3337H3.13218V67.5757H4.18758V54.1292L14.8147 67.5757Z" fill="#F2F2F2" style="fill:#F2F2F2;fill:color(display-p3 0.9490 0.9490 0.9490);fill-opacity:1;"/>
<path d="M21.6914 61.9247C21.6914 58.39 24.2682 55.874 27.7488 55.874C31.2294 55.874 33.7838 58.39 33.7838 61.9247C33.7838 65.4593 31.2294 67.9978 27.7488 67.9978C24.2682 67.9978 21.6914 65.4593 21.6914 61.9247ZM32.1557 61.9247C32.1557 59.1385 30.2807 57.2811 27.7488 57.2811C25.2169 57.2811 23.3194 59.1385 23.3194 61.9247C23.3194 64.7108 25.2169 66.5682 27.7488 66.5682C30.2807 66.5682 32.1557 64.7108 32.1557 61.9247Z" fill="#F2F2F2" style="fill:#F2F2F2;fill:color(display-p3 0.9490 0.9490 0.9490);fill-opacity:1;"/>
<path d="M27.749 68.3074C24.0607 68.3074 21.3828 65.6226 21.3828 61.9246C21.3828 58.2267 24.0607 55.5645 27.749 55.5645C31.4373 55.5645 34.0927 58.238 34.0927 61.9246C34.0927 65.6113 31.4261 68.3074 27.749 68.3074ZM27.749 56.1836C24.4199 56.1836 22.0003 58.5982 22.0003 61.9246C22.0003 65.2511 24.4199 67.6882 27.749 67.6882C31.078 67.6882 33.4752 65.2623 33.4752 61.9246C33.4752 58.5869 31.0668 56.1836 27.749 56.1836ZM27.749 66.8777C25.0038 66.8777 23.0109 64.7952 23.0109 61.9246C23.0109 59.0541 25.0038 56.9716 27.749 56.9716C30.4942 56.9716 32.4646 59.0091 32.4646 61.9246C32.4646 64.8402 30.5279 66.8777 27.749 66.8777ZM27.749 57.5907C25.3238 57.5907 23.6284 59.3749 23.6284 61.9246C23.6284 64.4743 25.3238 66.2586 27.749 66.2586C30.1742 66.2586 31.8471 64.4743 31.8471 61.9246C31.8471 59.3749 30.163 57.5907 27.749 57.5907Z" fill="#F2F2F2" style="fill:#F2F2F2;fill:color(display-p3 0.9490 0.9490 0.9490);fill-opacity:1;"/>
<path d="M51.1363 61.9247C51.1363 65.5269 48.6044 67.9978 45.2136 67.9978C43.2488 67.9978 41.5983 67.1366 40.6271 65.5269V67.8852H39.0889V51.0729H40.6944V58.2324C41.6881 56.6902 43.3161 55.874 45.2136 55.874C48.6044 55.874 51.1363 58.3224 51.1363 61.9247ZM49.5307 61.9247C49.5307 59.1385 47.6107 57.2811 45.1013 57.2811C42.5919 57.2811 40.672 59.1385 40.672 61.9247C40.672 64.7108 42.5695 66.5682 45.1013 66.5682C47.6332 66.5682 49.5307 64.7108 49.5307 61.9247Z" fill="#F2F2F2" style="fill:#F2F2F2;fill:color(display-p3 0.9490 0.9490 0.9490);fill-opacity:1;"/>
<path d="M45.2138 68.3074C43.4623 68.3074 41.9746 67.6601 40.936 66.4725V68.1948H38.7803V50.7634H41.0034V57.3262C42.0476 56.1836 43.5072 55.5645 45.2138 55.5645C48.8236 55.5645 51.4452 58.238 51.4452 61.9246C51.4452 65.6113 48.8236 68.3074 45.2138 68.3074ZM40.3185 64.4237L40.8911 65.3693C41.7949 66.8665 43.3332 67.6882 45.2138 67.6882C48.5204 67.6882 50.8277 65.3186 50.8277 61.9246C50.8277 58.5307 48.5204 56.1836 45.2138 56.1836C43.3893 56.1836 41.8735 56.9716 40.9528 58.4012L40.3859 59.2792V51.3825H39.3978V67.5757H40.3185V64.4237ZM45.1015 66.8777C42.3563 66.8777 40.3634 64.7952 40.3634 61.9246C40.3634 59.0541 42.3563 56.9716 45.1015 56.9716C47.8467 56.9716 49.8397 59.0541 49.8397 61.9246C49.8397 64.7952 47.8467 66.8777 45.1015 66.8777ZM45.1015 57.5907C42.6763 57.5907 40.9809 59.3749 40.9809 61.9246C40.9809 64.4743 42.6763 66.2586 45.1015 66.2586C47.5267 66.2586 49.2221 64.4743 49.2221 61.9246C49.2221 59.3749 47.5267 57.5907 45.1015 57.5907Z" fill="#F2F2F2" style="fill:#F2F2F2;fill:color(display-p3 0.9490 0.9490 0.9490);fill-opacity:1;"/>
<path d="M66.7988 62.4256H56.8565C57.0362 64.919 58.9337 66.5738 61.5329 66.5738C62.9813 66.5738 64.2669 66.0504 65.1707 65.0091L66.0746 66.0503C65.0135 67.3168 63.3631 67.9978 61.488 67.9978C57.7828 67.9978 55.251 65.4593 55.251 61.9247C55.251 58.39 57.7155 55.874 61.0613 55.874C64.4072 55.874 66.8212 58.3449 66.8212 61.9247C66.8212 62.0597 66.7988 62.2399 66.7988 62.4256ZM56.8509 61.2267H65.2774C65.0753 58.8909 63.3799 57.2643 61.0501 57.2643C58.7204 57.2643 57.0474 58.8965 56.8453 61.2267H56.8509Z" fill="#F2F2F2" style="fill:#F2F2F2;fill:color(display-p3 0.9490 0.9490 0.9490);fill-opacity:1;"/>
<path d="M61.4882 68.3074C57.637 68.3074 54.9424 65.6845 54.9424 61.9246C54.9424 58.1648 57.5135 55.5645 61.0559 55.5645C64.5983 55.5645 67.1245 58.1817 67.1245 61.9246C67.1245 61.9922 67.1245 62.071 67.1133 62.1611C67.1133 62.2455 67.1021 62.3355 67.1021 62.4256V62.7351H57.1936C57.4967 64.8571 59.2033 66.2642 61.5275 66.2642C62.931 66.2642 64.1043 65.7633 64.9351 64.8064L65.1653 64.5363L66.4733 66.0447L66.3049 66.2473C65.1934 67.5756 63.4811 68.3074 61.4826 68.3074H61.4882ZM61.0559 56.1836C57.8672 56.1836 55.5543 58.5982 55.5543 61.9246C55.5543 65.2511 57.9907 67.6882 61.4826 67.6882C63.1948 67.6882 64.6656 67.1085 65.6593 66.0447L65.1541 65.465C64.2334 66.3768 62.959 66.8777 61.5275 66.8777C58.7374 66.8777 56.7332 65.0935 56.5423 62.4481L56.5199 62.116H66.5014C66.5014 62.0485 66.5126 61.9809 66.5126 61.9246C66.5126 58.5419 64.267 56.1836 61.0559 56.1836ZM65.62 61.5306H56.5199L56.5479 61.1929C56.7669 58.6939 58.6195 56.9434 61.0559 56.9434C63.4923 56.9434 65.373 58.6883 65.5863 61.1929L65.6144 61.5306H65.62ZM57.1991 60.9172H64.9351C64.6207 58.9022 63.0994 57.5682 61.0559 57.5682C59.0124 57.5682 57.5135 58.9022 57.1991 60.9172Z" fill="#F2F2F2" style="fill:#F2F2F2;fill:color(display-p3 0.9490 0.9490 0.9490);fill-opacity:1;"/>
<path d="M72.127 51.0729H73.7325V67.8852H72.127V51.0729Z" fill="#F2F2F2" style="fill:#F2F2F2;fill:color(display-p3 0.9490 0.9490 0.9490);fill-opacity:1;"/>
<path d="M74.0414 68.1948H71.8184V50.7634H74.0414V68.1948ZM72.4359 67.5757H73.4239V51.3825H72.4359V67.5757Z" fill="#F2F2F2" style="fill:#F2F2F2;fill:color(display-p3 0.9490 0.9490 0.9490);fill-opacity:1;"/>
<path d="M88.5361 52.0241H90.2091V66.433H99.0678V67.8852H88.5361V52.0241Z" fill="#F2F2F2" style="fill:#F2F2F2;fill:color(display-p3 0.9490 0.9490 0.9490);fill-opacity:1;"/>
<path d="M99.3709 68.1948H88.2217V51.7145H90.5122V66.1235H99.3709V68.1891V68.1948ZM88.8392 67.5757H98.7534V66.7426H89.8946V52.3337H88.8392V67.5757Z" fill="#F2F2F2" style="fill:#F2F2F2;fill:color(display-p3 0.9490 0.9490 0.9490);fill-opacity:1;"/>
<path d="M112.507 60.5007V67.8853H110.969V66.0279C110.245 67.2492 108.847 67.9978 106.877 67.9978C104.188 67.9978 102.537 66.5907 102.537 64.5307C102.537 62.6958 103.71 61.1536 107.124 61.1536H110.896V60.4275C110.896 58.39 109.745 57.2755 107.528 57.2755C105.99 57.2755 104.547 57.8215 103.576 58.6771L102.851 57.4782C104.047 56.4594 105.81 55.8684 107.685 55.8684C110.761 55.8684 112.496 57.4106 112.496 60.4894L112.507 60.5007ZM110.907 64.3055V62.3581H107.18C104.873 62.3581 104.131 63.2642 104.131 64.4856C104.131 65.8702 105.237 66.7258 107.135 66.7258C109.032 66.7258 110.279 65.8646 110.907 64.2999V64.3055Z" fill="#F2F2F2" style="fill:#F2F2F2;fill:color(display-p3 0.9490 0.9490 0.9490);fill-opacity:1;"/>
<path d="M106.883 68.3074C104.059 68.3074 102.234 66.8271 102.234 64.5306C102.234 63.1573 102.869 60.844 107.13 60.844H110.593V60.4275C110.593 58.5419 109.566 57.5851 107.534 57.5851C106.125 57.5851 104.721 58.0804 103.784 58.9134L103.509 59.1611L102.459 57.4162L102.661 57.2474C103.919 56.178 105.754 55.5645 107.697 55.5645C110.998 55.5645 112.817 57.3149 112.817 60.495V68.1892H110.661V66.9284C109.785 67.8233 108.477 68.3017 106.877 68.3017L106.883 68.3074ZM107.13 61.4631C104.328 61.4631 102.852 62.5213 102.852 64.5306C102.852 66.54 104.435 67.6882 106.883 67.6882C108.657 67.6882 110.015 67.0409 110.706 65.8702L111.278 64.9021V67.5757H112.199V60.5007C112.199 57.6357 110.683 56.1892 107.691 56.1892C105.996 56.1892 104.396 56.6845 103.256 57.5626L103.655 58.2267C104.693 57.4275 106.086 56.9772 107.528 56.9772C109.897 56.9772 111.205 58.2042 111.205 60.4331V61.4687H107.124L107.13 61.4631ZM107.13 67.041C105.086 67.041 103.817 66.0616 103.817 64.4912C103.817 63.3768 104.401 62.0541 107.175 62.0541H111.211L111.189 64.4293C110.504 66.1179 109.066 67.0466 107.13 67.0466V67.041ZM107.175 62.6676C104.716 62.6676 104.429 63.7089 104.429 64.4856C104.429 65.6957 105.44 66.4218 107.13 66.4218C108.819 66.4218 110.004 65.6507 110.593 64.2436V62.6676H107.175Z" fill="#F2F2F2" style="fill:#F2F2F2;fill:color(display-p3 0.9490 0.9490 0.9490);fill-opacity:1;"/>
<path d="M129.613 55.9697V67.8852H128.075V65.7126C127.239 67.1647 125.701 68.0033 123.803 68.0033C120.777 68.0033 118.784 66.3036 118.784 62.8814V55.9697H120.39V62.7239C120.39 65.2623 121.698 66.5512 123.96 66.5512C126.447 66.5512 128.008 64.9415 128.008 62.2229V55.9697H129.613Z" fill="#F2F2F2" style="fill:#F2F2F2;fill:color(display-p3 0.9490 0.9490 0.9490);fill-opacity:1;"/>
<path d="M123.808 68.3073C120.423 68.3073 118.486 66.3261 118.486 62.8758V55.6545H120.709V62.7126C120.709 65.0147 121.838 66.2304 123.971 66.2304C126.312 66.2304 127.71 64.7276 127.71 62.2117V55.6489H129.933V68.1835H127.777V66.6469C126.829 67.7051 125.431 68.2961 123.814 68.2961L123.808 68.3073ZM119.098 56.2793V62.8815C119.098 65.9828 120.771 67.6938 123.808 67.6938C125.571 67.6938 127.031 66.9171 127.811 65.5606L128.384 64.5644V67.5812H129.304V56.2793H128.316V62.2229C128.316 65.0822 126.649 66.8608 123.96 66.8608C121.462 66.8608 120.081 65.3918 120.081 62.7239V56.2793H119.093H119.098Z" fill="#F2F2F2" style="fill:#F2F2F2;fill:color(display-p3 0.9490 0.9490 0.9490);fill-opacity:1;"/>
<path d="M142.133 55.874V57.4388C141.998 57.4388 141.863 57.4162 141.745 57.4162C139.258 57.4162 137.748 59.0035 137.748 61.8121V67.8852H136.143V55.9697H137.681V58.3055C138.427 56.7183 139.943 55.8797 142.133 55.8797V55.874Z" fill="#F2F2F2" style="fill:#F2F2F2;fill:color(display-p3 0.9490 0.9490 0.9490);fill-opacity:1;"/>
<path d="M138.057 68.1948H135.834V55.6601H137.99V57.2361C138.894 56.1386 140.303 55.5701 142.133 55.5701H142.442V57.7539H142.133C142.054 57.7539 141.97 57.7483 141.897 57.7427C141.846 57.7427 141.796 57.7314 141.751 57.7314C139.404 57.7314 138.057 59.2229 138.057 61.8177V68.2004V68.1948ZM136.452 67.5756H137.44V61.812C137.44 58.8683 139.051 57.1066 141.745 57.1066C141.768 57.1066 141.796 57.1066 141.824 57.1066V56.1892C139.927 56.2624 138.624 57.0166 137.956 58.4294L137.372 59.6789V56.2736H136.452V67.5756Z" fill="#F2F2F2" style="fill:#F2F2F2;fill:color(display-p3 0.9490 0.9490 0.9490);fill-opacity:1;"/>
<path d="M157.587 62.4256H147.645C147.824 64.919 149.722 66.5738 152.321 66.5738C153.769 66.5738 155.055 66.0504 155.959 65.0091L156.863 66.0503C155.802 67.3168 154.151 67.9978 152.276 67.9978C148.571 67.9978 146.039 65.4593 146.039 61.9247C146.039 58.39 148.504 55.874 151.849 55.874C155.195 55.874 157.609 58.3449 157.609 61.9247C157.609 62.0597 157.587 62.2399 157.587 62.4256ZM147.645 61.2267H156.071C155.869 58.8909 154.174 57.2643 151.844 57.2643C149.514 57.2643 147.847 58.8965 147.639 61.2267H147.645Z" fill="#F2F2F2" style="fill:#F2F2F2;fill:color(display-p3 0.9490 0.9490 0.9490);fill-opacity:1;"/>
<path d="M152.276 68.3074C148.425 68.3074 145.73 65.6845 145.73 61.9246C145.73 58.1648 148.302 55.5645 151.844 55.5645C155.386 55.5645 157.913 58.1817 157.913 61.9246C157.913 61.9922 157.913 62.071 157.901 62.1611C157.896 62.2455 157.89 62.3355 157.89 62.4256V62.7351H147.982C148.285 64.8571 149.991 66.2642 152.316 66.2642C153.719 66.2642 154.892 65.7633 155.723 64.8064L155.953 64.5363L157.261 66.0447L157.093 66.2473C155.981 67.5756 154.269 68.3074 152.271 68.3074H152.276ZM151.85 56.1836C148.661 56.1836 146.348 58.5982 146.348 61.9246C146.348 65.2511 148.784 67.6882 152.276 67.6882C153.989 67.6882 155.459 67.1085 156.453 66.0447L155.948 65.465C155.027 66.3768 153.753 66.8777 152.316 66.8777C149.525 66.8777 147.521 65.0935 147.33 62.4481L147.308 62.116H157.29C157.29 62.0485 157.301 61.9809 157.301 61.9246C157.301 58.5419 155.055 56.1836 151.844 56.1836H151.85ZM156.414 61.5306H147.314L147.342 61.1929C147.561 58.6939 149.413 56.9434 151.85 56.9434C154.286 56.9434 156.167 58.6883 156.38 61.1929L156.408 61.5306H156.414ZM147.993 60.9172H155.729C155.414 58.9022 153.893 57.5682 151.85 57.5682C149.806 57.5682 148.307 58.9022 147.993 60.9172Z" fill="#F2F2F2" style="fill:#F2F2F2;fill:color(display-p3 0.9490 0.9490 0.9490);fill-opacity:1;"/>
<path d="M171.891 60.5007V67.8853H170.353V66.0279C169.629 67.2492 168.231 67.9978 166.26 67.9978C163.571 67.9978 161.921 66.5907 161.921 64.5307C161.921 62.6958 163.094 61.1536 166.507 61.1536H170.28V60.4275C170.28 58.39 169.129 57.2755 166.912 57.2755C165.373 57.2755 163.931 57.8215 162.959 58.6771L162.235 57.4782C163.431 56.4594 165.194 55.8684 167.069 55.8684C170.145 55.8684 171.88 57.4106 171.88 60.4894L171.891 60.5007ZM170.291 64.3055V62.3581H166.564C164.256 62.3581 163.515 63.2642 163.515 64.4856C163.515 65.8702 164.621 66.7258 166.519 66.7258C168.416 66.7258 169.662 65.8646 170.291 64.2999V64.3055Z" fill="#F2F2F2" style="fill:#F2F2F2;fill:color(display-p3 0.9490 0.9490 0.9490);fill-opacity:1;"/>
<path d="M166.266 68.3074C163.443 68.3074 161.618 66.8271 161.618 64.5306C161.618 63.1573 162.253 60.844 166.514 60.844H169.977V60.4275C169.977 58.5419 168.95 57.5851 166.918 57.5851C165.509 57.5851 164.105 58.0804 163.168 58.9134L162.893 59.1611L161.843 57.4162L162.045 57.2474C163.302 56.178 165.138 55.5645 167.081 55.5645C170.381 55.5645 172.2 57.3149 172.2 60.495V68.1892H170.05V66.9284C169.174 67.8233 167.866 68.3017 166.266 68.3017V68.3074ZM166.514 61.4631C163.712 61.4631 162.236 62.5213 162.236 64.5306C162.236 66.54 163.819 67.6882 166.266 67.6882C168.04 67.6882 169.399 67.0409 170.09 65.8702L170.662 64.9021V67.5757H171.583V60.5007C171.583 57.6357 170.067 56.1892 167.075 56.1892C165.379 56.1892 163.78 56.6845 162.64 57.5626L163.038 58.2267C164.077 57.4275 165.469 56.9772 166.912 56.9772C169.281 56.9772 170.589 58.2042 170.589 60.4331V61.4687H166.508L166.514 61.4631ZM166.514 67.041C164.47 67.041 163.201 66.0616 163.201 64.4912C163.201 63.3768 163.785 62.0541 166.558 62.0541H170.595L170.572 64.4293C169.887 66.1179 168.45 67.0466 166.514 67.0466V67.041ZM166.558 62.6676C164.1 62.6676 163.813 63.7089 163.813 64.4856C163.813 65.6957 164.824 66.4218 166.508 66.4218C168.192 66.4218 169.377 65.6676 169.972 64.2436V62.6676H166.553H166.558Z" fill="#F2F2F2" style="fill:#F2F2F2;fill:color(display-p3 0.9490 0.9490 0.9490);fill-opacity:1;"/>
<path d="M184.545 67.1591C183.91 67.7276 182.962 67.9978 182.035 67.9978C179.801 67.9978 178.555 66.7257 178.555 64.5306V57.3262H176.433V55.9641H178.555V53.3581H180.16V55.9641H183.776V57.3262H180.16V64.4406C180.16 65.8421 180.884 66.6132 182.215 66.6132C182.872 66.6132 183.529 66.4105 183.978 65.9997L184.545 67.1535V67.1591Z" fill="#F2F2F2" style="fill:#F2F2F2;fill:color(display-p3 0.9490 0.9490 0.9490);fill-opacity:1;"/>
<path d="M182.041 68.3074C179.633 68.3074 178.252 66.934 178.252 64.5306V57.6357H176.13V55.6601H178.252V53.0541H180.475V55.6601H184.09V57.6357H180.475V64.4406C180.475 65.6789 181.064 66.3093 182.221 66.3093C182.833 66.3093 183.4 66.1179 183.776 65.7745L184.079 65.4988L184.927 67.2323L184.753 67.3899C184.102 67.9753 183.114 68.3074 182.041 68.3074ZM176.742 57.0166H178.864V64.5306C178.864 66.5682 179.992 67.6882 182.036 67.6882C182.861 67.6882 183.624 67.4687 184.158 67.0747L183.866 66.4725C183.411 66.7595 182.827 66.9227 182.215 66.9227C180.711 66.9227 179.852 66.0166 179.852 64.4406V57.0166H183.467V56.2737H179.852V53.6677H178.864V56.2737H176.742V57.0166Z" fill="#F2F2F2" style="fill:#F2F2F2;fill:color(display-p3 0.9490 0.9490 0.9490);fill-opacity:1;"/>
<path d="M199.849 62.4256H189.906C190.086 64.919 191.984 66.5738 194.583 66.5738C196.031 66.5738 197.317 66.0504 198.221 65.0091L199.124 66.0503C198.063 67.3168 196.413 67.9978 194.538 67.9978C190.833 67.9978 188.301 65.4593 188.301 61.9247C188.301 58.39 190.765 55.874 194.111 55.874C197.457 55.874 199.871 58.3449 199.871 61.9247C199.871 62.0597 199.849 62.2399 199.849 62.4256ZM189.901 61.2267H198.327C198.125 58.8909 196.43 57.2643 194.1 57.2643C191.77 57.2643 190.103 58.8965 189.895 61.2267H189.901Z" fill="#F2F2F2" style="fill:#F2F2F2;fill:color(display-p3 0.9490 0.9490 0.9490);fill-opacity:1;"/>
<path d="M194.538 68.3074C190.687 68.3074 187.992 65.6845 187.992 61.9246C187.992 58.1648 190.563 55.5645 194.106 55.5645C197.648 55.5645 200.174 58.1817 200.174 61.9246C200.174 61.9922 200.174 62.071 200.163 62.1611C200.158 62.2455 200.152 62.3355 200.152 62.4256V62.7351H190.243C190.547 64.8571 192.253 66.2642 194.577 66.2642C195.981 66.2642 197.154 65.7633 197.985 64.8064L198.215 64.5363L199.523 66.0447L199.355 66.2473C198.243 67.5756 196.531 68.3074 194.532 68.3074H194.538ZM194.106 56.1836C190.917 56.1836 188.604 58.5982 188.604 61.9246C188.604 65.2511 191.041 67.6882 194.532 67.6882C196.245 67.6882 197.715 67.1085 198.709 66.0447L198.204 65.465C197.283 66.3768 196.009 66.8777 194.572 66.8777C191.782 66.8777 189.777 65.0935 189.587 62.4481L189.564 62.116H199.546C199.546 62.0485 199.557 61.9809 199.557 61.9246C199.557 58.5419 197.311 56.1836 194.1 56.1836H194.106ZM198.67 61.5306H189.57L189.598 61.1929C189.817 58.6939 191.669 56.9434 194.106 56.9434C196.542 56.9434 198.423 58.6883 198.636 61.1929L198.664 61.5306H198.67ZM190.249 60.9172H197.985C197.671 58.9022 196.149 57.5682 194.106 57.5682C192.062 57.5682 190.563 58.9022 190.249 60.9172Z" fill="#F2F2F2" style="fill:#F2F2F2;fill:color(display-p3 0.9490 0.9490 0.9490);fill-opacity:1;"/>
<path d="M3.30078 77.5156H4.97373V91.9245H13.8325V93.3766H3.30078V77.5156Z" fill="#F2F2F2" style="fill:#F2F2F2;fill:color(display-p3 0.9490 0.9490 0.9490);fill-opacity:1;"/>
<path d="M14.1355 93.6806H2.98633V77.2004H5.27679V91.6093H14.1355V93.675V93.6806ZM3.60946 93.0671H13.5236V92.2341H4.66488V77.8251H3.60946V93.0671Z" fill="#F2F2F2" style="fill:#F2F2F2;fill:color(display-p3 0.9490 0.9490 0.9490);fill-opacity:1;"/>
<path d="M28.6533 87.9114H18.7111C18.8907 90.4049 20.7882 92.0596 23.3874 92.0596C24.8358 92.0596 26.1214 91.5362 27.0252 90.4949L27.9291 91.5362C26.8681 92.8026 25.2176 93.4836 23.3425 93.4836C19.6373 93.4836 17.1055 90.9452 17.1055 87.4105C17.1055 83.8758 19.57 81.3599 22.9159 81.3599C26.2617 81.3599 28.6757 83.8308 28.6757 87.4105C28.6757 87.5456 28.6533 87.7257 28.6533 87.9114ZM18.7111 86.7126H27.1375C26.9354 84.3767 25.24 82.7501 22.9102 82.7501C20.5805 82.7501 18.9075 84.3824 18.7054 86.7126H18.7111Z" fill="#F2F2F2" style="fill:#F2F2F2;fill:color(display-p3 0.9490 0.9490 0.9490);fill-opacity:1;"/>
<path d="M23.3427 93.7988C19.4915 93.7988 16.7969 91.176 16.7969 87.4161C16.7969 83.6563 19.368 81.0559 22.9104 81.0559C26.4528 81.0559 28.979 83.6732 28.979 87.4161C28.979 87.4837 28.979 87.5625 28.9678 87.6525C28.9678 87.7369 28.9566 87.827 28.9566 87.917V88.2266H19.048C19.3512 90.3486 21.0578 91.7557 23.382 91.7557C24.7854 91.7557 25.9588 91.2548 26.7896 90.2979L27.0198 90.0277L28.3278 91.5362L28.1594 91.7388C27.0479 93.0671 25.3356 93.7988 23.3371 93.7988H23.3427ZM22.916 81.6751C19.7273 81.6751 17.4144 84.0897 17.4144 87.4161C17.4144 90.7426 19.8508 93.1797 23.3427 93.1797C25.0549 93.1797 26.5258 92.5999 27.5194 91.5362L27.0142 90.9564C26.0935 91.8683 24.8191 92.3692 23.3876 92.3692C20.5975 92.3692 18.5933 90.585 18.4024 87.9396L18.38 87.6075H28.3615C28.3615 87.5399 28.3727 87.4724 28.3727 87.4161C28.3727 84.0334 26.1272 81.6751 22.916 81.6751ZM27.4745 87.0221H18.3744L18.4024 86.6844C18.6214 84.1853 20.474 82.4349 22.9104 82.4349C25.3468 82.4349 27.2275 84.1797 27.4408 86.6844L27.4689 87.0221H27.4745ZM19.0593 86.403H26.7952C26.4809 84.388 24.9595 83.0541 22.916 83.0541C20.8726 83.0541 19.3737 84.388 19.0593 86.403Z" fill="#F2F2F2" style="fill:#F2F2F2;fill:color(display-p3 0.9490 0.9490 0.9490);fill-opacity:1;"/>
<path d="M32.7842 87.4161C32.7842 83.8589 35.361 81.3655 38.909 81.3655C40.9187 81.3655 42.6141 82.1591 43.5629 83.7238L42.3671 84.5399C41.5531 83.3411 40.29 82.7726 38.909 82.7726C36.3097 82.7726 34.4122 84.63 34.4122 87.4161C34.4122 90.2022 36.3097 92.0596 38.909 92.0596C40.29 92.0596 41.5531 91.5136 42.3671 90.3148L43.5629 91.1309C42.6141 92.6731 40.9187 93.4892 38.909 93.4892C35.361 93.4892 32.7842 90.9733 32.7842 87.4161Z" fill="#F2F2F2" style="fill:#F2F2F2;fill:color(display-p3 0.9490 0.9490 0.9490);fill-opacity:1;"/>
<path d="M38.9091 93.7988C35.1815 93.7988 32.4756 91.114 32.4756 87.4161C32.4756 83.7182 35.1815 81.0559 38.9091 81.0559C41.0985 81.0559 42.8444 81.9452 43.8269 83.5606L43.9785 83.8139L42.2831 84.9677L42.109 84.7144C41.3961 83.6619 40.2565 83.0822 38.9035 83.0822C36.439 83.0822 34.7155 84.8664 34.7155 87.4161C34.7155 89.9658 36.3997 91.75 38.9035 91.75C40.2677 91.75 41.4017 91.1759 42.109 90.1403L42.2831 89.887L43.9785 91.0409L43.8213 91.2941C42.8389 92.887 41.048 93.7988 38.9035 93.7988H38.9091ZM38.9091 81.6751C35.4846 81.6751 33.0931 84.0334 33.0931 87.4161C33.0931 90.7989 35.4846 93.1797 38.9091 93.1797C40.7505 93.1797 42.2382 92.4874 43.142 91.2154L42.4403 90.7369C41.615 91.7894 40.3687 92.3692 38.9091 92.3692C36.0797 92.3692 34.1036 90.3317 34.1036 87.4161C34.1036 84.5006 36.0797 82.463 38.9091 82.463C40.3631 82.463 41.6038 83.0484 42.4403 84.1178L43.142 83.6394C42.2494 82.373 40.7617 81.6751 38.9091 81.6751Z" fill="#F2F2F2" style="fill:#F2F2F2;fill:color(display-p3 0.9490 0.9490 0.9490);fill-opacity:1;"/>
<path d="M54.9988 92.6506C54.3644 93.2191 53.4157 93.4893 52.4894 93.4893C50.2551 93.4893 49.0088 92.2172 49.0088 90.0221V82.8176H46.8867V81.4555H49.0088V78.8495H50.6144V81.4555H54.2297V82.8176H50.6144V89.932C50.6144 91.3335 51.3385 92.1046 52.669 92.1046C53.3259 92.1046 53.9827 91.902 54.4318 91.4912L54.9988 92.645V92.6506Z" fill="#F2F2F2" style="fill:#F2F2F2;fill:color(display-p3 0.9490 0.9490 0.9490);fill-opacity:1;"/>
<path d="M52.4896 93.7988C50.0812 93.7988 48.7002 92.4255 48.7002 90.0221V83.1272H46.5781V81.1516H48.7002V78.5456H50.9233V81.1516H54.5386V83.1272H50.9233V89.932C50.9233 91.1703 51.5127 91.8007 52.6692 91.8007C53.2811 91.8007 53.8537 91.6093 54.2243 91.266L54.5274 90.9902L55.3751 92.7238L55.2011 92.8813C54.5499 93.4667 53.5618 93.7988 52.4896 93.7988ZM47.1956 82.508H49.3177V90.0221C49.3177 92.0596 50.4461 93.1797 52.4896 93.1797C53.3148 93.1797 54.0783 92.9601 54.6116 92.5662L54.3197 91.9639C53.8593 92.251 53.2811 92.4142 52.6692 92.4142C51.1647 92.4142 50.3058 91.508 50.3058 89.932V82.508H53.9211V81.7651H50.3058V79.1591H49.3177V81.7651H47.1956V82.508Z" fill="#F2F2F2" style="fill:#F2F2F2;fill:color(display-p3 0.9490 0.9490 0.9490);fill-opacity:1;"/>
<path d="M70.6613 81.4555V93.371H69.1231V91.1984C68.2866 92.6506 66.7484 93.4892 64.8509 93.4892C61.825 93.4892 59.832 91.7894 59.832 88.3673V81.4555H61.4376V88.2097C61.4376 90.7481 62.7513 92.0371 65.0081 92.0371C67.495 92.0371 69.0557 90.4273 69.0557 87.7088V81.4555H70.6613Z" fill="#F2F2F2" style="fill:#F2F2F2;fill:color(display-p3 0.9490 0.9490 0.9490);fill-opacity:1;"/>
<path d="M64.851 93.7988C61.4658 93.7988 59.5234 91.8176 59.5234 88.3673V81.146H61.7466V88.2041C61.7466 90.5061 62.8749 91.7219 65.0082 91.7219C67.3492 91.7219 68.7471 90.2191 68.7471 87.7031V81.1403H70.9702V93.675H68.8144V92.1384C67.8657 93.1965 66.4734 93.7875 64.851 93.7875V93.7988ZM60.141 81.7651V88.3673C60.141 91.4686 61.8139 93.1797 64.851 93.1797C66.6138 93.1797 68.0734 92.4029 68.8537 91.0465L69.4264 90.0502V93.0671H70.3471V81.7651H69.359V87.7088C69.359 90.568 67.6917 92.3466 65.0026 92.3466C62.4988 92.3466 61.1234 90.8776 61.1234 88.2097V81.7651H60.1354H60.141Z" fill="#F2F2F2" style="fill:#F2F2F2;fill:color(display-p3 0.9490 0.9490 0.9490);fill-opacity:1;"/>
<path d="M83.1805 81.3655V82.9302C83.0457 82.9302 82.911 82.9077 82.7987 82.9077C80.3118 82.9077 78.796 84.4949 78.796 87.3035V93.3767H77.1904V81.4612H78.7286V83.797C79.4753 82.2097 80.991 81.3711 83.1805 81.3711V81.3655Z" fill="#F2F2F2" style="fill:#F2F2F2;fill:color(display-p3 0.9490 0.9490 0.9490);fill-opacity:1;"/>
<path d="M79.105 93.6806H76.8818V81.146H79.0376V82.722C79.9414 81.6244 81.3505 81.0559 83.1806 81.0559H83.4894V83.2398H83.1806C83.1021 83.2398 83.0235 83.2342 82.9449 83.2285C82.8944 83.2285 82.8438 83.2173 82.7989 83.2173C80.4523 83.2173 79.105 84.7088 79.105 87.3036V93.6862V93.6806ZM77.4994 93.0671H78.4874V87.3036C78.4874 84.3599 80.0986 82.5981 82.7933 82.5981C82.8157 82.5981 82.8438 82.5981 82.8719 82.5981V81.6807C80.9744 81.7539 79.672 82.5081 79.0039 83.9208L78.4201 85.1703V81.7651H77.4994V93.0671Z" fill="#F2F2F2" style="fill:#F2F2F2;fill:color(display-p3 0.9490 0.9490 0.9490);fill-opacity:1;"/>
<path d="M98.6357 87.9114H88.6935C88.8731 90.4049 90.7706 92.0596 93.3698 92.0596C94.8182 92.0596 96.1038 91.5362 97.0076 90.4949L97.9115 91.5362C96.8504 92.8026 95.2 93.4836 93.3249 93.4836C89.6198 93.4836 87.0879 90.9452 87.0879 87.4105C87.0879 83.8758 89.5524 81.3599 92.8983 81.3599C96.2441 81.3599 98.6581 83.8308 98.6581 87.4105C98.6581 87.5456 98.6357 87.7257 98.6357 87.9114ZM88.6935 86.7126H97.1199C96.9178 84.3767 95.2224 82.7501 92.8926 82.7501C90.5629 82.7501 88.8899 84.3824 88.6878 86.7126H88.6935Z" fill="#F2F2F2" style="fill:#F2F2F2;fill:color(display-p3 0.9490 0.9490 0.9490);fill-opacity:1;"/>
<path d="M93.3251 93.7988C89.474 93.7988 86.7793 91.176 86.7793 87.4161C86.7793 83.6563 89.3505 81.0559 92.8928 81.0559C96.4352 81.0559 98.9615 83.6732 98.9615 87.4161C98.9615 87.4837 98.9615 87.5625 98.9502 87.6525C98.9502 87.7369 98.939 87.827 98.939 87.917V88.2266H89.0305C89.3336 90.3486 91.0403 91.7557 93.3644 91.7557C94.7679 91.7557 95.9412 91.2548 96.7721 90.2979L97.0022 90.0277L98.3103 91.5362L98.1418 91.7388C97.0303 93.0671 95.3181 93.7988 93.3195 93.7988H93.3251ZM92.8928 81.6751C89.7041 81.6751 87.3912 84.0897 87.3912 87.4161C87.3912 90.7426 89.8277 93.1797 93.3195 93.1797C95.0317 93.1797 96.5026 92.5999 97.4962 91.5362L96.991 90.9564C96.0703 91.8683 94.796 92.3692 93.3644 92.3692C90.5743 92.3692 88.5702 90.585 88.3793 87.9396L88.3568 87.6075H98.3383C98.3383 87.5399 98.3496 87.4724 98.3496 87.4161C98.3496 84.0334 96.104 81.6751 92.8928 81.6751ZM97.4569 87.0221H88.3568L88.3849 86.6844C88.6038 84.1853 90.4564 82.4349 92.8928 82.4349C95.3293 82.4349 97.2099 84.1797 97.4233 86.6844L97.4513 87.0221H97.4569ZM89.0361 86.403H96.7721C96.4577 84.388 94.9363 83.0541 92.8928 83.0541C90.8494 83.0541 89.3505 84.388 89.0361 86.403Z" fill="#F2F2F2" style="fill:#F2F2F2;fill:color(display-p3 0.9490 0.9490 0.9490);fill-opacity:1;"/>
<path d="M123.943 91.4461L124.6 90.1572C125.729 91.266 127.744 92.0821 129.821 92.0821C132.78 92.0821 134.071 90.8382 134.071 89.2735C134.071 84.9227 124.331 87.5962 124.331 81.7313C124.331 79.3955 126.138 77.3805 130.164 77.3805C131.949 77.3805 133.801 77.9039 135.07 78.782L134.503 80.1216C133.145 79.2379 131.567 78.8045 130.164 78.8045C127.272 78.8045 125.981 80.0934 125.981 81.6807C125.981 86.0315 135.721 83.403 135.721 89.1778C135.721 91.5136 133.869 93.5061 129.821 93.5061C127.446 93.5061 125.122 92.6675 123.943 91.4461Z" fill="#F2F2F2" style="fill:#F2F2F2;fill:color(display-p3 0.9490 0.9490 0.9490);fill-opacity:1;"/>
<path d="M129.816 93.8157C127.368 93.8157 124.976 92.9714 123.719 91.66L123.567 91.5024L124.511 89.6393L124.808 89.932C125.942 91.0465 127.907 91.7669 129.81 91.7669C132.314 91.7669 133.751 90.8551 133.751 89.2679C133.751 87.5005 131.853 87.0334 129.658 86.4987C127.009 85.8514 124.011 85.1197 124.011 81.7257C124.011 79.4743 125.622 77.0653 130.147 77.0653C132.016 77.0653 133.919 77.6113 135.227 78.5231L135.435 78.6638L134.627 80.5718L134.318 80.3692C133.083 79.5644 131.567 79.1028 130.147 79.1028C127.722 79.1028 126.273 80.0653 126.273 81.6694C126.273 83.448 128.182 83.9152 130.394 84.4555C133.027 85.1028 136.013 85.8345 136.013 89.1666C136.013 91.4067 134.385 93.8044 129.81 93.8044L129.816 93.8157ZM124.32 91.3842C125.493 92.4761 127.666 93.1965 129.816 93.1965C133.936 93.1965 135.407 91.1197 135.407 89.1778C135.407 86.3298 132.791 85.6881 130.254 85.0634C127.997 84.5118 125.667 83.9377 125.667 81.675C125.667 80.1328 126.846 78.4893 130.158 78.4893C131.573 78.4893 133.083 78.9114 134.352 79.66L134.677 78.8889C133.476 78.1291 131.809 77.6788 130.158 77.6788C126.088 77.6788 124.634 79.767 124.634 81.7201C124.634 84.63 127.267 85.2716 129.816 85.8964C132.056 86.4424 134.374 87.0108 134.374 89.2679C134.374 91.221 132.673 92.386 129.816 92.386C127.918 92.386 125.959 91.7163 124.69 90.6525L124.32 91.3842Z" fill="#F2F2F2" style="fill:#F2F2F2;fill:color(display-p3 0.9490 0.9490 0.9490);fill-opacity:1;"/>
<path d="M151.4 87.9114H141.458C141.638 90.4049 143.535 92.0596 146.134 92.0596C147.583 92.0596 148.868 91.5362 149.772 90.4949L150.676 91.5362C149.615 92.8026 147.965 93.4836 146.09 93.4836C142.384 93.4836 139.853 90.9452 139.853 87.4105C139.853 83.8758 142.317 81.3599 145.663 81.3599C149.009 81.3599 151.423 83.8308 151.423 87.4105C151.423 87.5456 151.4 87.7257 151.4 87.9114ZM141.452 86.7126H149.879C149.677 84.3767 147.981 82.7501 145.652 82.7501C143.322 82.7501 141.655 84.3824 141.447 86.7126H141.452Z" fill="#F2F2F2" style="fill:#F2F2F2;fill:color(display-p3 0.9490 0.9490 0.9490);fill-opacity:1;"/>
<path d="M146.09 93.7988C142.239 93.7988 139.544 91.176 139.544 87.4161C139.544 83.6563 142.115 81.0559 145.657 81.0559C149.2 81.0559 151.726 83.6732 151.726 87.4161C151.726 87.4837 151.726 87.5625 151.715 87.6525C151.709 87.7369 151.704 87.827 151.704 87.917V88.2266H141.795C142.098 90.3486 143.805 91.7557 146.129 91.7557C147.533 91.7557 148.706 91.2548 149.537 90.2979L149.767 90.0277L151.075 91.5362L150.907 91.7388C149.795 93.0671 148.083 93.7988 146.084 93.7988H146.09ZM145.657 81.6751C142.469 81.6751 140.156 84.0897 140.156 87.4161C140.156 90.7426 142.592 93.1797 146.084 93.1797C147.796 93.1797 149.267 92.5999 150.261 91.5362L149.756 90.9564C148.835 91.8683 147.561 92.3692 146.123 92.3692C143.333 92.3692 141.329 90.585 141.138 87.9396L141.116 87.6075H151.097C151.097 87.5399 151.109 87.4724 151.109 87.4161C151.109 84.0334 148.863 81.6751 145.652 81.6751H145.657ZM150.222 87.0221H141.121L141.15 86.6844C141.368 84.1853 143.221 82.4349 145.657 82.4349C148.094 82.4349 149.975 84.1797 150.188 86.6844L150.216 87.0221H150.222ZM141.801 86.403H149.537C149.222 84.388 147.701 83.0541 145.657 83.0541C143.614 83.0541 142.115 84.388 141.801 86.403Z" fill="#F2F2F2" style="fill:#F2F2F2;fill:color(display-p3 0.9490 0.9490 0.9490);fill-opacity:1;"/>
<path d="M162.719 81.3655V82.9302C162.584 82.9302 162.449 82.9077 162.331 82.9077C159.844 82.9077 158.334 84.4949 158.334 87.3035V93.3767H156.729V81.4612H158.267V83.797C159.013 82.2097 160.529 81.3711 162.719 81.3711V81.3655Z" fill="#F2F2F2" style="fill:#F2F2F2;fill:color(display-p3 0.9490 0.9490 0.9490);fill-opacity:1;"/>
<path d="M158.643 93.6806H156.42V81.146H158.576V82.722C159.479 81.6244 160.889 81.0559 162.719 81.0559H163.027V83.2398H162.719C162.64 83.2398 162.556 83.2342 162.483 83.2285C162.432 83.2285 162.382 83.2173 162.337 83.2173C159.99 83.2173 158.643 84.7088 158.643 87.3036V93.6862V93.6806ZM157.037 93.0671H158.025V87.3036C158.025 84.3599 159.637 82.5981 162.331 82.5981C162.354 82.5981 162.382 82.5981 162.41 82.5981V81.6807C160.512 81.7539 159.21 82.5081 158.542 83.9208L157.958 85.1703V81.7651H157.037V93.0671Z" fill="#F2F2F2" style="fill:#F2F2F2;fill:color(display-p3 0.9490 0.9490 0.9490);fill-opacity:1;"/>
<path d="M167.462 77.6957C167.462 77.0822 167.984 76.5644 168.635 76.5644C169.286 76.5644 169.809 77.0597 169.809 77.6732C169.809 78.3318 169.314 78.8496 168.635 78.8496C167.956 78.8496 167.462 78.3261 167.462 77.6957ZM167.827 81.4556H169.432V93.3711H167.827V81.4556Z" fill="#F2F2F2" style="fill:#F2F2F2;fill:color(display-p3 0.9490 0.9490 0.9490);fill-opacity:1;"/>
<path d="M169.736 93.6806H167.513V81.146H169.736V93.6806ZM168.136 93.0671H169.124V81.7651H168.136V93.0671ZM168.641 79.1591C167.822 79.1591 167.159 78.5006 167.159 77.6957C167.159 76.8908 167.827 76.2548 168.641 76.2548C169.455 76.2548 170.123 76.8909 170.123 77.6732C170.123 78.5062 169.472 79.1591 168.641 79.1591ZM168.641 76.8683C168.164 76.8683 167.777 77.2398 167.777 77.6901C167.777 78.1404 168.164 78.5344 168.641 78.5344C169.118 78.5344 169.506 78.1629 169.506 77.6676C169.506 77.2286 169.118 76.8683 168.641 76.8683Z" fill="#F2F2F2" style="fill:#F2F2F2;fill:color(display-p3 0.9490 0.9490 0.9490);fill-opacity:1;"/>
<path d="M186.285 87.9114H176.343C176.523 90.4049 178.42 92.0596 181.019 92.0596C182.468 92.0596 183.753 91.5362 184.657 90.4949L185.561 91.5362C184.5 92.8026 182.849 93.4836 180.974 93.4836C177.269 93.4836 174.737 90.9452 174.737 87.4105C174.737 83.8758 177.202 81.3599 180.548 81.3599C183.894 81.3599 186.308 83.8308 186.308 87.4105C186.308 87.5456 186.285 87.7257 186.285 87.9114ZM176.343 86.7126H184.769C184.567 84.3767 182.872 82.7501 180.542 82.7501C178.212 82.7501 176.545 84.3824 176.337 86.7126H176.343Z" fill="#F2F2F2" style="fill:#F2F2F2;fill:color(display-p3 0.9490 0.9490 0.9490);fill-opacity:1;"/>
<path d="M180.975 93.7988C177.123 93.7988 174.429 91.176 174.429 87.4161C174.429 83.6563 177 81.0559 180.542 81.0559C184.085 81.0559 186.611 83.6732 186.611 87.4161C186.611 87.4837 186.611 87.5625 186.6 87.6525C186.594 87.7369 186.588 87.827 186.588 87.917V88.2266H176.68C176.983 90.3486 178.69 91.7557 181.014 91.7557C182.417 91.7557 183.591 91.2548 184.421 90.2979L184.652 90.0277L185.96 91.5362L185.791 91.7388C184.68 93.0671 182.967 93.7988 180.969 93.7988H180.975ZM180.548 81.6751C177.359 81.6751 175.046 84.0897 175.046 87.4161C175.046 90.7426 177.483 93.1797 180.975 93.1797C182.687 93.1797 184.158 92.5999 185.151 91.5362L184.646 90.9564C183.725 91.8683 182.451 92.3692 181.014 92.3692C178.224 92.3692 176.22 90.585 176.029 87.9396L176.006 87.6075H185.988C185.988 87.5399 185.999 87.4724 185.999 87.4161C185.999 84.0334 183.753 81.6751 180.542 81.6751H180.548ZM185.112 87.0221H176.012L176.04 86.6844C176.259 84.1853 178.111 82.4349 180.548 82.4349C182.984 82.4349 184.865 84.1797 185.078 86.6844L185.106 87.0221H185.112ZM176.691 86.403H184.427C184.113 84.388 182.591 83.0541 180.548 83.0541C178.504 83.0541 177.006 84.388 176.691 86.403Z" fill="#F2F2F2" style="fill:#F2F2F2;fill:color(display-p3 0.9490 0.9490 0.9490);fill-opacity:1;"/>
<path d="M189.974 92.0146L190.698 90.7482C191.647 91.4968 193.252 92.0821 194.925 92.0821C197.187 92.0821 198.114 91.311 198.114 90.1346C198.114 87.0333 190.406 89.4761 190.406 84.7651C190.406 82.8176 192.079 81.3655 195.105 81.3655C196.643 81.3655 198.316 81.7989 199.31 82.4743L198.608 83.7632C197.569 83.0371 196.329 82.7444 195.105 82.7444C192.96 82.7444 192.006 83.5831 192.006 84.7144C192.006 87.9339 199.714 85.508 199.714 90.084C199.714 92.144 197.906 93.4836 194.807 93.4836C192.842 93.4836 190.945 92.8476 189.974 92.0089V92.0146Z" fill="#F2F2F2" style="fill:#F2F2F2;fill:color(display-p3 0.9490 0.9490 0.9490);fill-opacity:1;"/>
<path d="M194.808 93.7988C192.871 93.7988 190.844 93.1741 189.772 92.251L189.581 92.0821L190.608 90.281L190.889 90.5005C191.872 91.2716 193.455 91.7726 194.925 91.7726C196.834 91.7726 197.805 91.221 197.805 90.1347C197.805 89.0484 196.666 88.8007 194.808 88.4687C192.714 88.0915 190.103 87.6244 190.103 84.7651C190.103 82.5137 192.068 81.0559 195.111 81.0559C196.733 81.0559 198.451 81.5118 199.49 82.221L199.72 82.3786L198.72 84.2191L198.44 84.0221C197.536 83.3917 196.385 83.0596 195.111 83.0596C193.337 83.0596 192.321 83.6675 192.321 84.7201C192.321 85.8514 193.488 86.1441 195.414 86.4987C197.469 86.8758 200.029 87.343 200.029 90.0897C200.029 92.3748 198.03 93.7988 194.819 93.7988H194.808ZM190.367 91.9358C191.378 92.6844 193.118 93.1741 194.802 93.1741C197.682 93.1741 199.4 92.0202 199.4 90.084C199.4 87.8495 197.407 87.4837 195.29 87.1009C193.522 86.7745 191.692 86.4424 191.692 84.7144C191.692 83.2848 192.966 82.4349 195.094 82.4349C196.363 82.4349 197.525 82.7388 198.485 83.3242L198.889 82.5812C197.94 82.0296 196.458 81.6751 195.094 81.6751C192.427 81.6751 190.704 82.8852 190.704 84.7651C190.704 87.1066 192.837 87.4893 194.903 87.8608C196.627 88.1703 198.412 88.4855 198.412 90.1347C198.412 91.1647 197.805 92.3917 194.92 92.3917C193.432 92.3917 191.883 91.9414 190.794 91.1985L190.373 91.9358H190.367Z" fill="#F2F2F2" style="fill:#F2F2F2;fill:color(display-p3 0.9490 0.9490 0.9490);fill-opacity:1;"/>
</svg>
