<svg width="231" height="51" viewBox="0 0 231 51" fill="none" xmlns="http://www.w3.org/2000/svg">
<path d="M16.2853 3.31071H0V0.00585938H35.869V3.31071H19.5838V50.281H16.2853V3.31071Z" fill="white" style="fill:white;fill-opacity:1;"/>
<path d="M61.9803 36.1288H35.742L29.9912 50.2752H26.4395L47.2494 0H50.5478L71.3577 50.2752H67.806L61.9919 36.1288H61.9803ZM60.7484 33.0427L48.8554 4.02455L37.0257 33.0427H60.7427H60.7484Z" fill="white" style="fill:white;fill-opacity:1;"/>
<path d="M76.3262 0.0057373H79.6247V50.2809H76.3262V0.0057373Z" fill="white" style="fill:white;fill-opacity:1;"/>
<path d="M152.071 0.0057373L136.753 50.2809H133.264L119.241 5.17604L105.155 50.2809H101.667L86.2852 0.0057373H89.7736L103.538 45.2545L117.693 0.0057373H120.859L134.945 45.3236L148.841 0.0057373H152.071Z" fill="white" style="fill:white;fill-opacity:1;"/>
<path d="M179.794 36.1288H153.556L147.805 50.2752H144.253L165.063 0H168.361L189.171 50.2752H185.619L179.805 36.1288H179.794ZM178.562 33.0427L166.669 4.02455L154.839 33.0427H178.556H178.562Z" fill="white" style="fill:white;fill-opacity:1;"/>
<path d="M230.976 0.0057373V50.2809H228.259L197.432 6.61544V50.2809H194.134V0.0057373H196.914L227.677 43.6712V0.0057373H230.976Z" fill="white" style="fill:white;fill-opacity:1;"/>
</svg>
