<svg width="284" height="50" viewBox="0 0 284 50" fill="none" xmlns="http://www.w3.org/2000/svg">
<g clip-path="url(#clip0_1_31)">
<path d="M141.997 0H0V50H141.997V0Z" fill="#D70C18" style="fill:#D70C18;fill:color(display-p3 0.8431 0.0471 0.0941);fill-opacity:1;"/>
<path d="M35.4052 7.77802C36.1196 9.8489 33.2237 10.5283 31.8876 11.0719C31.424 11.2621 30.9659 11.4523 30.5078 11.6643C30.197 11.8111 29.9134 12.0067 29.5916 12.1318C29.2916 12.2513 28.959 12.2948 28.6427 12.3655C27.9282 12.5231 27.2193 12.697 26.5103 12.8873C25.0923 13.2677 23.6853 13.6971 22.2782 14.1048C21.4765 14.3331 20.6639 14.5559 19.8568 14.757C18.9951 14.9636 18.1225 14.7353 17.3808 14.3005C16.6882 13.8928 16.6446 13.246 16.3283 12.5775C16.1701 12.2405 16.1919 11.8763 16.5028 11.6154C16.5846 11.5447 16.9391 11.5665 17.0536 11.5502C17.239 11.523 17.4245 11.4958 17.6099 11.4686C17.9753 11.4088 18.3352 11.3436 18.7061 11.2893C19.0715 11.2349 19.4369 11.1914 19.8077 11.1643C20.2113 11.1371 20.5494 11.2349 20.9039 10.9958C21.2857 10.7403 21.6511 10.4957 22.0655 10.3109C22.8672 9.94673 23.7289 9.7565 24.596 9.62061C24.9014 9.57169 25.2014 9.53365 25.5068 9.49016C25.665 9.46842 25.8395 9.50103 25.9922 9.45211C26.1776 9.39776 26.2267 9.29992 26.3794 9.18035C26.6902 8.94662 27.1156 8.94119 27.421 8.70747C28.2936 8.01174 29.4607 7.74541 30.1642 6.87031C30.6714 6.45722 31.3095 6.28329 31.953 6.25068C32.6293 6.21807 33.3219 6.16915 33.9327 6.50071C34.4999 6.81052 35.198 7.10947 35.4216 7.77258" fill="white" style="fill:white;fill-opacity:1;"/>
<path d="M59.3305 18.5292C59.4232 18.1976 59.4995 17.8498 59.4995 17.5073C59.4995 17.1486 59.2868 16.8388 59.265 16.4855C59.2432 16.2028 59.4068 15.893 59.0741 15.7408C58.3706 15.2462 57.7271 16.0289 57.029 16.1485C56.4564 16.4366 56.0255 16.9312 55.5456 17.3388C55.2129 17.6215 54.7876 17.7737 54.4276 18.0237C54.084 18.2574 53.8114 18.5835 53.4787 18.839C52.7588 19.3771 51.9135 19.7195 51.1663 20.2196C50.5337 20.6381 49.1048 20.475 48.4068 20.3392C47.1415 20.1 46.0344 19.4749 44.8564 18.9966C44.3438 18.7901 43.8039 18.627 43.3348 18.3281C42.7949 17.9856 42.495 17.3769 41.9551 17.0182C41.4697 16.6975 40.9843 16.4094 41.1261 15.7408C41.5624 15.2734 42.1732 15.1864 42.7622 15.0451C44.7746 14.6646 46.9615 14.9581 48.9194 14.2896C50.0265 13.9961 51.1936 13.7352 52.2734 13.3601C52.557 13.2623 52.857 13.121 53.1624 13.0177C53.4896 12.909 53.6968 12.6644 54.0022 12.5122C54.673 12.1752 55.382 12.3709 56.0583 12.1915C57.0072 11.9306 57.9507 11.6426 58.8942 11.3436C59.4395 11.1643 59.9685 10.9414 60.5303 10.811C60.9775 10.7077 61.441 10.7186 61.8337 10.4631C62.7935 9.84346 64.0097 10.1207 65.0296 9.66409C65.8912 9.28362 66.8565 8.90314 67.7728 8.68029C68.2472 8.56071 68.7435 8.50092 69.2289 8.56615C70.0524 8.67485 70.9086 8.8814 71.7267 9.0499C72.4193 9.19665 73.1337 9.29992 73.7554 9.66409C74.0936 9.85977 74.3717 10.1533 74.5408 10.5066C74.5898 10.9577 74.4317 11.3925 74.2354 11.7948C74.1372 11.9959 74.0227 12.197 73.9136 12.3926C73.5646 13.0286 72.9919 13.1753 72.332 13.3493C71.6667 13.5286 70.9795 13.5993 70.3033 13.4362C69.9433 13.3547 69.5779 13.1753 69.2889 12.9416C68.1272 12.2024 66.7093 12.4144 65.4495 12.7351C65.275 12.7786 65.1059 12.8275 64.9368 12.8873C64.7514 12.9471 64.5824 12.9742 64.4297 13.0992C64.2824 13.2134 64.1352 13.3058 63.9715 13.3928C63.5516 13.6156 63.1862 13.8113 63.1862 14.3276C63.1862 14.9418 63.0826 15.643 63.3335 16.2246C63.8897 17.3878 63.1589 18.5509 63.6825 19.7141C63.917 21.2849 64.3806 23.4971 64.326 25.2962C64.326 27.7965 64.5278 30.911 64.9423 33.3188C65.035 33.8732 65.2095 34.4222 65.3404 34.9658C65.4222 35.3082 65.444 35.6615 65.5258 36.0093C65.7004 36.7486 65.8749 37.2867 65.8422 38.0585C65.8094 38.939 65.7004 39.8141 65.5749 40.6838C65.4331 41.6404 65.1386 42.5807 64.1788 43.0047C63.2408 44.032 61.5719 43.8363 60.383 43.4395C59.8704 43.271 59.2323 42.5427 58.9705 42.0807C58.8124 41.798 58.8342 41.4556 58.7633 41.1458C58.5779 40.3468 58.2452 39.5858 58.5179 38.7596C59.1014 32.0741 59.685 25.7311 59.3359 19.0727" fill="white" style="fill:white;fill-opacity:1;"/>
<path d="M26.7121 15.6919C27.2956 16.3333 27.5574 17.0888 27.9064 17.8443C28.2064 18.1705 28.5827 18.1541 28.9699 18.0128C29.3026 17.8878 29.6734 17.8335 29.9625 17.5997C30.2461 17.3715 30.4806 17.0671 30.7532 16.8279C31.3422 16.3007 31.9694 15.8115 32.7329 15.5669C33.1856 15.4202 33.6491 15.3604 34.1236 15.4038C34.8817 15.6974 35.847 15.6702 36.2287 16.4529C36.5778 16.9475 36.4905 17.5291 36.316 18.0509C35.6452 19.4206 33.9818 19.9152 32.8147 20.7849C31.8767 21.2795 30.6278 21.6273 30.1588 22.6764C30.1315 24.3342 31.4731 25.6713 32.5257 26.6279C34.1291 28.2857 35.6179 30.8131 37.7776 31.8024C38.4157 32.0959 38.9447 32.6938 39.4791 33.1286C39.7736 33.3678 40.0736 33.596 40.4008 33.7863C40.7662 33.9983 41.1698 34.0744 41.5243 34.3189C41.8787 34.5581 42.3368 34.6668 42.6204 35.0038C42.735 35.1397 42.9313 35.1669 43.0785 35.243C43.3949 35.4115 43.6076 35.7484 43.9729 35.8191C44.1747 35.8626 44.3547 35.8191 44.5456 35.9006C44.7365 35.9822 44.911 36.1507 45.0855 36.2594C45.8981 36.792 46.7325 37.2921 47.6487 37.6291C48.0032 37.7595 48.3904 37.7758 48.7395 37.9117C49.0776 38.0422 49.2957 38.3085 49.5848 38.5096C50.0811 38.8575 50.7519 39.1727 50.9918 39.7706C51.15 40.162 50.9427 40.749 50.6919 41.0534C50.3319 41.4882 49.672 41.6023 49.143 41.6839C48.6086 41.7654 48.0578 42.0154 47.5178 42.0752C47.2179 42.1078 46.9179 42.1024 46.618 42.1241C45.9799 42.1731 45.3418 42.2383 44.7037 42.3035C43.4112 42.434 42.1187 42.5698 40.8207 42.5427C40.1117 42.5264 39.2773 42.6351 38.6393 42.2655C37.7667 41.7654 36.9704 41.0099 36.1687 40.4011C35.1162 39.6021 34.3963 38.4933 33.6382 37.4062C32.8475 36.2702 32.0949 35.1179 31.2986 33.9874C30.6551 33.0742 30.017 32.0252 29.1444 31.3132C28.839 31.0632 28.6318 30.7099 28.3318 30.449C28.0646 30.2261 27.8301 29.9815 27.601 29.7206C27.1266 29.1934 26.6303 28.7205 25.8886 28.6553C25.6104 29.0684 25.4196 29.5358 25.3105 30.0141C25.2341 30.3403 25.2505 30.6827 25.196 31.0088C25.1469 31.286 25.0433 31.5469 24.9942 31.8187C24.8851 32.4111 24.8742 33.0579 24.5742 33.596C24.3888 33.9222 24.2852 34.1885 24.1979 34.5527C24.1107 34.9168 23.9307 35.3027 23.7889 35.6452C23.7071 35.8409 23.5817 36.0093 23.4944 36.1996C23.3308 36.5474 23.249 36.9171 23.0636 37.2649C22.8618 37.6563 22.6382 38.0313 22.3928 38.3955C21.9019 39.1292 21.3402 39.8087 20.7294 40.4392C20.3858 40.7925 20.0259 41.1349 19.655 41.461C19.366 41.7165 19.1151 42.0046 18.777 42.2057C18.4334 42.4068 18.0462 42.4883 17.6699 42.6079C16.8682 42.8634 16.1429 43.2167 15.2866 43.2601C14.7794 43.2819 14.2832 43.146 13.8414 42.9014C13.6505 42.7981 13.3179 42.8144 13.1052 42.7329C12.8488 42.6405 12.6034 42.5101 12.3907 42.347C12.1453 42.1622 11.8945 41.9611 11.7145 41.7165C11.6163 41.5752 11.5291 41.4338 11.5072 41.2654C11.4527 40.9121 11.5181 40.7925 11.2945 40.4935C11.0055 40.1076 11.1582 39.8522 11.0764 39.4391C11.0328 39.2434 10.9401 39.0477 10.9237 38.8466C10.891 38.5151 11.18 38.2542 11.3654 38.0041C11.5672 37.7324 11.7472 37.4334 12.0908 37.3193C12.4834 37.1888 13.0343 37.2051 13.4324 37.2812C13.6614 37.3301 13.8796 37.4117 14.0759 37.5313C14.3977 37.7269 14.5395 38.0259 14.9431 37.7921C15.2485 37.6182 15.423 37.2921 15.6848 37.0692C15.8811 36.9007 15.9574 36.6181 16.1538 36.4279C16.3719 36.2159 16.5792 35.993 16.77 35.7484C17.1518 35.2484 17.4408 34.6886 17.6372 34.0907C18.6897 32.9873 18.8043 31.4165 18.3952 29.9054C17.3154 29.8185 16.1756 30.3729 15.0412 29.9924C14.2832 29.438 13.1706 29.1499 12.7943 28.3074C12.2708 27.7585 11.8345 27.0573 11.7472 26.2746C12.069 25.3995 13.2906 25.6604 13.9941 25.5191C14.6376 25.2582 15.3957 25.1984 16.0338 24.8777C16.3937 24.6983 16.8246 24.644 17.1954 24.4429C17.5608 24.2472 17.8989 24.008 18.248 23.7798C18.5916 23.5569 18.9406 23.3341 19.3169 23.1601C19.7205 22.9808 20.1622 22.921 20.5603 22.709C20.8985 22.5242 21.2093 22.2687 21.5038 22.0296C22.1201 21.5241 22.5891 20.812 22.4909 19.9913C22.4528 19.7141 22.3219 19.4641 22.3219 19.1597C22.3219 18.8553 22.3819 18.5672 22.4419 18.2737C22.5018 17.9802 22.5727 17.6921 22.6109 17.3932C22.66 16.9475 22.5455 16.6431 22.8182 16.2463C23.0527 15.8985 23.4072 15.605 23.8053 15.4473C24.127 15.3223 24.5252 15.3875 24.8578 15.393C25.1305 15.393 25.4741 15.2027 25.7413 15.2788C25.8995 15.3223 26.014 15.4691 26.194 15.5126C26.3849 15.5615 26.5921 15.5506 26.7557 15.681" fill="white" style="fill:white;fill-opacity:1;"/>
<path d="M87.177 30.1935L87.0788 30.2098C87.0079 29.9706 86.8607 29.7804 86.6425 29.6445C86.4244 29.5086 86.1571 29.4434 85.8299 29.4434C85.3391 29.4434 84.9573 29.6173 84.6847 29.9598C84.412 30.3022 84.2756 30.786 84.2756 31.4056C84.2756 32.0741 84.4174 32.5796 84.6956 32.9329C84.9737 33.2862 85.3773 33.4602 85.9063 33.4602C86.1353 33.4602 86.3644 33.4167 86.5989 33.3243C86.8279 33.2373 87.0406 33.1123 87.2315 32.9492L87.3133 32.971L87.1552 33.5417C86.937 33.645 86.708 33.7265 86.4735 33.7754C86.2389 33.8298 85.9881 33.8515 85.7263 33.8515C84.9301 33.8515 84.3084 33.6395 83.8611 33.2101C83.4194 32.7807 83.1958 32.1883 83.1958 31.4219C83.1958 30.699 83.4358 30.1174 83.9157 29.6771C84.3902 29.2423 85.0337 29.0249 85.8354 29.0249C86.0917 29.0249 86.3426 29.0521 86.588 29.1064C86.8389 29.1608 87.0952 29.2477 87.3515 29.3619C87.3133 29.4869 87.2751 29.6174 87.2479 29.7532C87.2152 29.8891 87.1933 30.0359 87.177 30.1881" fill="white" style="fill:white;fill-opacity:1;"/>
<path d="M88.6604 32.1448C88.6604 32.6612 88.7149 33.0253 88.8185 33.2319C88.9276 33.4384 89.1076 33.5471 89.3584 33.5471C89.6093 33.5471 89.7947 33.4438 89.9038 33.2319C90.0129 33.0199 90.0674 32.6612 90.0674 32.1448C90.0674 31.6284 90.0129 31.2643 89.9038 31.0523C89.7947 30.8403 89.6148 30.7316 89.3584 30.7316C89.1021 30.7316 88.9276 30.8349 88.8185 31.0468C88.7149 31.2588 88.6604 31.623 88.6604 32.1448ZM87.6569 32.1448C87.6569 31.6013 87.8096 31.1827 88.1095 30.8784C88.4149 30.5794 88.8294 30.4272 89.3693 30.4272C89.9092 30.4272 90.3346 30.574 90.6291 30.8729C90.9236 31.1719 91.0709 31.5958 91.0709 32.1448C91.0709 32.6938 90.9182 33.1014 90.6182 33.4004C90.3183 33.6993 89.8983 33.8515 89.3584 33.8515C88.8185 33.8515 88.3986 33.6993 88.0986 33.4004C87.7987 33.1014 87.6514 32.6829 87.6514 32.1448" fill="white" style="fill:white;fill-opacity:1;"/>
<path d="M91.6762 33.7645C91.6926 33.4058 91.7035 33.0851 91.7089 32.8133C91.7144 32.5361 91.7198 32.3133 91.7198 32.1394C91.7198 31.9654 91.7198 31.7371 91.7089 31.4708C91.7035 31.199 91.6926 30.8838 91.6762 30.5196C91.7526 30.5305 91.8235 30.5359 91.8998 30.5414C91.9762 30.5468 92.0634 30.5522 92.1507 30.5522C92.2379 30.5522 92.3306 30.5522 92.407 30.5414C92.4834 30.5414 92.5597 30.5305 92.6251 30.5196V30.9708C92.7669 30.786 92.9142 30.6555 93.0778 30.574C93.2414 30.4924 93.4214 30.449 93.6286 30.449C93.8577 30.449 94.054 30.5033 94.2122 30.612C94.3758 30.7153 94.4958 30.8784 94.5721 31.0795C94.7084 30.862 94.8611 30.7044 95.0357 30.6011C95.2156 30.4979 95.4229 30.449 95.6574 30.449C95.821 30.449 95.9682 30.4761 96.0991 30.5305C96.2355 30.5848 96.3445 30.6664 96.4373 30.7751C96.53 30.8784 96.5954 31.0197 96.6336 31.1882C96.6718 31.3567 96.6881 31.6665 96.6881 32.1122V32.5361C96.6881 32.7264 96.6936 32.9221 96.699 33.1286C96.7045 33.3297 96.7154 33.5471 96.7263 33.7754C96.6281 33.7645 96.5354 33.7537 96.4536 33.7482C96.3718 33.7428 96.29 33.7374 96.2137 33.7374C96.1373 33.7374 96.0555 33.7374 95.9792 33.7482C95.9028 33.7591 95.8101 33.7645 95.7174 33.7754C95.7392 33.4765 95.7556 33.2047 95.7665 32.9547C95.7774 32.6992 95.7828 32.4655 95.7828 32.2481C95.7828 31.7371 95.7446 31.411 95.6628 31.2534C95.581 31.0958 95.4392 31.0197 95.2375 31.0197C95.0357 31.0197 94.8939 31.0958 94.8066 31.2534C94.7248 31.411 94.6812 31.6882 94.6812 32.085V33.1612C94.6812 33.2645 94.6866 33.4493 94.703 33.7102C94.703 33.7428 94.703 33.7645 94.703 33.7754C94.6103 33.7645 94.5176 33.7537 94.4358 33.7482C94.354 33.7428 94.2722 33.7374 94.1958 33.7374C94.114 33.7374 94.0376 33.7374 93.9558 33.7482C93.874 33.7591 93.7868 33.7645 93.6886 33.7754C93.705 33.5199 93.7213 33.2754 93.7268 33.0362C93.7377 32.797 93.7431 32.5742 93.7431 32.3622C93.7431 31.7698 93.705 31.3947 93.6286 31.2425C93.5523 31.0903 93.4105 31.0142 93.2032 31.0142C92.996 31.0142 92.8651 31.0903 92.7778 31.2425C92.6906 31.4001 92.647 31.6774 92.647 32.0741V33.1503C92.647 33.2536 92.6579 33.4438 92.6688 33.7047C92.6688 33.7374 92.6688 33.7537 92.6688 33.77C92.587 33.7591 92.5052 33.7482 92.4234 33.7428C92.3416 33.7374 92.2597 33.7319 92.1834 33.7319C92.1125 33.7319 92.0307 33.7319 91.9543 33.7428C91.8725 33.7482 91.7853 33.7591 91.6871 33.77" fill="white" style="fill:white;fill-opacity:1;"/>
<path d="M97.588 33.7645C97.6044 33.4058 97.6153 33.0851 97.6207 32.8133C97.6262 32.5361 97.6316 32.3133 97.6316 32.1394C97.6316 31.9654 97.6316 31.7371 97.6207 31.4708C97.6153 31.199 97.6044 30.8838 97.588 30.5196C97.6644 30.5305 97.7353 30.5359 97.8116 30.5414C97.888 30.5468 97.9752 30.5522 98.0625 30.5522C98.1497 30.5522 98.2425 30.5522 98.3188 30.5414C98.3952 30.5414 98.4715 30.5305 98.5369 30.5196V30.9708C98.6787 30.786 98.826 30.6555 98.9896 30.574C99.1532 30.4924 99.3332 30.449 99.5404 30.449C99.7695 30.449 99.9658 30.5033 100.124 30.612C100.288 30.7153 100.408 30.8784 100.484 31.0795C100.62 30.862 100.773 30.7044 100.947 30.6011C101.122 30.4979 101.335 30.449 101.569 30.449C101.733 30.449 101.88 30.4761 102.011 30.5305C102.147 30.5848 102.256 30.6664 102.349 30.7751C102.442 30.8784 102.507 31.0197 102.545 31.1882C102.584 31.3567 102.6 31.6665 102.6 32.1122V32.5361C102.6 32.7264 102.605 32.9221 102.611 33.1286C102.616 33.3297 102.627 33.5471 102.638 33.7754C102.54 33.7645 102.447 33.7537 102.365 33.7482C102.284 33.7428 102.202 33.7374 102.125 33.7374C102.049 33.7374 101.967 33.7374 101.891 33.7482C101.809 33.7537 101.722 33.7645 101.629 33.7754C101.651 33.4765 101.667 33.2047 101.678 32.9547C101.689 32.6992 101.695 32.4655 101.695 32.2481C101.695 31.7371 101.656 31.411 101.575 31.2534C101.493 31.0958 101.351 31.0197 101.149 31.0197C100.947 31.0197 100.806 31.0958 100.718 31.2534C100.637 31.411 100.593 31.6882 100.593 32.085V33.1612C100.593 33.2645 100.598 33.4493 100.615 33.7102C100.615 33.7428 100.615 33.7645 100.615 33.7754C100.522 33.7645 100.429 33.7537 100.348 33.7482C100.266 33.7428 100.184 33.7374 100.108 33.7374C100.026 33.7374 99.9494 33.7374 99.8676 33.7482C99.7858 33.7591 99.6986 33.7645 99.6004 33.7754C99.6168 33.5199 99.6331 33.2754 99.6386 33.0362C99.6495 32.797 99.655 32.5742 99.655 32.3622C99.655 31.7698 99.6168 31.3947 99.5404 31.2425C99.4641 31.0903 99.3223 31.0142 99.115 31.0142C98.9078 31.0142 98.7769 31.0903 98.6897 31.2425C98.6024 31.4001 98.5588 31.6774 98.5588 32.0741V33.1503C98.5588 33.2536 98.5697 33.4438 98.5806 33.7047C98.5806 33.7374 98.5806 33.7537 98.5806 33.77C98.4988 33.7591 98.417 33.7482 98.3352 33.7428C98.2534 33.7374 98.1716 33.7319 98.0952 33.7319C98.0243 33.7319 97.9425 33.7319 97.8661 33.7428C97.7843 33.7482 97.6971 33.7591 97.5989 33.77" fill="white" style="fill:white;fill-opacity:1;"/>
<path d="M104.28 32.1448C104.28 32.6612 104.334 33.0253 104.443 33.2319C104.552 33.4384 104.732 33.5471 104.983 33.5471C105.234 33.5471 105.419 33.4438 105.529 33.2319C105.638 33.0199 105.692 32.6612 105.692 32.1448C105.692 31.6284 105.638 31.2643 105.529 31.0523C105.419 30.8403 105.24 30.7316 104.983 30.7316C104.727 30.7316 104.552 30.8349 104.443 31.0468C104.34 31.2588 104.28 31.623 104.28 32.1448ZM103.276 32.1448C103.276 31.6013 103.429 31.1827 103.729 30.8784C104.034 30.5794 104.449 30.4272 104.989 30.4272C105.529 30.4272 105.954 30.574 106.248 30.8729C106.543 31.1719 106.69 31.5958 106.69 32.1448C106.69 32.6938 106.538 33.1014 106.238 33.4004C105.938 33.6993 105.518 33.8515 104.978 33.8515C104.438 33.8515 104.018 33.6993 103.718 33.4004C103.418 33.1014 103.271 32.6829 103.271 32.1448" fill="white" style="fill:white;fill-opacity:1;"/>
<path d="M107.296 33.7645C107.312 33.4656 107.328 33.183 107.334 32.9166C107.345 32.6503 107.35 32.3948 107.35 32.1448C107.35 31.8676 107.35 31.5958 107.334 31.3241C107.323 31.0523 107.312 30.7805 107.296 30.5142C107.366 30.5251 107.443 30.5305 107.519 30.5359C107.595 30.5414 107.677 30.5468 107.765 30.5468C107.852 30.5468 107.934 30.5468 108.01 30.5359C108.086 30.5359 108.157 30.5251 108.223 30.5142V30.9816C108.364 30.7968 108.517 30.6609 108.692 30.574C108.866 30.487 109.063 30.4381 109.275 30.4381C109.444 30.4381 109.597 30.4653 109.733 30.5196C109.87 30.5794 109.99 30.6609 110.082 30.7697C110.159 30.8566 110.213 30.9653 110.246 31.0958C110.279 31.2262 110.295 31.4436 110.295 31.7589C110.295 31.8024 110.295 31.922 110.29 32.1068C110.29 32.297 110.29 32.4601 110.29 32.6068C110.29 32.8188 110.29 33.0199 110.301 33.2047C110.311 33.3949 110.322 33.5743 110.339 33.7537C110.246 33.7428 110.153 33.7319 110.071 33.7265C109.99 33.7211 109.908 33.7156 109.831 33.7156C109.755 33.7156 109.673 33.7156 109.597 33.7265C109.515 33.7319 109.428 33.7428 109.33 33.7537C109.346 33.5634 109.357 33.3297 109.368 33.0634C109.379 32.7916 109.384 32.4981 109.384 32.1665C109.384 31.6719 109.346 31.3567 109.27 31.2154C109.188 31.074 109.046 31.0034 108.839 31.0034C108.632 31.0034 108.484 31.0903 108.397 31.2588C108.31 31.4273 108.261 31.7154 108.261 32.1231C108.261 32.3133 108.266 32.5416 108.272 32.8134C108.283 33.0851 108.288 33.4004 108.299 33.7537C108.217 33.7428 108.13 33.7319 108.048 33.7265C107.966 33.7211 107.885 33.7156 107.808 33.7156C107.732 33.7156 107.655 33.7156 107.574 33.7265C107.492 33.7319 107.405 33.7428 107.312 33.7537" fill="white" style="fill:white;fill-opacity:1;"/>
<path d="M112.177 33.7645C111.98 33.0199 111.762 32.2589 111.528 31.4871C111.293 30.7153 111.031 29.9272 110.753 29.1227C110.84 29.1336 110.933 29.139 111.026 29.1445C111.119 29.1445 111.222 29.1499 111.331 29.1499C111.44 29.1499 111.539 29.1499 111.637 29.1445C111.729 29.139 111.817 29.1336 111.904 29.1227C112.035 29.688 112.177 30.2587 112.329 30.824C112.482 31.3893 112.646 31.9546 112.82 32.5144C113.033 31.8948 113.24 31.3132 113.425 30.7533C113.616 30.1989 113.802 29.6554 113.976 29.1227C114.031 29.1336 114.085 29.139 114.14 29.1445C114.194 29.1445 114.254 29.1499 114.32 29.1499C114.385 29.1499 114.451 29.1499 114.505 29.1445C114.565 29.139 114.614 29.1336 114.669 29.1227C114.833 29.6608 115.002 30.2044 115.187 30.7642C115.372 31.3186 115.563 31.8893 115.765 32.4709C115.956 31.9274 116.136 31.373 116.3 30.8186C116.463 30.2642 116.616 29.6989 116.758 29.1282C116.807 29.139 116.85 29.1445 116.905 29.1499C116.954 29.1499 117.009 29.1553 117.069 29.1553C117.129 29.1553 117.183 29.1553 117.238 29.1499C117.287 29.1445 117.336 29.139 117.385 29.1282C117.145 29.813 116.894 30.5468 116.632 31.3132C116.376 32.085 116.109 32.9058 115.836 33.77C115.771 33.7591 115.711 33.7482 115.651 33.7428C115.591 33.7374 115.536 33.7319 115.482 33.7319C115.432 33.7319 115.378 33.7319 115.318 33.7428C115.263 33.7482 115.198 33.7591 115.132 33.77C114.974 33.2427 114.805 32.7101 114.62 32.1611C114.434 31.6176 114.238 31.0523 114.031 30.4816C113.829 30.9979 113.627 31.5306 113.436 32.0796C113.24 32.6285 113.049 33.1938 112.864 33.77C112.804 33.7591 112.744 33.7482 112.684 33.7428C112.624 33.7374 112.569 33.7319 112.515 33.7319C112.46 33.7319 112.406 33.7319 112.351 33.7428C112.297 33.7537 112.237 33.7591 112.171 33.77" fill="white" style="fill:white;fill-opacity:1;"/>
<path d="M118.53 31.8132H119.686C119.686 31.8132 119.686 31.7589 119.692 31.7208C119.692 31.6828 119.692 31.661 119.692 31.6502C119.692 31.3404 119.648 31.1121 119.555 30.9544C119.468 30.7968 119.332 30.7207 119.157 30.7207C118.956 30.7207 118.803 30.8131 118.694 30.9925C118.585 31.1719 118.53 31.4273 118.53 31.7589V31.8187V31.8132ZM118.53 32.1502C118.53 32.5416 118.623 32.8514 118.814 33.0797C118.999 33.308 119.255 33.4275 119.572 33.4275C119.73 33.4275 119.877 33.4004 120.024 33.346C120.172 33.2917 120.308 33.2101 120.444 33.1069L120.51 33.1558L120.363 33.5417C120.215 33.6395 120.052 33.7211 119.861 33.77C119.67 33.8189 119.457 33.8461 119.234 33.8461C118.705 33.8461 118.29 33.6884 117.985 33.3786C117.685 33.0688 117.532 32.634 117.532 32.085C117.532 31.5904 117.685 31.1882 117.979 30.8838C118.279 30.5794 118.677 30.4272 119.168 30.4272C119.632 30.4272 119.992 30.5577 120.243 30.8186C120.493 31.0795 120.619 31.4491 120.619 31.9328C120.619 31.9926 120.619 32.0361 120.619 32.0687C120.619 32.1013 120.619 32.1285 120.613 32.1502H118.525H118.53Z" fill="white" style="fill:white;fill-opacity:1;"/>
<path d="M122.855 31.9763C122.539 32.0415 122.315 32.1394 122.173 32.2698C122.031 32.4003 121.966 32.5796 121.966 32.8133C121.966 33.009 122.004 33.1558 122.07 33.2536C122.14 33.3514 122.25 33.4004 122.386 33.4004C122.539 33.4004 122.653 33.346 122.735 33.2373C122.817 33.1286 122.855 32.971 122.855 32.7699V31.9763ZM122.888 33.3406C122.789 33.5036 122.664 33.6287 122.5 33.7211C122.342 33.808 122.162 33.8569 121.96 33.8569C121.671 33.8569 121.448 33.77 121.284 33.6015C121.121 33.433 121.044 33.2047 121.044 32.9112C121.044 32.6938 121.099 32.5198 121.219 32.3785C121.333 32.2372 121.513 32.1285 121.759 32.047C121.84 32.0198 121.955 31.9817 122.102 31.9383C122.457 31.835 122.702 31.7371 122.833 31.6447C122.833 31.6284 122.833 31.6121 122.839 31.6013V31.5306C122.839 31.3241 122.779 31.161 122.664 31.036C122.549 30.911 122.391 30.8566 122.195 30.8566C122.042 30.8566 121.9 30.9001 121.775 30.9871C121.65 31.074 121.535 31.2045 121.426 31.3838C121.393 31.2806 121.366 31.1936 121.344 31.1284C121.322 31.0632 121.301 31.0034 121.279 30.949C121.481 30.7751 121.682 30.6446 121.879 30.5577C122.075 30.4761 122.282 30.4327 122.495 30.4327C122.904 30.4327 123.215 30.5251 123.433 30.7153C123.651 30.9055 123.76 31.1719 123.76 31.5197V31.5523L123.738 32.7373V32.8677C123.738 33.1449 123.771 33.3188 123.831 33.4004C123.891 33.4819 124.011 33.5199 124.186 33.5199H124.207V33.6884C124.093 33.7374 123.973 33.7754 123.847 33.7972C123.722 33.8243 123.607 33.8352 123.493 33.8352C123.329 33.8352 123.193 33.7917 123.089 33.7102C122.986 33.6287 122.915 33.5036 122.882 33.346" fill="white" style="fill:white;fill-opacity:1;"/>
<path d="M124.676 33.7645C124.693 33.3786 124.709 32.9819 124.715 32.5688C124.725 32.1502 124.731 31.7045 124.731 31.2317C124.731 30.7262 124.725 30.2696 124.715 29.8511C124.704 29.4326 124.693 29.0412 124.676 28.6716C124.785 28.6879 124.878 28.7042 124.955 28.7096C125.031 28.7205 125.107 28.7205 125.178 28.7205C125.249 28.7205 125.331 28.7151 125.413 28.7096C125.494 28.6988 125.587 28.6879 125.691 28.6716C125.674 29.0575 125.658 29.4543 125.653 29.8674C125.642 30.2859 125.636 30.7316 125.636 31.2045C125.636 31.71 125.642 32.172 125.653 32.5851C125.664 33.0036 125.674 33.3949 125.691 33.7645C125.614 33.7482 125.533 33.7374 125.451 33.7319C125.369 33.7211 125.276 33.7156 125.189 33.7156C125.102 33.7156 125.009 33.7211 124.922 33.7319C124.84 33.7374 124.753 33.7482 124.671 33.7645" fill="white" style="fill:white;fill-opacity:1;"/>
<path d="M126.629 30.8947H126.503C126.411 30.8947 126.34 30.8947 126.296 30.8947C126.247 30.8947 126.209 30.8947 126.165 30.8947C126.171 30.8729 126.176 30.8457 126.176 30.824C126.176 30.8023 126.176 30.7697 126.176 30.7207C126.176 30.6718 126.176 30.6338 126.171 30.612C126.171 30.5849 126.171 30.5631 126.165 30.5468C126.176 30.5468 126.187 30.5468 126.209 30.5522C126.367 30.5685 126.487 30.574 126.552 30.574H126.629C126.629 30.5414 126.629 30.5088 126.634 30.4707V30.3076C126.634 30.2207 126.634 30.1228 126.629 30.025C126.623 29.9272 126.618 29.8022 126.607 29.6554C126.765 29.5956 126.918 29.5304 127.071 29.4652C127.223 29.3999 127.371 29.3293 127.518 29.2586L127.589 29.313C127.572 29.5739 127.567 29.7859 127.561 29.9598C127.551 30.1337 127.551 30.2642 127.551 30.3566V30.5685C127.676 30.5685 127.79 30.5685 127.9 30.5631C128.003 30.5577 128.112 30.5522 128.216 30.5414C128.205 30.5903 128.205 30.6283 128.2 30.6501V30.7153C128.2 30.7533 128.2 30.8023 128.21 30.8729C128.216 30.8838 128.216 30.8892 128.216 30.8947C128.161 30.8947 128.09 30.8947 128.003 30.8947C127.916 30.8947 127.763 30.8947 127.54 30.8947C127.54 30.9273 127.54 30.9816 127.54 31.0523C127.523 31.5197 127.518 31.8567 127.518 32.0578V32.3296C127.518 32.8514 127.545 33.1721 127.594 33.2971C127.643 33.4221 127.747 33.4819 127.889 33.4819C127.965 33.4819 128.096 33.4547 128.281 33.4112H128.287V33.6613C128.134 33.7265 127.998 33.7754 127.872 33.808C127.741 33.8406 127.621 33.8569 127.501 33.8569C127.212 33.8569 126.989 33.7809 126.836 33.6232C126.683 33.471 126.607 33.2427 126.607 32.9547C126.607 32.9438 126.607 32.7481 126.618 32.3731C126.629 31.998 126.629 31.623 126.629 31.2588V30.9001V30.8947Z" fill="white" style="fill:white;fill-opacity:1;"/>
<path d="M128.718 33.7645C128.739 33.5254 128.75 33.2319 128.761 32.8786C128.767 32.5253 128.772 32.0143 128.772 31.3458C128.772 30.6392 128.767 30.0848 128.761 29.688C128.75 29.2912 128.739 28.9488 128.718 28.6662C128.81 28.6825 128.898 28.6988 128.979 28.7042C129.061 28.7151 129.137 28.7205 129.214 28.7205C129.29 28.7205 129.372 28.7205 129.454 28.7042C129.536 28.6933 129.623 28.6825 129.71 28.6662C129.688 28.851 129.672 29.0521 129.656 29.2641C129.645 29.476 129.639 29.7043 129.639 29.9489V31.0034C129.765 30.8131 129.912 30.6718 130.086 30.5794C130.261 30.487 130.463 30.4381 130.686 30.4381C130.85 30.4381 131.003 30.4653 131.139 30.5196C131.275 30.5794 131.39 30.6609 131.483 30.7696C131.564 30.8621 131.619 30.9708 131.652 31.1066C131.684 31.2425 131.701 31.4599 131.701 31.7589C131.701 31.8024 131.701 31.9219 131.701 32.1068C131.701 32.297 131.701 32.4601 131.701 32.6068C131.701 32.8568 131.701 33.0688 131.712 33.2536C131.717 33.433 131.728 33.6015 131.739 33.7591C131.646 33.7482 131.559 33.7374 131.472 33.7319C131.384 33.7265 131.308 33.7211 131.237 33.7211C131.161 33.7211 131.079 33.7211 131.003 33.7319C130.921 33.7374 130.834 33.7482 130.735 33.7591C130.752 33.5689 130.763 33.3351 130.774 33.0688C130.784 32.797 130.784 32.5035 130.784 32.172C130.784 31.6774 130.746 31.3621 130.67 31.2208C130.594 31.0795 130.452 31.0088 130.245 31.0088C130.037 31.0088 129.89 31.0958 129.797 31.2643C129.71 31.4328 129.661 31.7208 129.661 32.1285C129.661 32.3405 129.661 32.5851 129.672 32.8623C129.683 33.1395 129.694 33.4384 129.705 33.7645C129.617 33.7537 129.53 33.7428 129.448 33.7374C129.367 33.7319 129.285 33.7265 129.208 33.7265C129.132 33.7265 129.05 33.7265 128.974 33.7374C128.892 33.7428 128.805 33.7537 128.712 33.7645" fill="white" style="fill:white;fill-opacity:1;"/>
<path d="M83.3376 41.3469C83.3921 40.999 83.4412 40.6946 83.4794 40.4446C83.523 40.1946 83.5448 40.0152 83.5612 39.9119L83.9975 36.7051C84.0411 36.7159 84.0902 36.7214 84.1393 36.7268C84.1884 36.7268 84.2374 36.7323 84.292 36.7323C84.3465 36.7323 84.4011 36.7323 84.4501 36.7268C84.4992 36.7214 84.5483 36.7159 84.5974 36.7051C84.8428 37.2486 85.0991 37.7813 85.3609 38.3085C85.6227 38.8357 85.8954 39.3575 86.1735 39.8793C86.4407 39.3793 86.708 38.8629 86.9643 38.3357C87.2261 37.8085 87.4769 37.2649 87.7278 36.7051C87.7769 36.7159 87.826 36.7214 87.8805 36.7268C87.9296 36.7268 87.9841 36.7323 88.0441 36.7323C88.1041 36.7323 88.1532 36.7323 88.2077 36.7268C88.2623 36.7214 88.3059 36.7159 88.355 36.7051L88.7476 39.9554C88.7913 40.3142 88.824 40.5968 88.8567 40.7979C88.8894 41.0045 88.9221 41.1893 88.9603 41.3469C88.8512 41.336 88.7476 41.3306 88.6549 41.3197C88.5622 41.3143 88.4695 41.3088 88.3822 41.3088C88.3004 41.3088 88.2077 41.3088 88.1095 41.3197C88.0168 41.3251 87.9187 41.336 87.8205 41.3469C87.8205 41.3306 87.815 41.3088 87.8096 41.2762C87.7878 40.8034 87.7714 40.5044 87.7605 40.3903L87.5369 38.227C87.2806 38.7107 87.0243 39.2162 86.7734 39.7326C86.5171 40.2489 86.2553 40.787 85.9881 41.3469C85.9717 41.3415 85.9554 41.336 85.939 41.336C85.9172 41.336 85.8899 41.336 85.8463 41.336C85.8081 41.336 85.7808 41.336 85.7645 41.336C85.7481 41.336 85.7317 41.3415 85.7154 41.3469C85.4482 40.7925 85.1918 40.2653 84.941 39.7652C84.6846 39.2651 84.4392 38.7868 84.1938 38.3357L84.0302 39.7489V39.8032C83.9429 40.537 83.8993 41.0534 83.8993 41.3469C83.8448 41.336 83.7957 41.3251 83.7521 41.3197C83.703 41.3143 83.6648 41.3088 83.6212 41.3088C83.5775 41.3088 83.5339 41.3088 83.4903 41.3197C83.4467 41.3251 83.3976 41.336 83.343 41.3469" fill="white" style="fill:white;fill-opacity:1;"/>
<path d="M91.2672 39.5586C90.9509 39.6239 90.7273 39.7217 90.5855 39.8522C90.4437 39.9826 90.3782 40.162 90.3782 40.3957C90.3782 40.5914 90.4164 40.7381 90.4819 40.836C90.5528 40.9338 90.6618 40.9827 90.7982 40.9827C90.9509 40.9827 91.0654 40.9284 91.1472 40.8197C91.229 40.7109 91.2672 40.5533 91.2672 40.3522V39.5586ZM91.2944 40.9175C91.1963 41.0806 91.0709 41.2056 90.9072 41.298C90.7491 41.3849 90.5691 41.4339 90.3673 41.4339C90.0783 41.4339 89.8547 41.3469 89.6911 41.1784C89.5275 41.0099 89.4511 40.7816 89.4511 40.4881C89.4511 40.2707 89.5056 40.0968 89.6256 39.9554C89.7402 39.8141 89.9201 39.7054 90.1655 39.6239C90.2473 39.5967 90.3619 39.5586 90.5091 39.5152C90.8636 39.4119 91.109 39.3141 91.2399 39.2217C91.2399 39.2054 91.2399 39.189 91.2454 39.1782V39.1075C91.2454 38.901 91.1854 38.7379 91.0709 38.6129C90.9563 38.4879 90.7982 38.4335 90.6018 38.4335C90.4491 38.4335 90.3073 38.477 90.1819 38.564C90.0565 38.6509 89.9419 38.7814 89.8329 38.9608C89.8001 38.8575 89.7729 38.7705 89.7511 38.7053C89.7292 38.6401 89.7074 38.5803 89.6856 38.5259C89.8874 38.352 90.0892 38.2215 90.2855 38.1346C90.4819 38.0531 90.6891 38.0096 90.9018 38.0096C91.3108 38.0096 91.6217 38.102 91.8398 38.2922C92.058 38.4824 92.167 38.7488 92.167 39.0966V39.1293L92.1452 40.3142V40.4446C92.1452 40.7218 92.1779 40.8958 92.2379 40.9773C92.2979 41.0588 92.4179 41.0969 92.5924 41.0969H92.6142V41.2654C92.4997 41.3143 92.3797 41.3523 92.2543 41.3741C92.1289 41.4012 92.0143 41.4121 91.8998 41.4121C91.7362 41.4121 91.5999 41.3686 91.4962 41.2871C91.3926 41.2056 91.3217 41.0806 91.289 40.9229" fill="white" style="fill:white;fill-opacity:1;"/>
<path d="M93.8577 39.0858C93.8577 39.363 93.9014 39.5695 93.9832 39.7C94.065 39.8304 94.1904 39.8956 94.3704 39.8956C94.5503 39.8956 94.6812 39.825 94.763 39.6891C94.8394 39.5532 94.883 39.3249 94.883 39.0097C94.883 38.7651 94.8394 38.5803 94.7576 38.4607C94.6758 38.3411 94.5558 38.2813 94.3867 38.2813C94.2177 38.2813 94.0922 38.352 93.9995 38.4879C93.9068 38.6292 93.8577 38.8249 93.8577 39.0803M93.8577 41.5426C93.7487 41.6023 93.6614 41.6839 93.5959 41.7926C93.536 41.8959 93.5032 42.0154 93.5032 42.1513C93.5032 42.3796 93.5796 42.5698 93.7377 42.7057C93.8959 42.847 94.1086 42.9177 94.3704 42.9177C94.6812 42.9177 94.9212 42.8525 95.0957 42.7275C95.2702 42.597 95.3575 42.4231 95.3575 42.2002C95.3575 41.9991 95.2975 41.8524 95.183 41.7491C95.0684 41.6513 94.8885 41.5969 94.6376 41.5806L93.8523 41.5371L93.8577 41.5426ZM93.5578 41.5045V41.4502C93.4269 41.4067 93.3233 41.3415 93.2415 41.249C93.1651 41.1566 93.1269 41.0425 93.1269 40.9121C93.1269 40.7599 93.1869 40.6185 93.3015 40.4881C93.416 40.3576 93.5905 40.2435 93.8086 40.1511V40.0696C93.5141 40.0152 93.296 39.9011 93.1487 39.738C93.0015 39.575 92.9306 39.363 92.9306 39.1021C92.9306 38.7705 93.056 38.5096 93.3124 38.3085C93.5687 38.1074 93.9068 38.0096 94.3376 38.0096C94.3813 38.0096 94.5285 38.0204 94.7903 38.0367C95.0575 38.0585 95.2975 38.0639 95.5211 38.0639C95.6138 38.0639 95.712 38.0639 95.8101 38.0585C95.9138 38.0585 96.0228 38.0476 96.1319 38.0422V38.3737C95.9901 38.3683 95.8047 38.3574 95.5647 38.352C95.5156 38.352 95.4829 38.352 95.4611 38.352C95.5756 38.4281 95.6683 38.5205 95.7283 38.6346C95.7883 38.7488 95.8156 38.8901 95.8156 39.0423C95.8156 39.3956 95.6792 39.6728 95.412 39.8685C95.1448 40.0641 94.763 40.1674 94.2831 40.1674H94.1686C94.0813 40.1783 94.005 40.2109 93.9559 40.2707C93.9014 40.3305 93.8741 40.4066 93.8741 40.4935C93.8741 40.7001 94.1958 40.8142 94.8394 40.836H94.8776C94.8776 40.836 94.9266 40.8414 94.9594 40.8414C95.3738 40.8631 95.6411 40.9066 95.7611 40.9718C95.8974 41.0534 96.001 41.1621 96.0774 41.298C96.1483 41.4339 96.1864 41.5969 96.1864 41.7763C96.1864 42.1948 96.0119 42.5372 95.6683 42.8036C95.3193 43.0699 94.8721 43.2058 94.3158 43.2058C93.8632 43.2058 93.5032 43.1297 93.2524 42.9721C92.996 42.8144 92.8706 42.6025 92.8706 42.3307C92.8706 42.1296 92.9251 41.9611 93.0451 41.8306C93.1597 41.6948 93.3342 41.5915 93.5687 41.5099" fill="white" style="fill:white;fill-opacity:1;"/>
<path d="M98.2097 39.5586C97.8934 39.6239 97.6698 39.7217 97.528 39.8522C97.3862 39.9826 97.3208 40.162 97.3208 40.3957C97.3208 40.5914 97.359 40.7381 97.4244 40.836C97.4953 40.9338 97.6044 40.9827 97.7407 40.9827C97.8934 40.9827 98.0079 40.9284 98.0898 40.8197C98.1716 40.7109 98.2097 40.5533 98.2097 40.3522V39.5586ZM98.2425 40.9175C98.1443 41.0806 98.0188 41.2056 97.8552 41.298C97.6971 41.3849 97.5171 41.4339 97.3153 41.4339C97.0263 41.4339 96.8027 41.3469 96.6391 41.1784C96.4755 41.0099 96.3991 40.7816 96.3991 40.4881C96.3991 40.2707 96.4536 40.0968 96.5736 39.9554C96.6882 39.8141 96.8681 39.7054 97.1135 39.6239C97.1954 39.5967 97.3099 39.5586 97.4571 39.5152C97.8116 39.4119 98.057 39.3141 98.1879 39.2217C98.1879 39.2054 98.1879 39.189 98.1934 39.1782V39.1075C98.1934 38.901 98.1334 38.7379 98.0189 38.6129C97.9043 38.4879 97.7462 38.4335 97.5498 38.4335C97.3971 38.4335 97.2553 38.477 97.1299 38.564C97.0045 38.6509 96.8899 38.7814 96.7809 38.9608C96.7482 38.8575 96.7209 38.7705 96.6991 38.7053C96.6772 38.6401 96.6554 38.5803 96.6336 38.5259C96.8354 38.352 97.0372 38.2215 97.2335 38.1346C97.4299 38.0531 97.6371 38.0096 97.8498 38.0096C98.2588 38.0096 98.5697 38.102 98.7878 38.2922C99.006 38.4824 99.115 38.7488 99.115 39.0966V39.1293L99.0932 40.3142V40.4446C99.0932 40.7218 99.1259 40.8958 99.1859 40.9773C99.2459 41.0588 99.3659 41.0969 99.5404 41.0969H99.5622V41.2654C99.4477 41.3143 99.3277 41.3523 99.2023 41.3741C99.0769 41.4012 98.9623 41.4121 98.8478 41.4121C98.6842 41.4121 98.5479 41.3686 98.4442 41.2871C98.3406 41.2056 98.2697 41.0806 98.237 40.9229" fill="white" style="fill:white;fill-opacity:1;"/>
<path d="M99.6495 41.3469V41.2382C99.9003 40.8523 100.298 40.2489 100.838 39.4282L101.476 38.4607C101.335 38.4553 101.226 38.4498 101.149 38.4498C101.067 38.4498 100.991 38.4498 100.92 38.4498C100.735 38.4498 100.446 38.4607 100.042 38.477C100.004 38.477 99.9822 38.477 99.9658 38.477C99.9712 38.4498 99.9767 38.4281 99.9767 38.4064C99.9767 38.3792 99.9767 38.3411 99.9767 38.2922C99.9767 38.2433 99.9767 38.2052 99.9767 38.1781C99.9767 38.1509 99.9712 38.1291 99.9658 38.1074C100.168 38.1183 100.386 38.1237 100.609 38.1291C100.833 38.1346 101.073 38.14 101.324 38.14C101.575 38.14 101.815 38.14 102.033 38.1291C102.245 38.1291 102.458 38.1183 102.654 38.1074V38.1889C102.491 38.4281 102.273 38.7651 101.984 39.2054C101.7 39.6402 101.313 40.2326 100.833 40.9773C100.997 40.9827 101.122 40.9882 101.204 40.9882H101.433C101.64 40.9882 101.842 40.9882 102.033 40.9773C102.229 40.9718 102.425 40.961 102.616 40.9447C102.611 40.9882 102.605 41.0208 102.605 41.0534C102.605 41.086 102.605 41.1132 102.605 41.1349C102.605 41.1567 102.605 41.1893 102.605 41.2164C102.605 41.2491 102.611 41.2925 102.616 41.3523C102.414 41.3415 102.202 41.3306 101.967 41.3251C101.738 41.3197 101.466 41.3143 101.166 41.3143C100.866 41.3143 100.593 41.3143 100.348 41.3251C100.108 41.3306 99.8731 41.3415 99.6549 41.3523" fill="white" style="fill:white;fill-opacity:1;"/>
<path d="M103.222 41.3469C103.238 40.999 103.249 40.7001 103.26 40.4446C103.271 40.1891 103.271 39.95 103.271 39.7271C103.271 39.4662 103.265 39.2053 103.26 38.939C103.249 38.6727 103.238 38.39 103.222 38.102C103.298 38.1074 103.38 38.1128 103.467 38.1183C103.549 38.1183 103.636 38.1237 103.729 38.1237C103.822 38.1237 103.903 38.1237 103.991 38.1183C104.078 38.1183 104.16 38.1074 104.231 38.102C104.214 38.3955 104.203 38.6727 104.198 38.939C104.187 39.2053 104.181 39.4662 104.181 39.7271C104.181 39.95 104.187 40.1891 104.198 40.4446C104.203 40.7001 104.214 40.999 104.231 41.3469C104.143 41.336 104.056 41.3306 103.974 41.3197C103.892 41.3197 103.811 41.3143 103.723 41.3143C103.636 41.3143 103.56 41.3143 103.478 41.3197C103.396 41.3306 103.309 41.336 103.216 41.3469M103.216 36.8736C103.216 36.7268 103.265 36.6072 103.369 36.5094C103.467 36.4116 103.592 36.3572 103.74 36.3572C103.887 36.3572 104.002 36.4061 104.1 36.5094C104.198 36.6127 104.247 36.7322 104.247 36.8736C104.247 37.0149 104.198 37.1399 104.094 37.2377C103.996 37.3356 103.871 37.3845 103.729 37.3845C103.587 37.3845 103.462 37.3356 103.363 37.2377C103.265 37.1399 103.216 37.0203 103.216 36.8736Z" fill="white" style="fill:white;fill-opacity:1;"/>
<path d="M105.092 41.3469C105.109 41.0479 105.125 40.7653 105.13 40.499C105.141 40.2326 105.147 39.9772 105.147 39.7271C105.147 39.4499 105.147 39.1782 105.13 38.9064C105.12 38.6346 105.109 38.3629 105.092 38.0965C105.163 38.1074 105.24 38.1128 105.316 38.1183C105.392 38.1237 105.474 38.1291 105.567 38.1291C105.659 38.1291 105.736 38.1291 105.807 38.1183C105.883 38.1183 105.954 38.1074 106.019 38.0965V38.564C106.161 38.3792 106.314 38.2433 106.488 38.1563C106.663 38.0694 106.859 38.0204 107.072 38.0204C107.236 38.0204 107.388 38.0476 107.525 38.102C107.661 38.1618 107.781 38.2433 107.874 38.352C107.95 38.439 108.005 38.5477 108.037 38.6781C108.07 38.8086 108.086 39.026 108.086 39.3412C108.086 39.3847 108.086 39.5043 108.081 39.6891C108.075 39.8739 108.081 40.0424 108.081 40.1892C108.081 40.4011 108.081 40.6022 108.092 40.787C108.103 40.9773 108.114 41.1567 108.13 41.336C108.037 41.3251 107.945 41.3143 107.863 41.3088C107.781 41.3034 107.699 41.298 107.623 41.298C107.546 41.298 107.465 41.298 107.388 41.3088C107.306 41.3143 107.219 41.3251 107.121 41.336C107.137 41.1458 107.148 40.9121 107.159 40.6457C107.17 40.374 107.176 40.0804 107.176 39.7489C107.176 39.2543 107.137 38.939 107.061 38.7977C106.979 38.6564 106.837 38.5857 106.63 38.5857C106.423 38.5857 106.276 38.6727 106.188 38.8412C106.101 39.0097 106.052 39.2978 106.052 39.7054C106.052 39.8956 106.058 40.1239 106.063 40.3957C106.074 40.6675 106.079 40.9827 106.09 41.336C106.009 41.3251 105.921 41.3143 105.839 41.3088C105.758 41.3034 105.676 41.298 105.599 41.298C105.523 41.298 105.447 41.298 105.365 41.3088C105.283 41.3143 105.196 41.3251 105.103 41.336" fill="white" style="fill:white;fill-opacity:1;"/>
<path d="M109.744 39.3956H110.9C110.9 39.3956 110.9 39.3412 110.9 39.3032C110.9 39.2706 110.906 39.2434 110.906 39.2325C110.906 38.9227 110.862 38.6944 110.77 38.5368C110.682 38.3792 110.546 38.3031 110.371 38.3031C110.17 38.3031 110.017 38.3955 109.908 38.5748C109.799 38.7542 109.744 39.0097 109.744 39.3412V39.401V39.3956ZM109.744 39.7326C109.744 40.1239 109.837 40.4337 110.028 40.662C110.213 40.8903 110.47 41.0099 110.786 41.0099C110.944 41.0099 111.097 40.9827 111.239 40.9284C111.386 40.874 111.522 40.7925 111.658 40.6892L111.724 40.7381L111.577 41.124C111.429 41.2219 111.266 41.3034 111.075 41.3523C110.884 41.4067 110.671 41.4284 110.448 41.4284C109.919 41.4284 109.504 41.2708 109.199 40.961C108.899 40.6512 108.746 40.2163 108.746 39.6674C108.746 39.1727 108.899 38.7705 109.193 38.4661C109.493 38.1618 109.891 38.0096 110.382 38.0096C110.846 38.0096 111.206 38.14 111.457 38.4009C111.708 38.6618 111.833 39.0314 111.833 39.5152C111.833 39.575 111.833 39.6184 111.833 39.651C111.833 39.6837 111.833 39.7108 111.828 39.7326H109.739H109.744Z" fill="white" style="fill:white;fill-opacity:1;"/>
<path d="M94.0377 12.7568C93.9068 12.1046 93.5414 10.7131 93.2033 9.82172L93.7159 9.56626C94.3703 10.2837 95.063 11.5284 95.3466 12.2622L94.0377 12.7568ZM93.6177 19.763H92.0634V22.5242H93.6177V19.763ZM93.6177 16.5561H92.0634V19.0456H93.6177V16.5561ZM93.6177 13.7026H92.0634V15.8387H93.6177V13.7026ZM90.2746 12.2459H83.3757V11.5284H86.9424C86.3698 10.9251 85.7917 10.425 85.1809 9.93043L85.4045 9.43581C86.3044 9.69127 87.3896 10.1533 88.0605 10.6316L87.4224 11.523H90.2692V12.2405L90.2746 12.2459ZM83.5503 17.2247L83.1194 16.8551C83.872 15.643 84.4283 13.9037 84.7228 12.3546L86.0208 12.659C85.939 13.0612 85.7645 13.5232 85.5572 14.0178C86.1626 14.4309 86.697 14.8821 87.0951 15.3441L86.1844 16.2083C85.9281 15.6974 85.6227 15.1538 85.29 14.6266C84.8101 15.5995 84.1665 16.5888 83.5612 17.2301M97.4462 22.5242V23.258H92.0689V24.4701H90.6619L90.6782 16.1104C90.4546 16.4583 90.231 16.8116 89.991 17.1323L89.5439 16.8007C89.7347 16.3985 89.9147 16.018 90.0565 15.6213L89.3039 16.3061C89.0639 15.8115 88.7749 15.2843 88.4204 14.7897C88.1314 15.393 87.766 15.9854 87.3787 16.5127H87.6514V18.0128H90.3074V18.7303H87.6514V19.3064C88.6113 19.85 89.522 20.4098 90.1928 21.0458L89.2493 22.1002C88.8021 21.4317 88.1259 20.6327 87.646 20.0728V24.5733H86.2662V20.3935C85.6608 21.3012 84.5865 22.5459 83.2721 23.4863L82.9395 23.0242C84.0902 21.8774 85.1809 20.4751 85.9335 18.7303H83.2939V18.0128H86.2716V16.5127H86.6916C87.346 15.3332 87.6842 13.8819 87.8587 12.4307L89.1566 12.7514C89.0803 13.1808 88.9167 13.6482 88.7258 14.1428C89.2875 14.5124 89.8002 14.9092 90.1656 15.3386C90.7273 13.7134 90.9182 11.9904 91.1581 9.65866L92.6143 9.94673C92.5161 11.0012 92.3252 12.023 92.0362 12.996H97.239V13.7134H94.9975V15.8496H96.8409V16.567H94.9975V19.0564H96.8572V19.7739H94.9975V22.5351H97.4462V22.5242Z" fill="white" style="fill:white;fill-opacity:1;"/>
<path d="M115.274 21.7252L114.009 22.3503C113.605 21.0729 113.191 19.975 112.662 18.8879L113.109 18.5835C114.009 19.5076 114.745 20.5783 115.269 21.7252M109.608 16.6051C110.393 16.9421 111.849 17.7411 112.46 18.3607L111.517 19.4315C110.955 18.7303 109.952 17.6595 109.324 17.0725L109.613 16.6105L109.608 16.6051ZM112.749 20.4968C113.485 23.1166 113.616 24.1331 111.119 24.1331C108.779 24.1331 108.463 23.9591 108.463 22.2361V18.0889H109.87V21.9807C109.87 22.622 110.017 22.8231 111.02 22.8231C112.177 22.8231 112.188 22.6166 112.177 20.4914H112.749V20.4968ZM109.897 13.0775H106.603V12.36H109.897V9.6804H111.337V12.36H114.696V13.0775H111.337V15.8387H114.489V16.5561H106.936V15.8387H109.897V13.0775ZM104.52 19.6978H102.698V22.6003H104.52V19.6978ZM107.465 18.9314L108.026 19.0401C107.934 20.7305 107.563 22.1383 106.827 23.1112L105.752 22.3122V24.2418H104.536V23.3014H102.693V24.4646H101.444V18.9966H105.747V22.1546C106.565 21.3284 107.186 20.3663 107.459 18.9314M105.899 17.4475H101.4V16.779H105.899V17.4475ZM101.4 14.5777H105.899V15.2462H101.4V14.5777ZM106.265 13.0775H100.937V12.36H103.385C102.856 11.4523 102.262 10.4631 101.896 9.93586L102.3 9.53908C103.053 10.0337 104.105 10.8979 104.765 11.7241L103.931 12.3655H106.27V13.0829L106.265 13.0775Z" fill="white" style="fill:white;fill-opacity:1;"/>
<path d="M78.2711 24.2744C77.9275 23.883 77.5567 23.6493 77.3603 23.5406C77.3113 23.5189 77.2676 23.4971 77.2185 23.4699C76.9949 23.3395 76.7877 23.171 76.5423 23.1112C76.1714 23.0188 75.7733 23.0623 75.4025 22.9808C74.8735 22.8721 74.3554 22.7416 73.8209 22.6546C73.161 22.5568 72.4684 22.5242 71.8194 22.7199C71.5304 22.8068 71.1759 22.921 70.9686 23.1547C70.7941 23.3449 70.7996 23.5732 70.745 23.8124C70.6905 24.0352 70.6632 24.2635 70.6632 24.4972C70.6523 25.356 70.985 26.1985 71.4158 26.9268C71.6394 27.3182 71.9121 27.6878 72.2066 28.0302C72.4738 28.3455 72.7902 28.764 73.1392 28.9923C73.4828 29.2206 73.7173 29.3836 73.93 29.7315C74.0827 29.9761 74.099 30.0467 74.3881 30.1609C74.8571 30.3403 75.3916 30.3348 75.8878 30.3674C76.5368 30.4164 77.2349 30.4272 77.8784 30.3131C78.3638 30.2261 78.4565 29.8837 78.8601 29.65C79.2309 29.438 79.4164 29.3999 79.5909 28.9923C80.3653 27.1551 79.4109 25.5952 78.282 24.2689" fill="white" style="fill:white;fill-opacity:1;"/>
<path d="M283.995 0H141.997V50H283.995V0Z" fill="#0096DC" style="fill:#0096DC;fill:color(display-p3 0.0000 0.5882 0.8627);fill-opacity:1;"/>
<path d="M176.661 7.77802C177.375 9.8489 174.479 10.5283 173.143 11.0719C172.68 11.2621 172.222 11.4523 171.763 11.6643C171.453 11.8111 171.169 12.0067 170.847 12.1372C170.542 12.2568 170.215 12.3003 169.898 12.3709C169.184 12.5285 168.475 12.7025 167.766 12.8927C166.348 13.2732 164.946 13.7026 163.534 14.1102C162.727 14.3385 161.92 14.5614 161.107 14.7625C160.251 14.9745 159.378 14.7462 158.631 14.3059C157.938 13.8983 157.895 13.2514 157.578 12.5883C157.42 12.2513 157.442 11.8872 157.753 11.6208C157.835 11.5502 158.189 11.5719 158.304 11.5556C158.489 11.5284 158.675 11.5013 158.86 11.4741C159.225 11.4143 159.591 11.3491 159.956 11.2947C160.322 11.2404 160.687 11.1969 161.058 11.1697C161.461 11.1425 161.8 11.2404 162.154 11.0012C162.53 10.7512 162.896 10.5011 163.316 10.3163C164.117 9.95217 164.979 9.76193 165.846 9.62605C166.152 9.57713 166.452 9.53908 166.757 9.50103C166.915 9.47929 167.09 9.5119 167.242 9.46299C167.428 9.40863 167.477 9.3108 167.624 9.19665C167.935 8.96293 168.36 8.9575 168.666 8.71834C169.538 8.01718 170.705 7.75628 171.409 6.88662C171.911 6.47353 172.554 6.2996 173.198 6.26699C173.874 6.23437 174.561 6.18002 175.172 6.51701C175.739 6.82683 176.437 7.12577 176.661 7.78889" fill="white" style="fill:white;fill-opacity:1;"/>
<path d="M200.592 18.5292C200.684 18.1976 200.761 17.8498 200.761 17.5073C200.761 17.1486 200.548 16.8388 200.526 16.4855C200.504 16.2028 200.668 15.893 200.33 15.7408C199.632 15.2462 198.988 16.0344 198.29 16.1485C197.717 16.4311 197.287 16.9312 196.807 17.3388C196.469 17.6215 196.049 17.7791 195.689 18.0237C195.345 18.2629 195.078 18.589 194.74 18.839C194.02 19.3771 193.175 19.7195 192.427 20.2196C191.795 20.6381 190.366 20.475 189.668 20.3392C188.403 20.0946 187.296 19.4695 186.118 18.9966C185.605 18.7901 185.065 18.627 184.596 18.3281C184.056 17.9857 183.756 17.3769 183.216 17.0182C182.731 16.692 182.245 16.4094 182.387 15.7408C182.824 15.2734 183.44 15.1864 184.023 15.0451C186.036 14.6646 188.223 14.9581 190.181 14.2896C191.288 14.0015 192.455 13.7352 193.535 13.3601C193.818 13.2623 194.118 13.121 194.423 13.0177C194.751 12.909 194.958 12.6644 195.263 12.5122C195.934 12.1752 196.643 12.3763 197.319 12.1915C198.274 11.9306 199.212 11.6426 200.155 11.3382C200.701 11.1643 201.235 10.936 201.791 10.8055C202.233 10.7022 202.702 10.7131 203.095 10.4577C204.055 9.84346 205.271 10.1152 206.291 9.66409C207.147 9.28362 208.118 8.90314 209.034 8.68029C209.508 8.56071 210.005 8.50092 210.49 8.56615C211.313 8.67485 212.17 8.8814 212.988 9.0499C213.68 9.19665 214.395 9.29992 215.017 9.66409C215.355 9.85977 215.627 10.1533 215.802 10.5066C215.851 10.9577 215.693 11.3925 215.496 11.7948C215.398 11.9959 215.284 12.1915 215.175 12.3927C214.826 13.0286 214.253 13.1753 213.593 13.3493C212.928 13.5286 212.241 13.5939 211.564 13.4362C211.204 13.3547 210.839 13.1753 210.55 12.9471C209.388 12.2078 207.976 12.4144 206.716 12.7405C206.542 12.784 206.372 12.8329 206.203 12.8927C206.018 12.9579 205.849 12.9851 205.696 13.1047C205.554 13.2188 205.402 13.3112 205.238 13.3982C204.818 13.621 204.453 13.8167 204.453 14.3331C204.453 14.9473 204.349 15.6539 204.6 16.23C205.156 17.3932 204.426 18.5564 204.949 19.7195C205.184 21.2904 205.647 23.4971 205.593 25.3017C205.593 27.8019 205.794 30.9164 206.203 33.3243C206.296 33.8787 206.471 34.4222 206.607 34.9712C206.689 35.3136 206.711 35.6669 206.792 36.0148C206.967 36.754 207.141 37.2921 207.109 38.0639C207.071 38.9445 206.967 39.8195 206.841 40.6892C206.7 41.6458 206.405 42.5862 205.445 43.0101C204.507 44.0374 202.838 43.8417 201.65 43.4449C201.137 43.2764 200.499 42.5481 200.237 42.0861C200.079 41.8035 200.101 41.4665 200.03 41.1512C199.844 40.3522 199.512 39.5913 199.784 38.7651C200.368 32.0741 200.952 25.7365 200.602 19.0782" fill="white" style="fill:white;fill-opacity:1;"/>
<path d="M167.968 15.6919C168.551 16.3333 168.813 17.0888 169.162 17.8443C169.462 18.1705 169.838 18.1542 170.226 18.0074C170.564 17.8824 170.929 17.828 171.213 17.5997C171.496 17.3715 171.731 17.0671 172.003 16.8279C172.592 16.3007 173.22 15.8169 173.983 15.5669C174.436 15.4202 174.899 15.3604 175.374 15.4039C176.132 15.6974 177.097 15.6647 177.473 16.4529C177.822 16.9475 177.735 17.5291 177.561 18.0509C176.89 19.4152 175.227 19.9152 174.059 20.7849C173.127 21.2795 171.873 21.6274 171.404 22.6764C171.376 24.3342 172.718 25.6713 173.765 26.6333C175.368 28.2911 176.857 30.8186 179.017 31.8078C179.655 32.1013 180.184 32.6992 180.718 33.134C181.013 33.3732 181.313 33.6015 181.64 33.7917C182.005 34.0037 182.404 34.0798 182.764 34.3189C183.118 34.5581 183.576 34.6668 183.86 35.0038C183.974 35.1397 184.165 35.1669 184.318 35.243C184.634 35.406 184.847 35.7485 185.212 35.8191C185.414 35.8626 185.594 35.8191 185.785 35.9006C185.976 35.9876 186.15 36.1452 186.325 36.2594C187.137 36.792 187.972 37.2921 188.888 37.6237C189.242 37.7541 189.624 37.7704 189.979 37.9063C190.317 38.0367 190.535 38.3031 190.824 38.5042C191.32 38.852 191.997 39.1619 192.231 39.7598C192.384 40.1511 192.182 40.7381 191.931 41.0425C191.571 41.4828 190.911 41.5915 190.382 41.673C189.848 41.7545 189.297 42.0046 188.757 42.0644C188.463 42.097 188.157 42.0915 187.857 42.1133C187.219 42.1622 186.581 42.2274 185.943 42.2926C184.65 42.4231 183.358 42.559 182.06 42.5318C181.351 42.5209 180.517 42.6242 179.879 42.26C179.006 41.76 178.21 41.0045 177.408 40.3957C176.355 39.5967 175.636 38.4824 174.878 37.4008C174.087 36.2702 173.334 35.1125 172.538 33.9874C171.894 33.0742 171.256 32.0252 170.384 31.3132C170.073 31.0632 169.871 30.7099 169.566 30.449C169.298 30.2261 169.064 29.9761 168.835 29.7206C168.366 29.1934 167.864 28.7205 167.128 28.6553C166.85 29.0684 166.659 29.5358 166.55 30.0141C166.473 30.3403 166.49 30.6772 166.435 31.0088C166.386 31.286 166.288 31.5469 166.233 31.8241C166.124 32.4166 166.113 33.0579 165.814 33.596C165.628 33.9222 165.53 34.1885 165.437 34.5581C165.35 34.9223 165.17 35.3082 165.028 35.6506C164.946 35.8463 164.821 36.0148 164.734 36.205C164.576 36.5529 164.488 36.9279 164.308 37.2758C164.106 37.6617 163.877 38.0422 163.637 38.4064C163.147 39.1347 162.585 39.8195 161.969 40.45C161.625 40.8033 161.265 41.1458 160.894 41.4719C160.605 41.7274 160.354 42.0154 160.016 42.2111C159.673 42.4122 159.285 42.4938 158.909 42.6133C158.107 42.8688 157.382 43.2221 156.526 43.2656C156.019 43.2873 155.522 43.146 155.081 42.9068C154.89 42.8036 154.557 42.8199 154.344 42.7383C154.094 42.6459 153.843 42.5101 153.63 42.3524C153.385 42.1676 153.139 41.972 152.954 41.7219C152.856 41.586 152.768 41.4393 152.741 41.2708C152.692 40.9175 152.752 40.7979 152.528 40.499C152.239 40.1131 152.397 39.8576 152.31 39.4445C152.272 39.2434 152.174 39.0532 152.158 38.8521C152.13 38.5205 152.414 38.2542 152.599 38.0096C152.806 37.7378 152.981 37.4389 153.33 37.3247C153.723 37.1943 154.274 37.2106 154.672 37.2867C154.901 37.3301 155.119 37.4117 155.315 37.5367C155.637 37.7324 155.779 38.0313 156.182 37.7976C156.488 37.6237 156.662 37.2975 156.924 37.0747C157.12 36.9062 157.197 36.6235 157.393 36.4333C157.611 36.2213 157.818 35.993 158.004 35.7539C158.386 35.2538 158.675 34.694 158.871 34.1015C159.924 32.9982 160.038 31.4273 159.629 29.9163C158.549 29.8293 157.409 30.3837 156.275 30.0033C155.517 29.4489 154.404 29.1608 154.028 28.3183C153.505 27.7639 153.063 27.0682 152.976 26.28C153.297 25.4104 154.524 25.6713 155.222 25.5245C155.866 25.2636 156.624 25.2038 157.262 24.8831C157.622 24.7038 158.053 24.6494 158.418 24.4483C158.784 24.2526 159.122 24.0135 159.471 23.7906C159.814 23.5623 160.163 23.3395 160.54 23.171C160.943 22.9916 161.385 22.9318 161.783 22.7199C162.121 22.5405 162.432 22.285 162.727 22.0404C163.338 21.535 163.812 20.8229 163.708 20.0022C163.676 19.725 163.539 19.4749 163.539 19.1706C163.539 18.8716 163.599 18.5781 163.659 18.2846C163.719 17.9911 163.79 17.703 163.823 17.4041C163.872 16.9584 163.757 16.6594 164.03 16.2626C164.27 15.9093 164.619 15.6213 165.017 15.4636C165.339 15.3386 165.737 15.4039 166.07 15.4093C166.343 15.4093 166.686 15.219 166.948 15.2951C167.106 15.3386 167.221 15.4854 167.401 15.5289C167.591 15.5778 167.799 15.5669 167.962 15.6974" fill="white" style="fill:white;fill-opacity:1;"/>
<path d="M219.532 24.2744C219.189 23.883 218.818 23.6493 218.621 23.5406C218.572 23.5189 218.529 23.4971 218.48 23.4699C218.256 23.3449 218.049 23.1764 217.803 23.1112C217.432 23.0134 217.04 23.0623 216.664 22.9808C216.14 22.8666 215.616 22.7416 215.082 22.6601C214.422 22.5568 213.729 22.5296 213.086 22.7253C212.791 22.8123 212.442 22.9264 212.23 23.1601C212.055 23.3504 212.055 23.5787 212.001 23.8178C211.952 24.0407 211.919 24.2689 211.919 24.5027C211.913 25.356 212.241 26.2039 212.666 26.9323C212.895 27.3236 213.162 27.6932 213.457 28.0357C213.729 28.3509 214.046 28.7694 214.395 28.9977C214.738 29.226 214.973 29.3891 215.186 29.7369C215.338 29.9815 215.355 30.0522 215.644 30.1663C216.113 30.3457 216.647 30.3403 217.143 30.3783C217.792 30.4272 218.491 30.4381 219.134 30.324C219.619 30.237 219.712 29.8946 220.11 29.6608C220.481 29.4434 220.672 29.4108 220.841 29.0032C221.615 27.166 220.661 25.6006 219.532 24.2798V24.2744Z" fill="white" style="fill:white;fill-opacity:1;"/>
<path d="M238.713 21.2251H232.479V22.7579C232.479 23.4591 232.321 23.8124 231.759 24.0026C231.181 24.2092 230.363 24.2092 229.114 24.2092C229.032 23.8232 228.825 23.3014 228.634 22.9481C229.518 22.9808 230.445 22.9808 230.685 22.9808C230.941 22.9808 231.023 22.9155 231.023 22.709V21.2251H224.451V20.013H231.023V19.4369C231.727 19.1488 232.512 18.7683 233.188 18.3498H227.451V17.2627H234.71L235.032 17.1812L235.882 17.9476C234.955 18.6651 233.701 19.3554 232.485 19.8826V20.013H238.718V21.2251H238.713ZM226.175 18.3063H224.762V15.2571H225.978L225.689 10.5283C226.616 10.3707 227.996 9.96848 228.831 9.71301L229.474 10.5935C228.787 10.849 227.92 11.0719 227.118 11.2186L227.167 11.86H229.365V12.8166H227.216L227.265 13.5504H229.431V14.4907C229.878 14.2842 230.358 14.0287 230.778 13.7406C230.44 13.5341 230.074 13.3275 229.736 13.1645L230.456 12.5394C230.81 12.7133 231.208 12.9253 231.579 13.1482C231.868 12.8927 232.108 12.6372 232.299 12.3655L233.308 12.6862C233.052 13.0232 232.763 13.3384 232.425 13.6591C232.855 13.9472 233.21 14.2189 233.483 14.4744L232.73 15.1593C232.474 14.9038 232.103 14.6157 231.656 14.3113C231.192 14.6809 230.679 14.9853 230.21 15.2517H235.806C235.822 15.0125 235.855 14.7733 235.888 14.5179H233.755V13.545H235.953L236.019 12.8112H233.837V11.8545H236.084L236.117 11.1371H233.761V10.1641H237.578C237.497 11.7785 237.355 13.8222 237.224 15.2625H238.44V18.3118H236.968V16.3768H226.18V18.3118L226.175 18.3063ZM227.38 15.2517H230.123C229.965 15.0451 229.594 14.6755 229.371 14.5179H227.353L227.385 15.2517H227.38ZM232.686 12.3111C232.446 12.072 232.092 11.8165 231.694 11.561C231.247 11.898 230.767 12.2187 230.314 12.4416C230.14 12.2839 229.752 11.9143 229.496 11.7567C229.943 11.5665 230.412 11.311 230.81 11.0229C230.489 10.8327 230.14 10.637 229.801 10.4957L230.521 9.87064C230.859 10.0283 231.241 10.2239 231.596 10.4305C231.868 10.2076 232.092 9.95217 232.267 9.72932L233.275 10.0011C233.035 10.3218 232.763 10.6425 232.441 10.9414C232.828 11.1806 233.161 11.4197 233.417 11.6426L232.681 12.3111H232.686Z" fill="white" style="fill:white;fill-opacity:1;"/>
<path d="M244.854 14.9147C243.49 15.4745 242.094 16.0833 240.96 16.529L240.398 15.3169C241.489 14.9636 243.059 14.4092 244.63 13.8493L244.854 14.9201V14.9147ZM248.442 16.4529C248.218 16.866 247.995 17.2845 247.771 17.665H252.93V24.2798H251.376V23.6874H244.052V24.2798H242.563V17.665H246.315C246.49 17.2627 246.67 16.8334 246.779 16.4529C246.697 16.5507 246.588 16.6268 246.441 16.692C245.993 16.8823 245.317 16.866 244.341 16.866C244.275 16.529 244.117 16.0996 243.954 15.7789C244.597 15.7952 245.203 15.7952 245.399 15.7952C245.606 15.7952 245.655 15.73 245.655 15.5723V11.5121H240.812V10.3435H247.019V15.5669C247.019 15.8387 246.986 16.0452 246.937 16.2083L248.442 16.4474V16.4529ZM243.408 13.9091C243.01 13.4471 242.11 12.822 241.374 12.409L242.11 11.5447C242.847 11.9143 243.763 12.5014 244.177 12.9688L243.408 13.9091ZM251.376 18.801H244.052V20.0783H251.376V18.801ZM251.376 22.5242V21.2143H244.052V22.5242H251.376ZM247.542 14.9962C248.682 14.6429 250.345 14.0885 251.965 13.5123L252.205 14.5994C250.776 15.143 249.255 15.7028 248.055 16.1322L247.542 14.9962ZM254.163 15.556C254.163 16.2083 254.021 16.529 253.536 16.7355C253.072 16.9258 252.347 16.9258 251.305 16.9258C251.24 16.5725 251.082 16.0941 250.907 15.7571C251.578 15.7898 252.287 15.7898 252.494 15.7898C252.701 15.7735 252.751 15.7245 252.751 15.5506V11.5067H247.94V10.3381H254.158V15.5452L254.163 15.556ZM250.416 13.8765C249.985 13.4308 249.069 12.8057 248.317 12.3927L249.053 11.5284C249.789 11.8817 250.738 12.4524 251.185 12.9199L250.416 13.8765Z" fill="white" style="fill:white;fill-opacity:1;"/>
<path d="M224.157 31.8078C224.157 30.4272 225.073 29.6228 226.131 29.6228C226.671 29.6228 227.107 29.8783 227.385 30.1609L226.889 30.7642C226.682 30.5685 226.453 30.4327 226.153 30.4327C225.58 30.4327 225.128 30.9381 225.128 31.7698C225.128 32.6014 225.526 33.1232 226.137 33.1232C226.48 33.1232 226.747 32.9547 226.955 32.7318L227.451 33.3243C227.102 33.7265 226.644 33.933 226.104 33.933C225.046 33.933 224.157 33.1993 224.157 31.7969V31.8078Z" fill="white" style="fill:white;fill-opacity:1;"/>
<path d="M228.225 32.2807C228.225 31.2262 228.967 30.6175 229.774 30.6175C230.581 30.6175 231.323 31.2262 231.323 32.2807C231.323 33.3351 230.581 33.9385 229.774 33.9385C228.967 33.9385 228.225 33.3297 228.225 32.2807ZM230.358 32.2807C230.358 31.7317 230.161 31.3784 229.774 31.3784C229.387 31.3784 229.191 31.7371 229.191 32.2807C229.191 32.8242 229.387 33.183 229.774 33.183C230.161 33.183 230.358 32.8297 230.358 32.2807Z" fill="white" style="fill:white;fill-opacity:1;"/>
<path d="M232.37 30.6936H233.139L233.205 31.1012H233.226C233.488 30.8403 233.772 30.6175 234.192 30.6175C234.639 30.6175 234.912 30.8077 235.07 31.1501C235.348 30.8566 235.648 30.6175 236.068 30.6175C236.755 30.6175 237.06 31.1012 237.06 31.8948V33.8624H236.117V32.0144C236.117 31.5578 235.991 31.4165 235.724 31.4165C235.566 31.4165 235.386 31.5143 235.184 31.7263V33.8624H234.241V32.0144C234.241 31.5578 234.115 31.4165 233.848 31.4165C233.69 31.4165 233.51 31.5143 233.308 31.7263V33.8624H232.365V30.6936H232.37Z" fill="white" style="fill:white;fill-opacity:1;"/>
<path d="M238.271 30.6936H239.04L239.105 31.1012H239.127C239.389 30.8403 239.673 30.6175 240.093 30.6175C240.54 30.6175 240.812 30.8077 240.971 31.1501C241.249 30.8566 241.549 30.6175 241.969 30.6175C242.656 30.6175 242.961 31.1012 242.961 31.8948V33.8624H242.018V32.0144C242.018 31.5578 241.892 31.4165 241.625 31.4165C241.467 31.4165 241.287 31.5143 241.085 31.7263V33.8624H240.142V32.0144C240.142 31.5578 240.016 31.4165 239.749 31.4165C239.591 31.4165 239.411 31.5143 239.209 31.7263V33.8624H238.266V30.6936H238.271Z" fill="white" style="fill:white;fill-opacity:1;"/>
<path d="M243.981 32.2807C243.981 31.2262 244.723 30.6175 245.53 30.6175C246.337 30.6175 247.079 31.2262 247.079 32.2807C247.079 33.3351 246.337 33.9385 245.53 33.9385C244.723 33.9385 243.981 33.3297 243.981 32.2807ZM246.113 32.2807C246.113 31.7317 245.917 31.3784 245.53 31.3784C245.143 31.3784 244.946 31.7371 244.946 32.2807C244.946 32.8242 245.143 33.183 245.53 33.183C245.917 33.183 246.113 32.8297 246.113 32.2807Z" fill="white" style="fill:white;fill-opacity:1;"/>
<path d="M248.126 30.6936H248.895L248.96 31.0958H248.982C249.249 30.8403 249.571 30.6175 250.002 30.6175C250.694 30.6175 250.989 31.1012 250.989 31.8948V33.8624H250.045V32.0144C250.045 31.5578 249.92 31.4165 249.653 31.4165C249.418 31.4165 249.271 31.5252 249.064 31.7263V33.8624H248.12V30.6936H248.126Z" fill="white" style="fill:white;fill-opacity:1;"/>
<path d="M251.872 29.7043H252.838L253.127 31.6502C253.181 32.0905 253.241 32.5307 253.296 32.9655H253.323C253.405 32.5253 253.487 32.085 253.574 31.6502L254.021 29.7043H254.823L255.27 31.6502C255.352 32.0741 255.439 32.5253 255.521 32.9655H255.548C255.603 32.5198 255.663 32.0796 255.717 31.6502L256.006 29.7043H256.906L256.164 33.8678H254.976L254.567 31.9763C254.501 31.6556 254.447 31.3186 254.397 31.0088H254.37C254.321 31.3186 254.267 31.6556 254.201 31.9763L253.803 33.8678H252.636L251.862 29.7043H251.872Z" fill="white" style="fill:white;fill-opacity:1;"/>
<path d="M257.626 32.2807C257.626 31.2534 258.362 30.6175 259.126 30.6175C260.031 30.6175 260.478 31.2751 260.478 32.1394C260.478 32.3079 260.457 32.4764 260.44 32.5525H258.537C258.619 33.0145 258.935 33.221 259.36 33.221C259.6 33.221 259.818 33.1503 260.048 33.0145L260.358 33.5797C260.031 33.8026 259.606 33.9385 259.229 33.9385C258.324 33.9385 257.621 33.3297 257.621 32.2807H257.626ZM259.677 31.9328C259.677 31.585 259.524 31.3349 259.148 31.3349C258.848 31.3349 258.591 31.536 258.531 31.9328H259.677Z" fill="white" style="fill:white;fill-opacity:1;"/>
<path d="M261.318 32.9873C261.318 32.3187 261.853 31.96 263.107 31.8241C263.091 31.5469 262.949 31.3675 262.605 31.3675C262.338 31.3675 262.071 31.4817 261.765 31.6556L261.433 31.0414C261.836 30.7968 262.289 30.6229 262.791 30.6229C263.603 30.6229 264.056 31.0849 264.056 32.0578V33.8678H263.287L263.222 33.5417H263.2C262.933 33.7754 262.633 33.9439 262.273 33.9439C261.695 33.9439 261.324 33.5199 261.324 32.9873H261.318ZM263.113 32.9438V32.3894C262.442 32.4818 262.224 32.672 262.224 32.9112C262.224 33.1177 262.365 33.2156 262.589 33.2156C262.813 33.2156 262.943 33.1123 263.113 32.9438Z" fill="white" style="fill:white;fill-opacity:1;"/>
<path d="M265.25 32.8786V29.3891H266.194V32.9166C266.194 33.1177 266.287 33.183 266.363 33.183C266.401 33.183 266.423 33.183 266.477 33.1721L266.592 33.8624C266.488 33.9059 266.336 33.9385 266.117 33.9385C265.468 33.9385 265.25 33.52 265.25 32.8786Z" fill="white" style="fill:white;fill-opacity:1;"/>
<path d="M267.612 32.7155V31.4328H267.175V30.7316L267.661 30.6936L267.77 29.8511H268.55V30.6936H269.313V31.4328H268.55V32.6992C268.55 33.0579 268.713 33.2047 268.959 33.2047C269.062 33.2047 269.177 33.1721 269.259 33.1449L269.406 33.8243C269.237 33.8787 269.008 33.9385 268.697 33.9385C267.912 33.9385 267.601 33.4439 267.601 32.7101L267.612 32.7155Z" fill="white" style="fill:white;fill-opacity:1;"/>
<path d="M270.344 29.3891H271.288V30.4816L271.244 31.0577C271.484 30.8403 271.795 30.6175 272.226 30.6175C272.918 30.6175 273.213 31.1012 273.213 31.8948V33.8624H272.269V32.0144C272.269 31.5578 272.144 31.4165 271.877 31.4165C271.642 31.4165 271.495 31.5252 271.288 31.7263V33.8624H270.344V29.3891Z" fill="white" style="fill:white;fill-opacity:1;"/>
<path d="M224.353 37.3682H225.297V40.7436H226.944V41.5317H224.348V37.3682H224.353Z" fill="white" style="fill:white;fill-opacity:1;"/>
<path d="M227.724 39.95C227.724 38.9227 228.46 38.2868 229.223 38.2868C230.129 38.2868 230.576 38.9445 230.576 39.8087C230.576 39.9772 230.554 40.1457 230.538 40.2218H228.634C228.716 40.6838 229.032 40.8903 229.458 40.8903C229.698 40.8903 229.916 40.8197 230.145 40.6838L230.456 41.2491C230.129 41.4719 229.703 41.6078 229.327 41.6078C228.422 41.6078 227.718 40.999 227.718 39.95H227.724ZM229.774 39.6021C229.774 39.2543 229.621 39.0042 229.245 39.0042C228.945 39.0042 228.689 39.2054 228.629 39.6021H229.774Z" fill="white" style="fill:white;fill-opacity:1;"/>
<path d="M231.416 40.6512C231.416 39.9826 231.95 39.6239 233.205 39.488C233.188 39.2108 233.046 39.0314 232.703 39.0314C232.436 39.0314 232.168 39.1456 231.863 39.3195L231.53 38.7053C231.934 38.4607 232.386 38.2868 232.888 38.2868C233.701 38.2868 234.153 38.7488 234.153 39.7217V41.5317H233.384L233.319 41.2056H233.297C233.03 41.4393 232.73 41.6078 232.37 41.6078C231.792 41.6078 231.421 41.1838 231.421 40.6512H231.416ZM233.21 40.6131V40.0587C232.539 40.1511 232.321 40.3413 232.321 40.5805C232.321 40.787 232.463 40.8849 232.686 40.8849C232.91 40.8849 233.041 40.7816 233.21 40.6131Z" fill="white" style="fill:white;fill-opacity:1;"/>
<path d="M235.348 38.3629H236.117L236.182 38.9173H236.204C236.433 38.4933 236.782 38.2868 237.109 38.2868C237.289 38.2868 237.398 38.3085 237.491 38.352L237.333 39.1619C237.218 39.1347 237.126 39.1129 236.989 39.1129C236.749 39.1129 236.46 39.2651 236.291 39.7V41.5371H235.348V38.3683V38.3629Z" fill="white" style="fill:white;fill-opacity:1;"/>
<path d="M238.304 38.3629H239.073L239.138 38.7651H239.16C239.427 38.5096 239.749 38.2868 240.18 38.2868C240.872 38.2868 241.167 38.7705 241.167 39.5641V41.5317H240.223V39.6837C240.223 39.2271 240.098 39.0858 239.831 39.0858C239.596 39.0858 239.449 39.1945 239.242 39.3956V41.5317H238.298V38.3629H238.304Z" fill="white" style="fill:white;fill-opacity:1;"/>
<path d="M242.296 37.4062C242.296 37.1182 242.525 36.9171 242.841 36.9171C243.157 36.9171 243.387 37.1182 243.387 37.4062C243.387 37.6943 243.157 37.8954 242.841 37.8954C242.525 37.8954 242.296 37.6889 242.296 37.4062ZM242.372 38.3629H243.316V41.5317H242.372V38.3629Z" fill="white" style="fill:white;fill-opacity:1;"/>
<path d="M244.543 38.3629H245.312L245.377 38.7651H245.399C245.666 38.5096 245.988 38.2868 246.419 38.2868C247.111 38.2868 247.406 38.7705 247.406 39.5641V41.5317H246.462V39.6837C246.462 39.2271 246.337 39.0858 246.07 39.0858C245.835 39.0858 245.688 39.1945 245.481 39.3956V41.5317H244.537V38.3629H244.543Z" fill="white" style="fill:white;fill-opacity:1;"/>
<path d="M248.42 42.0752C248.42 41.8143 248.578 41.5969 248.873 41.4393V41.4121C248.709 41.3034 248.584 41.1349 248.584 40.874C248.584 40.6457 248.737 40.4229 248.938 40.2816V40.2544C248.715 40.0968 248.513 39.8032 248.513 39.4336C248.513 38.6727 249.146 38.2868 249.827 38.2868C250.002 38.2868 250.176 38.314 250.318 38.3629H251.48V39.0477H250.967C251.027 39.1401 251.076 39.2978 251.076 39.4662C251.076 40.1946 250.52 40.5316 249.822 40.5316C249.707 40.5316 249.576 40.5098 249.435 40.4718C249.358 40.537 249.326 40.5968 249.326 40.7055C249.326 40.8631 249.456 40.9392 249.8 40.9392H250.318C251.098 40.9392 251.534 41.1784 251.534 41.7437C251.534 42.4014 250.847 42.8797 249.756 42.8797C249.015 42.8797 248.426 42.6405 248.426 42.0752H248.42ZM250.629 41.9013C250.629 41.7002 250.455 41.6567 250.144 41.6567H249.811C249.593 41.6567 249.467 41.6458 249.364 41.6187C249.244 41.7165 249.189 41.8143 249.189 41.9285C249.189 42.1676 249.467 42.2926 249.893 42.2926C250.318 42.2926 250.618 42.1241 250.618 41.9067L250.629 41.9013ZM250.258 39.4336C250.258 39.0966 250.073 38.9173 249.822 38.9173C249.571 38.9173 249.386 39.0912 249.386 39.4336C249.386 39.7761 249.571 39.9609 249.822 39.9609C250.073 39.9609 250.258 39.7815 250.258 39.4336Z" fill="white" style="fill:white;fill-opacity:1;"/>
</g>
<defs>
<clipPath id="clip0_1_31">
<rect width="284" height="50" fill="white" style="fill:white;fill-opacity:1;"/>
</clipPath>
</defs>
</svg>
