<svg width="42" height="67" viewBox="0 0 42 67" fill="none" xmlns="http://www.w3.org/2000/svg">
<rect x="9" y="26" width="25" height="40" rx="12.5" stroke="white" style="stroke:white;stroke-opacity:1;" stroke-width="2"/>
<path d="M7.78835 5.27273C7.72017 4.69697 7.44366 4.25 6.95881 3.93182C6.47396 3.61364 5.87926 3.45455 5.17472 3.45455C4.65956 3.45455 4.20881 3.53788 3.82244 3.70455C3.43987 3.87121 3.14063 4.10038 2.92472 4.39205C2.71259 4.68371 2.60653 5.01515 2.60653 5.38636C2.60653 5.69697 2.6804 5.96401 2.82812 6.1875C2.97964 6.4072 3.17282 6.59091 3.40767 6.73864C3.64252 6.88258 3.88873 7.00189 4.14631 7.09659C4.40388 7.1875 4.64062 7.26136 4.85653 7.31818L6.03835 7.63636C6.34138 7.71591 6.6785 7.82576 7.04972 7.96591C7.42472 8.10606 7.78267 8.29735 8.12358 8.53977C8.46828 8.77841 8.75237 9.08523 8.97585 9.46023C9.19934 9.83523 9.31108 10.2955 9.31108 10.8409C9.31108 11.4697 9.14631 12.0379 8.81676 12.5455C8.491 13.053 8.01373 13.4564 7.38494 13.7557C6.75994 14.0549 6.00047 14.2045 5.10653 14.2045C4.2732 14.2045 3.55161 14.0701 2.94176 13.8011C2.3357 13.5322 1.85843 13.1572 1.50994 12.6761C1.16525 12.1951 0.97017 11.6364 0.924716 11H2.37926C2.41714 11.4394 2.56487 11.803 2.82244 12.0909C3.08381 12.375 3.41335 12.5871 3.81108 12.7273C4.21259 12.8636 4.64441 12.9318 5.10653 12.9318C5.64441 12.9318 6.12737 12.8447 6.5554 12.6705C6.98343 12.4924 7.32244 12.2462 7.57244 11.9318C7.82244 11.6136 7.94744 11.2424 7.94744 10.8182C7.94744 10.4318 7.83949 10.1174 7.62358 9.875C7.40767 9.63258 7.12358 9.43561 6.77131 9.28409C6.41903 9.13258 6.03835 9 5.62926 8.88636L4.19744 8.47727C3.28835 8.21591 2.56866 7.8428 2.03835 7.35795C1.50805 6.87311 1.2429 6.23864 1.2429 5.45455C1.2429 4.80303 1.41903 4.23485 1.77131 3.75C2.12737 3.26136 2.60464 2.88258 3.20312 2.61364C3.8054 2.34091 4.47775 2.20455 5.22017 2.20455C5.97017 2.20455 6.63684 2.33901 7.22017 2.60795C7.8035 2.87311 8.26563 3.23674 8.60653 3.69886C8.95123 4.16098 9.13305 4.68561 9.15199 5.27273H7.78835ZM14.9915 14.1818C14.1733 14.1818 13.4688 13.9886 12.8778 13.6023C12.2869 13.2159 11.8324 12.6837 11.5142 12.0057C11.196 11.3277 11.0369 10.553 11.0369 9.68182C11.0369 8.79545 11.1998 8.01326 11.5256 7.33523C11.8551 6.65341 12.3134 6.12121 12.9006 5.73864C13.4915 5.35227 14.1809 5.15909 14.9688 5.15909C15.5824 5.15909 16.1354 5.27273 16.6278 5.5C17.1203 5.72727 17.5237 6.04545 17.8381 6.45455C18.1525 6.86364 18.3475 7.34091 18.4233 7.88636H17.0824C16.9801 7.48864 16.7528 7.13636 16.4006 6.82955C16.0521 6.51894 15.5824 6.36364 14.9915 6.36364C14.4688 6.36364 14.0104 6.5 13.6165 6.77273C13.2263 7.04167 12.9214 7.42235 12.7017 7.91477C12.4858 8.40341 12.3778 8.97727 12.3778 9.63636C12.3778 10.3106 12.4839 10.8977 12.696 11.3977C12.9119 11.8977 13.215 12.286 13.6051 12.5625C13.9991 12.839 14.4612 12.9773 14.9915 12.9773C15.34 12.9773 15.6562 12.9167 15.9403 12.7955C16.2244 12.6742 16.465 12.5 16.6619 12.2727C16.8589 12.0455 16.9991 11.7727 17.0824 11.4545H18.4233C18.3475 11.9697 18.16 12.4337 17.8608 12.8466C17.5653 13.2557 17.1733 13.5814 16.6847 13.8239C16.1998 14.0625 15.6354 14.1818 14.9915 14.1818ZM20.3835 14V5.27273H21.679V6.59091H21.7699C21.929 6.15909 22.2169 5.80871 22.6335 5.53977C23.0502 5.27083 23.5199 5.13636 24.0426 5.13636C24.1411 5.13636 24.2642 5.13826 24.4119 5.14205C24.5597 5.14583 24.6714 5.15152 24.7472 5.15909V6.52273C24.7017 6.51136 24.5975 6.49432 24.4347 6.47159C24.2756 6.44508 24.107 6.43182 23.929 6.43182C23.5047 6.43182 23.1259 6.52083 22.7926 6.69886C22.4631 6.87311 22.2017 7.11553 22.0085 7.42614C21.8191 7.73295 21.7244 8.08333 21.7244 8.47727V14H20.3835ZM29.6165 14.1818C28.8286 14.1818 28.1373 13.9943 27.5426 13.6193C26.9517 13.2443 26.4896 12.7197 26.1562 12.0455C25.8267 11.3712 25.6619 10.5833 25.6619 9.68182C25.6619 8.77273 25.8267 7.97917 26.1562 7.30114C26.4896 6.62311 26.9517 6.09659 27.5426 5.72159C28.1373 5.34659 28.8286 5.15909 29.6165 5.15909C30.4044 5.15909 31.0938 5.34659 31.6847 5.72159C32.2794 6.09659 32.7415 6.62311 33.071 7.30114C33.4044 7.97917 33.571 8.77273 33.571 9.68182C33.571 10.5833 33.4044 11.3712 33.071 12.0455C32.7415 12.7197 32.2794 13.2443 31.6847 13.6193C31.0938 13.9943 30.4044 14.1818 29.6165 14.1818ZM29.6165 12.9773C30.215 12.9773 30.7074 12.8239 31.0938 12.517C31.4801 12.2102 31.7661 11.8068 31.9517 11.3068C32.1373 10.8068 32.2301 10.2652 32.2301 9.68182C32.2301 9.09848 32.1373 8.55492 31.9517 8.05114C31.7661 7.54735 31.4801 7.14015 31.0938 6.82955C30.7074 6.51894 30.215 6.36364 29.6165 6.36364C29.018 6.36364 28.5256 6.51894 28.1392 6.82955C27.7528 7.14015 27.4669 7.54735 27.2812 8.05114C27.0956 8.55492 27.0028 9.09848 27.0028 9.68182C27.0028 10.2652 27.0956 10.8068 27.2812 11.3068C27.4669 11.8068 27.7528 12.2102 28.1392 12.517C28.5256 12.8239 29.018 12.9773 29.6165 12.9773ZM36.9588 2.36364V14H35.6179V2.36364H36.9588ZM40.7557 2.36364V14H39.4148V2.36364H40.7557Z" fill="white" style="fill:white;fill-opacity:1;"/>
</svg>
